<svg id="svg" xmlns="http://www.w3.org/2000/svg" xmlns:xlink="http://www.w3.org/1999/xlink" width="400" height="400" viewBox="0, 0, 400,400"><g id="svgg"><path id="path0" d="M79.618 0.139 C 76.033 0.605,71.865 1.878,68.775 3.451 C 67.241 4.232,65.761 5.073,65.458 5.336 C 65.290 5.482,64.779 5.854,64.321 6.164 C 61.054 8.375,56.599 13.003,54.019 16.867 C 52.576 19.030,52.489 19.165,52.336 19.478 C 52.256 19.644,51.974 20.141,51.709 20.582 C 50.746 22.194,49.147 25.605,48.016 28.464 C 46.162 33.149,44.940 38.335,44.385 43.876 C 43.973 47.990,43.953 49.096,44.133 57.932 C 44.741 87.879,42.239 118.604,37.731 136.560 C 37.521 137.396,37.349 138.262,37.349 138.484 C 37.349 138.706,37.181 139.468,36.974 140.177 C 36.768 140.886,36.497 141.872,36.373 142.369 C 36.162 143.211,35.801 144.493,35.016 147.189 C 34.839 147.796,34.577 148.700,34.432 149.197 C 34.076 150.424,33.000 153.508,32.329 155.221 C 30.512 159.860,28.619 163.985,27.145 166.516 C 26.468 167.680,25.863 168.735,25.620 169.177 C 25.498 169.398,24.993 170.155,24.496 170.859 C 24.000 171.563,23.504 172.284,23.394 172.461 C 19.112 179.312,10.071 185.393,1.958 186.879 L 0.000 187.237 0.000 199.998 L 0.000 212.758 1.961 213.114 C 6.939 214.018,12.636 216.708,16.365 219.916 C 18.776 221.989,22.245 225.747,23.394 227.529 C 23.504 227.701,24.104 228.602,24.726 229.533 C 25.349 230.464,26.049 231.564,26.283 231.978 C 26.516 232.392,26.903 233.070,27.142 233.484 C 27.789 234.604,30.321 239.716,30.321 239.901 C 30.320 239.988,30.493 240.422,30.704 240.863 C 30.915 241.305,31.266 242.118,31.484 242.671 C 31.702 243.223,32.060 244.127,32.279 244.679 C 32.497 245.231,32.784 245.999,32.916 246.386 C 33.520 248.160,34.375 250.803,34.670 251.807 C 34.848 252.415,35.155 253.454,35.352 254.116 C 36.376 257.560,37.947 263.712,38.147 265.060 C 38.221 265.557,38.429 266.596,38.609 267.369 C 39.954 273.128,41.551 284.122,42.562 294.578 C 43.792 307.302,44.034 313.843,44.071 335.341 C 44.105 355.233,44.285 358.562,45.592 363.399 C 45.808 364.198,45.984 365.026,45.984 365.239 C 45.984 365.452,46.152 366.109,46.356 366.699 C 46.561 367.289,46.929 368.404,47.173 369.177 C 47.603 370.537,47.834 371.147,48.803 373.494 C 49.353 374.826,50.958 378.106,51.604 379.217 C 51.861 379.659,52.171 380.201,52.294 380.422 C 54.888 385.093,59.874 390.636,64.530 394.025 C 65.098 394.438,65.698 394.840,65.863 394.918 C 66.029 394.996,66.809 395.441,67.596 395.906 C 70.666 397.719,75.556 399.333,79.391 399.797 C 80.718 399.958,114.369 400.002,201.205 399.954 L 321.185 399.889 323.394 399.357 C 332.029 397.279,340.892 391.107,345.281 384.113 C 345.392 383.938,345.939 383.122,346.499 382.300 C 347.058 381.479,347.575 380.675,347.649 380.514 C 347.722 380.353,348.006 379.859,348.279 379.418 C 348.865 378.471,350.539 375.067,351.192 373.494 C 351.445 372.887,351.771 372.104,351.918 371.755 C 353.404 368.223,355.034 361.660,355.426 357.631 C 355.517 356.692,355.697 354.891,355.826 353.629 C 356.003 351.890,356.005 349.094,355.833 342.083 C 355.611 333.004,355.689 326.822,356.214 312.048 C 356.830 294.700,359.676 273.015,363.054 259.940 C 363.254 259.167,363.516 258.128,363.635 257.631 C 363.837 256.794,364.163 255.629,364.984 252.811 C 365.161 252.204,365.423 251.300,365.568 250.803 C 365.950 249.483,367.070 246.296,367.683 244.779 C 367.884 244.282,368.290 243.247,368.585 242.479 C 369.311 240.591,369.544 240.074,371.029 237.048 C 372.165 234.736,372.631 233.860,373.751 231.928 C 373.911 231.652,374.167 231.200,374.320 230.924 C 374.830 230.006,376.114 228.153,376.413 227.906 C 376.574 227.771,376.707 227.575,376.707 227.470 C 376.707 226.867,381.507 221.661,383.802 219.774 C 387.790 216.496,393.093 214.015,398.042 213.112 L 400.000 212.755 399.999 200.002 L 399.998 187.249 397.581 186.780 C 392.535 185.801,387.457 183.349,383.488 179.974 C 381.258 178.078,376.707 173.077,376.707 172.522 C 376.707 172.413,376.633 172.293,376.544 172.256 C 376.454 172.219,375.979 171.597,375.489 170.873 C 374.335 169.169,374.175 168.914,373.732 168.072 C 373.528 167.686,373.148 167.008,372.889 166.566 C 371.254 163.786,368.424 157.488,367.115 153.715 C 366.999 153.384,366.793 152.796,366.655 152.410 C 366.089 150.819,365.701 149.634,365.372 148.494 C 364.599 145.813,364.261 144.604,363.853 143.072 C 363.618 142.189,363.251 140.872,363.038 140.146 C 362.825 139.421,362.651 138.673,362.651 138.486 C 362.651 138.298,362.475 137.491,362.261 136.693 C 360.614 130.559,358.491 116.838,357.438 105.522 C 356.159 91.787,355.965 86.586,355.924 65.060 C 355.889 47.121,355.770 43.511,355.104 40.287 C 354.948 39.528,354.819 38.684,354.819 38.412 C 354.819 38.140,354.633 37.225,354.404 36.378 C 354.176 35.532,353.807 34.162,353.583 33.333 C 353.359 32.505,353.003 31.374,352.793 30.819 C 352.582 30.265,352.410 29.703,352.410 29.570 C 352.410 29.437,352.237 28.942,352.026 28.469 C 351.814 27.997,351.396 27.023,351.095 26.305 C 350.459 24.786,349.067 21.939,348.396 20.783 C 348.139 20.341,347.830 19.799,347.708 19.578 C 347.587 19.357,347.036 18.506,346.485 17.686 C 345.933 16.866,345.392 16.053,345.281 15.879 C 344.125 14.058,339.739 9.359,337.478 7.520 C 336.256 6.526,334.533 5.269,334.137 5.082 C 333.971 5.004,333.191 4.559,332.404 4.094 C 329.487 2.371,325.127 0.881,321.285 0.294 C 319.502 0.021,81.693 -0.131,79.618 0.139 M218.072 94.072 C 226.128 94.940,234.113 97.497,239.351 100.886 C 240.135 101.393,240.824 101.807,240.883 101.807 C 241.043 101.807,244.542 104.440,245.580 105.342 C 249.741 108.956,253.514 113.692,255.880 118.273 C 256.251 118.991,256.648 119.759,256.763 119.980 C 257.446 121.298,257.637 121.721,258.121 122.992 C 258.415 123.765,258.770 124.669,258.909 125.000 C 262.837 134.353,263.675 151.237,260.693 160.944 C 260.523 161.496,260.313 162.264,260.225 162.651 C 260.138 163.037,259.785 164.121,259.442 165.060 C 259.099 165.999,258.744 166.993,258.653 167.269 C 258.484 167.785,257.166 170.700,256.809 171.347 C 256.639 171.655,255.732 173.324,254.934 174.799 C 254.689 175.250,253.164 177.530,252.161 178.942 C 250.614 181.121,247.348 184.490,244.882 186.452 C 244.331 186.890,243.788 187.322,243.677 187.411 C 241.673 189.014,237.445 191.174,234.538 192.079 C 233.268 192.475,232.116 192.835,231.978 192.879 C 231.132 193.150,231.727 194.326,232.781 194.465 C 239.619 195.365,248.201 199.258,253.617 203.916 C 255.579 205.603,260.241 210.545,260.241 210.938 C 260.241 211.021,260.602 211.521,261.044 212.048 C 261.486 212.576,261.847 213.056,261.847 213.116 C 261.847 213.176,262.186 213.753,262.600 214.399 C 263.731 216.161,263.819 216.308,264.216 217.068 C 264.418 217.455,264.684 217.952,264.808 218.173 C 265.220 218.905,266.466 221.699,266.466 221.890 C 266.466 221.993,266.640 222.464,266.853 222.936 C 272.124 234.644,272.428 255.008,267.552 269.779 C 265.953 274.620,262.547 281.734,261.353 282.725 C 261.183 282.866,261.044 283.091,261.044 283.226 C 261.044 283.361,260.863 283.635,260.643 283.835 C 260.422 284.035,260.241 284.281,260.241 284.381 C 260.241 285.318,253.584 292.224,250.269 294.726 C 249.734 295.129,249.252 295.513,249.197 295.578 C 249.142 295.643,248.599 296.008,247.992 296.389 C 247.385 296.769,246.857 297.150,246.821 297.235 C 246.784 297.320,246.667 297.390,246.560 297.390 C 246.453 297.390,245.896 297.688,245.322 298.053 C 239.573 301.704,231.007 304.439,220.884 305.857 C 219.633 306.032,209.674 306.114,183.616 306.167 C 144.500 306.245,147.048 306.314,145.875 305.140 C 145.718 304.983,145.519 304.824,145.432 304.787 C 144.648 304.448,143.171 301.863,142.755 300.100 C 142.329 298.298,142.326 101.720,142.752 99.900 C 143.342 97.377,145.099 95.053,147.088 94.163 C 148.205 93.663,213.507 93.579,218.072 94.072 M169.277 152.307 L 169.277 184.158 187.801 184.081 L 206.325 184.004 209.036 183.490 C 217.182 181.943,222.225 179.589,226.979 175.114 C 228.103 174.056,230.321 171.408,230.321 171.125 C 230.321 171.019,230.455 170.822,230.618 170.686 C 230.945 170.415,231.126 170.093,232.559 167.229 C 233.095 166.158,233.534 165.137,233.534 164.960 C 233.534 164.783,233.659 164.395,233.812 164.096 C 236.827 158.212,236.162 142.827,232.569 135.341 C 229.254 128.436,223.735 124.006,215.810 121.892 C 211.005 120.609,211.303 120.625,189.307 120.536 L 169.277 120.456 169.277 152.307 M169.277 244.378 L 169.277 279.518 188.303 279.515 C 211.518 279.511,213.978 279.379,220.320 277.787 C 223.891 276.890,229.293 274.574,230.321 273.499 C 230.377 273.441,230.921 273.057,231.532 272.647 C 235.191 270.185,238.605 265.764,240.824 260.611 C 244.626 251.783,244.669 237.203,240.920 228.213 C 238.846 223.242,236.157 219.733,231.798 216.315 C 231.341 215.956,230.906 215.663,230.831 215.663 C 230.757 215.663,230.408 215.449,230.057 215.188 C 228.096 213.734,223.241 211.759,219.378 210.843 C 213.094 209.355,210.934 209.244,188.203 209.240 L 169.277 209.237 169.277 244.378 " stroke="none" fill="#f8f8f8" fill-rule="evenodd"></path></g></svg>
