<svg id="svg" xmlns="http://www.w3.org/2000/svg" xmlns:xlink="http://www.w3.org/1999/xlink" width="400" height="400" viewBox="0, 0, 400,400" version="1.1"><g id="svgg"><path id="path0" d="M188.133 0.225 C 74.963 7.267,-9.426 105.422,0.721 218.210 C 9.973 321.039,96.490 400.000,199.909 400.000 C 317.721 400.000,409.876 298.984,399.165 181.586 C 389.376 74.287,295.429 -6.451,188.133 0.225 M211.765 33.348 C 315.250 41.248,386.655 139.274,362.127 239.766 C 346.986 301.798,296.411 350.601,233.945 363.456 C 130.087 384.829,32.965 305.655,33.057 199.693 C 33.136 110.390,102.794 37.748,192.839 33.067 C 195.559 32.925,208.807 33.122,211.765 33.348 M197.033 76.610 C 195.406 77.063,195.138 77.238,136.961 116.025 C 75.304 157.131,78.765 154.729,77.449 157.328 C 76.241 159.714,76.317 156.844,76.317 199.892 C 76.317 243.037,76.245 240.419,77.500 242.733 C 78.850 245.221,76.687 243.725,137.596 284.311 C 178.009 311.240,195.454 322.756,196.317 323.073 C 198.764 323.972,202.400 323.784,204.638 322.642 C 207.153 321.359,320.184 245.716,320.986 244.780 C 322.127 243.447,322.993 241.777,323.368 240.186 C 323.832 238.217,323.842 161.514,323.378 159.735 C 322.940 158.052,321.955 156.217,320.854 155.033 C 319.265 153.326,205.094 77.304,203.274 76.741 C 201.686 76.251,198.560 76.185,197.033 76.610 M189.258 131.624 L 189.258 156.239 166.263 171.619 L 143.268 186.999 124.882 174.707 C 114.770 167.947,106.464 162.385,106.425 162.347 C 106.370 162.294,188.982 107.083,189.207 107.022 C 189.235 107.014,189.258 118.085,189.258 131.624 M252.251 134.731 C 274.877 149.811,293.392 162.212,293.396 162.289 C 293.403 162.470,256.951 186.858,256.662 186.866 C 256.542 186.869,246.161 179.992,233.593 171.585 L 210.742 156.299 210.742 131.739 C 210.742 117.196,210.817 107.206,210.927 107.246 C 211.028 107.284,229.624 119.652,252.251 134.731 M237.126 199.929 C 237.134 200.036,200.569 224.597,200.071 224.820 C 199.942 224.877,184.654 214.738,169.044 204.241 L 162.641 199.935 181.302 187.466 L 199.963 174.997 218.540 187.396 C 228.757 194.216,237.121 199.855,237.126 199.929 M110.555 191.019 C 117.550 195.700,123.389 199.640,123.529 199.773 C 123.734 199.966,100.710 215.747,97.884 217.350 C 97.637 217.491,97.596 215.009,97.596 200.010 C 97.596 190.383,97.650 182.506,97.716 182.506 C 97.782 182.506,103.559 186.337,110.555 191.019 M302.151 208.640 L 302.097 217.413 289.066 208.687 L 276.035 199.961 289.066 191.224 L 302.097 182.487 302.151 191.177 C 302.180 195.957,302.180 203.815,302.151 208.640 M166.267 228.302 L 189.156 243.611 189.208 268.199 C 189.237 281.723,189.213 292.788,189.156 292.788 C 189.046 292.788,106.820 238.015,106.528 237.747 C 106.382 237.613,142.883 213.011,143.249 212.997 C 143.320 212.995,153.679 219.882,166.267 228.302 M275.264 225.359 L 293.590 237.623 252.729 264.863 C 230.255 279.844,211.614 292.267,211.304 292.468 L 210.742 292.835 210.748 268.208 L 210.755 243.581 233.613 228.293 C 246.185 219.885,256.576 213.025,256.704 213.050 C 256.832 213.075,265.184 218.614,275.264 225.359 " stroke="none" fill="#128482" fill-rule="evenodd"></path></g></svg>
