<svg id="svg" xmlns="http://www.w3.org/2000/svg" xmlns:xlink="http://www.w3.org/1999/xlink" width="400" height="400" viewBox="0, 0, 400,400"><g id="svgg"><path id="path0" d="M81.603 26.958 L 81.603 53.916 112.933 53.916 L 144.262 53.916 144.262 45.173 L 144.262 36.430 126.389 36.430 L 108.516 36.430 108.721 27.505 L 108.925 18.579 126.594 18.384 L 144.262 18.189 144.262 9.095 L 144.262 0.000 112.933 0.000 L 81.603 0.000 81.603 26.958 M169.035 7.167 L 169.035 14.334 179.941 25.382 L 190.847 36.430 181.034 36.430 L 171.220 36.430 171.220 45.173 L 171.220 53.916 201.093 53.916 L 230.965 53.916 230.965 45.630 L 230.965 37.344 223.497 30.396 C 219.390 26.575,214.882 22.440,213.479 21.208 L 210.929 18.967 220.947 18.955 L 230.965 18.944 230.965 9.472 L 230.965 0.000 200.000 0.000 L 169.035 0.000 169.035 7.167 M255.009 7.161 L 255.009 14.322 265.886 25.376 L 276.764 36.430 266.979 36.430 L 257.195 36.430 257.195 45.173 L 257.195 53.916 287.067 53.916 L 316.940 53.916 316.940 45.613 L 316.940 37.310 310.565 31.457 C 307.058 28.238,302.557 24.105,300.562 22.274 L 296.935 18.944 306.938 18.944 L 316.940 18.944 316.940 9.472 L 316.940 0.000 285.974 0.000 L 255.009 0.000 255.009 7.161 M1.457 76.368 C 1.457 77.483,7.999 134.999,13.116 178.871 C 13.910 185.683,16.698 209.945,19.311 232.787 C 27.923 308.085,32.138 344.847,33.385 355.546 C 34.493 365.057,34.758 366.121,36.069 366.302 C 37.903 366.554,44.130 367.764,50.273 369.060 C 52.878 369.610,56.976 370.429,59.381 370.881 C 61.785 371.334,65.883 372.153,68.488 372.703 C 71.093 373.253,75.191 374.074,77.596 374.528 C 80.000 374.983,84.098 375.789,86.703 376.321 C 89.308 376.852,93.406 377.670,95.811 378.138 C 98.215 378.606,102.313 379.439,104.918 379.989 C 107.523 380.539,111.621 381.358,114.026 381.810 C 116.430 382.263,120.528 383.082,123.133 383.632 C 125.738 384.182,129.836 385.001,132.240 385.453 C 134.645 385.906,138.743 386.725,141.348 387.275 C 143.953 387.825,148.051 388.644,150.455 389.096 C 152.860 389.549,156.958 390.368,159.563 390.918 C 162.168 391.468,166.266 392.287,168.670 392.739 C 171.075 393.191,175.173 394.011,177.778 394.561 C 180.383 395.111,184.317 395.896,186.521 396.307 C 188.725 396.717,193.076 397.614,196.189 398.299 C 201.440 399.454,202.206 399.460,206.754 398.375 C 209.451 397.731,213.625 396.821,216.029 396.351 C 218.434 395.882,222.368 395.059,224.772 394.522 C 227.177 393.985,231.111 393.171,233.515 392.714 C 235.920 392.257,239.854 391.438,242.259 390.896 C 244.663 390.353,248.761 389.532,251.366 389.071 C 253.971 388.610,258.069 387.789,260.474 387.247 C 262.878 386.704,266.812 385.879,269.217 385.415 C 271.621 384.950,275.556 384.130,277.960 383.593 C 280.364 383.056,284.299 382.242,286.703 381.785 C 289.107 381.328,293.042 380.509,295.446 379.967 C 297.851 379.424,301.949 378.603,304.554 378.142 C 307.158 377.681,311.257 376.860,313.661 376.318 C 316.066 375.775,320.000 374.950,322.404 374.486 C 324.809 374.021,328.743 373.201,331.148 372.664 C 333.552 372.127,337.486 371.310,339.891 370.848 C 342.295 370.386,346.393 369.536,348.998 368.959 C 351.603 368.382,356.029 367.480,358.834 366.956 L 363.934 366.003 365.173 356.225 C 365.854 350.848,367.895 334.317,369.709 319.490 C 373.087 291.872,374.696 278.731,380.993 227.322 C 382.981 211.093,386.451 182.732,388.703 164.299 C 390.955 145.865,394.255 118.951,396.035 104.489 C 397.815 90.027,399.271 77.487,399.271 76.620 L 399.271 75.046 200.364 75.046 C 8.693 75.046,1.457 75.094,1.457 76.368 M324.954 154.304 L 324.954 171.631 321.494 172.583 C 319.590 173.107,316.557 173.988,314.754 174.540 C 306.612 177.036,298.751 179.309,294.891 180.285 C 292.582 180.868,290.373 181.543,289.982 181.785 C 289.591 182.027,287.382 182.702,285.073 183.286 C 281.353 184.226,276.188 185.714,265.209 189.009 C 263.406 189.550,260.455 190.402,258.652 190.902 C 256.849 191.401,254.062 192.225,252.459 192.733 C 250.856 193.241,248.069 194.060,246.266 194.555 C 244.463 195.049,241.676 195.868,240.073 196.376 C 238.470 196.884,235.683 197.695,233.880 198.179 C 232.077 198.662,229.290 199.473,227.687 199.981 C 226.084 200.489,223.297 201.308,221.494 201.802 C 219.690 202.297,216.903 203.136,215.301 203.667 C 213.698 204.199,211.730 204.783,210.929 204.965 C 210.128 205.147,233.324 205.333,262.477 205.380 C 294.485 205.431,315.483 205.732,315.483 206.140 C 315.483 206.511,313.999 218.888,312.185 233.644 C 310.371 248.400,307.910 268.506,306.715 278.324 C 305.520 288.142,304.053 300.057,303.455 304.803 C 302.857 309.548,302.368 313.848,302.368 314.357 C 302.368 314.910,300.533 315.652,297.814 316.198 C 295.310 316.701,291.621 317.529,289.617 318.038 C 287.614 318.546,284.007 319.350,281.603 319.824 C 279.199 320.298,275.428 321.142,273.224 321.698 C 271.020 322.254,267.413 323.064,265.209 323.497 C 263.005 323.930,259.399 324.740,257.195 325.297 C 254.991 325.853,251.220 326.683,248.816 327.140 C 246.412 327.598,242.641 328.427,240.437 328.984 C 238.233 329.540,234.627 330.350,232.423 330.783 C 230.219 331.216,226.612 332.026,224.408 332.583 C 222.204 333.139,218.434 333.965,216.029 334.419 C 213.625 334.873,209.989 335.716,207.951 336.292 C 203.259 337.619,199.942 337.615,194.291 336.277 C 191.821 335.692,187.832 334.857,185.428 334.421 C 183.024 333.986,178.925 333.175,176.321 332.620 C 173.716 332.064,169.454 331.235,166.849 330.778 C 164.244 330.320,160.146 329.497,157.741 328.948 C 155.337 328.400,151.239 327.583,148.634 327.132 C 146.029 326.682,141.767 325.859,139.162 325.304 C 136.557 324.748,132.459 323.922,130.055 323.468 C 127.650 323.014,123.552 322.207,120.947 321.676 C 118.342 321.144,114.408 320.369,112.204 319.952 C 100.816 317.801,96.178 316.531,96.176 315.562 C 96.174 314.220,90.474 266.254,89.953 263.196 L 89.548 260.819 114.519 261.010 L 139.490 261.202 141.694 274.681 L 143.898 288.160 147.177 288.637 C 152.976 289.479,159.112 290.553,162.477 291.313 C 164.281 291.721,168.215 292.435,171.220 292.899 C 174.226 293.364,178.816 294.182,181.421 294.718 C 196.417 297.800,194.843 297.800,215.665 294.710 C 219.472 294.145,225.537 293.325,229.144 292.887 C 232.750 292.449,238.980 291.612,242.987 291.027 C 246.995 290.442,251.257 289.885,252.459 289.790 L 254.645 289.617 257.685 268.488 C 259.357 256.867,260.750 246.347,260.781 245.110 L 260.838 242.862 216.576 242.379 C 192.231 242.113,153.250 241.895,129.951 241.895 L 87.590 241.894 87.194 240.255 C 86.977 239.353,85.613 232.550,84.163 225.137 C 82.713 217.723,81.358 210.973,81.151 210.136 C 80.716 208.375,84.804 206.764,102.732 201.632 C 104.135 201.230,106.430 200.488,107.832 199.983 C 109.235 199.477,111.858 198.665,113.661 198.179 C 115.464 197.692,118.087 196.872,119.490 196.357 C 120.893 195.842,123.515 195.022,125.319 194.536 C 127.122 194.049,129.745 193.229,131.148 192.714 C 132.550 192.199,135.173 191.372,136.976 190.876 C 138.780 190.381,141.566 189.544,143.169 189.016 C 144.772 188.489,150.018 186.871,154.827 185.420 C 159.636 183.970,164.882 182.343,166.485 181.805 C 168.087 181.267,172.350 179.937,175.956 178.851 C 186.601 175.643,194.071 173.288,195.628 172.647 C 196.430 172.317,170.453 172.025,137.901 171.998 L 78.716 171.949 78.350 170.310 C 77.651 167.189,72.131 138.096,72.131 137.537 C 72.131 137.229,129.016 136.976,198.543 136.976 L 324.954 136.976 324.954 154.304 " stroke="none" fill="#f8f8f8" fill-rule="evenodd"></path></g></svg>
