<?xml version="1.0" encoding="utf-8"?>
<!-- Generator: Adobe Illustrator 24.2.0, SVG Export Plug-In . SVG Version: 6.00 Build 0)  -->
<svg version="1.1" id="Layer_1" xmlns="http://www.w3.org/2000/svg" xmlns:xlink="http://www.w3.org/1999/xlink" x="0px" y="0px"
	 viewBox="0 0 50.4 50.4" style="enable-background:new 0 0 50.4 50.4;" xml:space="preserve">
<style type="text/css">
	.st0{fill:#3b2f2f;}
</style>
<g>
	<path class="st0" d="M25.2,0c13.6-0.2,25,11.3,25.2,24.8c0.2,13.8-11.2,25.4-24.8,25.6C11.3,50.6,0.2,38.7,0,25.7
		C-0.2,11.7,11.4-0.2,25.2,0z M23.8,28.9c-0.9,0-1.8,0-2.7,0c-0.3,0-0.4,0.1-0.5,0.4c-0.2,0.8-0.7,1.4-1.3,1.9
		c-1.2,0.9-2.5,1.2-4,1.1c-2.5-0.1-4.5-1.7-5-4c-0.1-0.6-0.2-1.2-0.2-1.8c0-0.5,0-0.5,0.5-0.5c4.3,0,8.7,0,13,0
		c0.4,0,0.5-0.1,0.5-0.5c0-1.6-0.2-3.1-0.8-4.6c-0.9-2.5-2.5-4.4-5.1-5.1c-4.3-1.2-8.7,0.6-10.5,5c-1.4,3.4-1.1,6.8,0.5,10.1
		c0.9,1.9,2.5,3.1,4.5,3.7c2.1,0.6,4.2,0.7,6.2,0c2.4-0.8,4-2.3,4.8-4.8C23.6,29.5,23.7,29.2,23.8,28.9z M25.3,15.4
		c0.1,0.2,0.2,0.3,0.3,0.4c2.1,2.8,4.1,5.6,6.2,8.4c0.2,0.3,0.2,0.5,0,0.8c-2.3,3.1-4.5,6.3-6.7,9.4c-0.1,0.1-0.2,0.3-0.3,0.4
		c1.2,0,2.3,0,3.4,0c0.3,0,0.5-0.1,0.7-0.4c1.6-2.4,3.2-4.8,4.9-7.2c0.1-0.1,0.2-0.3,0.3-0.4c0.1,0.2,0.2,0.3,0.3,0.4
		c1.6,2.4,3.3,4.8,4.9,7.3c0.2,0.3,0.3,0.4,0.7,0.4c1.1,0,2.2,0,3.3,0c0.1,0,0.2,0,0.5,0c-0.2-0.2-0.3-0.4-0.4-0.5
		c-2.3-3.2-4.6-6.4-6.9-9.6c-0.2-0.3-0.2-0.5,0-0.7c2.1-2.7,4.1-5.5,6.1-8.2c0.1-0.1,0.2-0.3,0.3-0.4c-0.2,0-0.3,0-0.4,0
		c-1,0-2,0-3,0c-0.3,0-0.5,0.1-0.6,0.3c-1.4,2-2.9,4.1-4.3,6.1c-0.1,0.1-0.2,0.2-0.3,0.4c-0.1-0.2-0.2-0.3-0.3-0.4
		c-1.3-1.9-2.7-3.9-4-5.8c-0.3-0.4-0.5-0.6-1-0.6c-1,0-2,0-2.9,0C25.7,15.4,25.5,15.4,25.3,15.4z"/>
	<path class="st1" d="M20.7,23.4c0.2-1.4-1-3.5-2.5-4.4c-1.9-1.1-3.9-1.1-5.8,0.1c-1.6,1-2.2,2.5-2.4,4.4
		C13.6,23.4,17.2,23.4,20.7,23.4z"/>
	<path class="st0" d="M20.7,23.4c-3.5,0-7.1,0-10.7,0c0.2-1.8,0.8-3.4,2.4-4.4c1.9-1.2,3.9-1.2,5.8-0.1
		C19.7,19.8,20.9,21.9,20.7,23.4z"/>
</g>
</svg>
