<svg id="svg" xmlns="http://www.w3.org/2000/svg" xmlns:xlink="http://www.w3.org/1999/xlink" width="400" height="400" viewBox="0, 0, 400,400" version="1.1"><g id="svgg"><path id="path0" d="M67.969 14.851 C 58.589 16.037,49.775 19.215,43.104 23.818 C 41.747 24.754,40.495 25.521,40.323 25.521 C 39.486 25.521,27.083 37.608,27.083 38.423 C 27.083 38.713,26.732 39.086,26.302 39.251 C 25.872 39.416,25.521 39.795,25.521 40.093 C 25.521 40.392,24.759 41.747,23.828 43.104 C 18.996 50.151,16.103 58.289,14.802 68.490 C 13.676 77.325,13.719 322.426,14.849 331.510 C 16.113 341.678,19.046 349.979,23.818 356.896 C 24.754 358.253,25.521 359.505,25.521 359.677 C 25.521 360.664,39.336 374.479,40.323 374.479 C 40.495 374.479,41.747 375.246,43.104 376.182 C 45.719 377.986,51.476 380.884,54.948 382.144 C 64.821 385.726,68.231 385.928,118.880 385.933 L 163.021 385.938 163.021 322.396 L 163.021 258.854 140.104 258.854 L 117.188 258.854 117.188 232.292 L 117.188 205.729 140.104 205.729 L 163.021 205.729 163.023 185.807 C 163.027 148.156,165.333 136.271,175.517 121.401 C 191.543 98.003,218.655 90.955,266.536 97.742 L 272.917 98.646 272.917 121.198 L 272.917 143.750 261.054 143.750 C 240.192 143.750,232.895 145.651,226.907 152.647 C 221.393 159.089,220.833 162.167,220.833 186.047 L 220.833 205.729 245.833 205.729 C 268.406 205.729,270.833 205.810,270.833 206.563 C 270.833 207.021,270.374 210.244,269.812 213.724 C 269.251 217.205,268.423 222.513,267.974 225.521 C 267.525 228.529,266.823 233.099,266.415 235.677 C 265.434 241.873,263.692 253.279,263.253 256.380 L 262.903 258.854 241.868 258.854 L 220.833 258.854 220.833 322.396 L 220.833 385.938 273.307 385.933 C 337.838 385.927,339.086 385.819,351.619 379.155 C 353.736 378.030,356.230 376.708,357.161 376.218 C 358.092 375.728,358.854 375.137,358.854 374.904 C 358.854 374.670,359.213 374.479,359.652 374.479 C 360.090 374.479,360.584 374.128,360.749 373.698 C 360.914 373.268,361.317 372.914,361.644 372.912 C 362.471 372.905,374.479 360.523,374.479 359.677 C 374.479 359.505,375.246 358.253,376.182 356.896 C 380.954 349.979,383.887 341.678,385.151 331.510 C 386.281 322.426,386.324 77.325,385.198 68.490 C 384.114 59.992,382.561 54.807,379.172 48.381 C 378.055 46.264,376.750 43.770,376.272 42.839 C 375.794 41.908,375.194 41.146,374.941 41.146 C 374.687 41.146,374.476 40.853,374.472 40.495 C 374.451 38.675,361.325 25.549,359.505 25.528 C 359.147 25.524,358.854 25.313,358.854 25.059 C 358.854 24.806,358.092 24.206,357.161 23.728 C 356.230 23.250,353.736 21.945,351.619 20.828 C 345.193 17.439,340.008 15.886,331.510 14.802 C 323.490 13.780,76.079 13.826,67.969 14.851 " stroke="none" fill="#128482" fill-rule="evenodd"></path></g></svg>
