<svg id="svg" xmlns="http://www.w3.org/2000/svg" xmlns:xlink="http://www.w3.org/1999/xlink" width="400" height="400" viewBox="0, 0, 400,400"><g id="svgg"><path id="path0" d="M36.971 26.726 L 36.971 53.452 49.666 53.452 L 62.361 53.452 62.361 44.543 L 62.361 35.635 73.942 35.635 L 85.523 35.635 85.523 44.543 L 85.523 53.452 98.441 53.452 L 111.359 53.452 111.359 26.726 L 111.359 0.000 98.441 0.000 L 85.523 0.000 85.523 8.909 L 85.523 17.817 73.942 17.817 L 62.361 17.817 62.361 8.909 L 62.361 0.000 49.666 0.000 L 36.971 0.000 36.971 26.726 M122.494 8.909 L 122.494 17.817 133.630 17.817 L 144.766 17.817 144.766 35.635 L 144.766 53.452 157.461 53.452 L 170.156 53.452 170.156 35.635 L 170.156 17.817 181.514 17.817 L 192.873 17.817 192.873 8.909 L 192.873 0.000 157.684 0.000 L 122.494 0.000 122.494 8.909 M204.009 26.726 L 204.009 53.452 216.481 53.452 L 228.953 53.452 228.953 40.535 C 228.953 33.430,229.079 27.617,229.232 27.617 C 229.385 27.617,230.437 28.647,231.570 29.906 C 232.703 31.165,234.332 32.943,235.189 33.857 C 236.047 34.771,238.252 37.178,240.089 39.206 C 245.867 45.583,246.156 45.880,246.583 45.880 C 246.812 45.880,250.907 41.622,255.682 36.418 L 264.365 26.957 264.483 40.205 L 264.601 53.452 277.222 53.452 L 289.843 53.452 289.843 26.726 L 289.843 0.000 276.446 -0.000 L 263.048 -0.000 261.465 1.732 C 260.595 2.684,258.987 4.529,257.892 5.830 C 256.798 7.131,255.025 9.208,253.953 10.446 C 252.881 11.683,251.494 13.296,250.871 14.031 C 250.247 14.766,249.087 16.100,248.293 16.996 L 246.849 18.624 244.471 15.923 C 243.164 14.437,241.729 12.802,241.282 12.290 C 240.836 11.778,240.035 10.857,239.501 10.244 C 238.967 9.630,237.528 7.928,236.303 6.461 C 235.078 4.993,233.291 2.940,232.333 1.896 L 230.590 0.000 217.299 0.000 L 204.009 0.000 204.009 26.726 M302.450 26.726 L 302.450 53.452 333.185 53.452 L 363.920 53.452 363.920 44.766 L 363.920 36.080 345.880 36.080 L 327.840 36.080 327.840 18.040 L 327.840 0.000 315.145 0.000 L 302.450 0.000 302.450 26.726 M0.000 80.067 C 0.001 80.986,0.807 88.151,1.792 95.991 C 2.777 103.831,5.389 124.577,7.596 142.094 C 9.803 159.610,13.112 185.869,14.949 200.445 C 16.785 215.022,19.379 235.568,20.712 246.102 C 23.647 269.291,31.905 334.829,34.288 353.850 C 36.107 368.364,36.104 368.355,38.478 368.367 C 39.185 368.371,40.488 368.556,41.374 368.779 C 43.247 369.249,48.547 370.344,52.227 371.021 C 56.755 371.854,59.842 372.446,62.806 373.051 C 64.399 373.376,66.904 373.877,68.374 374.165 C 69.844 374.452,72.350 374.953,73.942 375.278 C 75.535 375.603,78.040 376.096,79.510 376.374 C 80.980 376.652,83.486 377.157,85.078 377.496 C 86.670 377.836,89.276 378.345,90.869 378.628 C 97.011 379.719,98.752 380.053,101.336 380.637 C 102.806 380.970,105.312 381.465,106.904 381.737 C 108.497 382.010,111.002 382.507,112.472 382.843 C 113.942 383.178,116.448 383.685,118.040 383.970 C 119.633 384.255,122.038 384.684,123.385 384.925 C 124.733 385.165,127.038 385.634,128.508 385.966 C 129.978 386.299,132.483 386.799,134.076 387.079 C 135.668 387.359,138.274 387.862,139.866 388.198 C 143.779 389.023,146.656 389.583,150.111 390.194 C 151.704 390.475,154.310 390.984,155.902 391.323 C 157.494 391.663,160.000 392.168,161.470 392.445 C 162.940 392.723,165.445 393.216,167.038 393.541 C 168.630 393.866,171.136 394.359,172.606 394.637 C 174.076 394.915,176.581 395.420,178.174 395.759 C 179.766 396.099,182.372 396.607,183.964 396.888 C 188.218 397.640,190.943 398.188,194.355 398.978 C 198.207 399.869,201.348 399.869,205.199 398.978 C 208.611 398.188,211.337 397.640,215.590 396.888 C 217.183 396.607,219.788 396.099,221.381 395.759 C 222.973 395.420,225.479 394.923,226.949 394.655 C 228.419 394.387,230.924 393.893,232.517 393.557 C 234.109 393.221,236.615 392.720,238.085 392.443 C 239.555 392.167,242.060 391.663,243.653 391.323 C 245.245 390.984,247.851 390.475,249.443 390.194 C 252.898 389.583,255.776 389.023,259.688 388.198 C 261.281 387.862,263.886 387.362,265.479 387.087 C 267.071 386.812,269.577 386.312,271.047 385.977 C 272.517 385.642,275.022 385.134,276.615 384.850 C 283.228 383.667,284.543 383.420,287.305 382.836 C 288.898 382.500,291.403 381.998,292.873 381.722 C 294.343 381.445,296.849 380.947,298.441 380.615 C 302.467 379.775,305.308 379.223,308.686 378.623 C 310.278 378.341,312.884 377.840,314.477 377.512 C 316.069 377.183,318.575 376.688,320.045 376.410 C 321.514 376.132,324.020 375.627,325.612 375.288 C 327.205 374.948,329.811 374.445,331.403 374.170 C 332.996 373.894,335.501 373.395,336.971 373.059 C 338.441 372.724,340.947 372.217,342.539 371.932 C 348.910 370.793,350.441 370.500,353.007 369.925 C 355.619 369.340,358.898 368.715,362.249 368.163 C 363.168 368.012,363.920 367.800,363.920 367.691 C 363.920 367.583,364.415 363.633,365.019 358.914 C 365.624 354.195,368.330 332.795,371.032 311.359 C 373.734 289.922,377.653 258.853,379.740 242.316 C 389.336 166.288,390.852 154.274,394.432 125.835 C 396.529 109.176,398.640 92.475,399.123 88.722 C 399.605 84.969,400.000 81.110,400.000 80.147 L 400.000 78.396 200.000 78.396 L 0.000 78.396 0.000 80.067 M325.408 139.087 C 325.139 140.681,321.158 171.977,321.158 172.501 C 321.158 172.681,277.962 172.829,225.167 172.829 C 134.773 172.829,129.176 172.873,129.176 173.593 C 129.176 174.449,133.037 205.643,133.424 207.906 L 133.671 209.354 225.093 209.354 L 316.516 209.354 314.410 225.947 C 313.252 235.072,310.158 259.577,307.535 280.401 C 304.786 302.221,302.556 318.401,302.273 318.590 C 302.003 318.770,301.204 318.920,300.497 318.924 C 299.791 318.928,298.488 319.115,297.602 319.340 C 295.256 319.936,289.367 321.106,281.626 322.515 C 280.217 322.772,277.762 323.259,276.169 323.599 C 274.577 323.938,271.971 324.445,270.379 324.725 C 268.786 325.005,266.281 325.506,264.811 325.838 C 263.341 326.170,261.036 326.639,259.688 326.879 C 258.341 327.120,255.935 327.549,254.343 327.834 C 252.751 328.119,250.245 328.626,248.775 328.961 C 247.305 329.297,244.800 329.794,243.207 330.067 C 241.615 330.339,239.109 330.837,237.639 331.172 C 236.169 331.508,233.664 332.012,232.071 332.293 C 230.479 332.574,227.873 333.073,226.281 333.401 C 224.688 333.730,222.233 334.216,220.824 334.483 C 219.415 334.749,217.110 335.184,215.702 335.451 C 212.365 336.081,207.455 337.089,204.766 337.696 C 201.900 338.343,198.128 338.331,194.878 337.665 C 187.607 336.177,186.227 335.899,183.853 335.451 C 182.444 335.184,180.139 334.749,178.731 334.483 C 177.322 334.216,174.866 333.733,173.274 333.408 C 171.682 333.083,169.176 332.581,167.706 332.294 C 166.236 332.006,163.731 331.502,162.138 331.174 C 160.546 330.846,157.940 330.347,156.347 330.066 C 154.755 329.785,152.249 329.280,150.780 328.945 C 149.310 328.610,146.804 328.106,145.212 327.826 C 139.394 326.803,137.363 326.413,134.744 325.821 C 133.274 325.489,130.768 324.994,129.176 324.722 C 127.584 324.449,125.078 323.952,123.608 323.616 C 122.138 323.281,119.633 322.774,118.040 322.489 C 116.448 322.204,114.042 321.775,112.695 321.534 C 111.347 321.294,109.042 320.825,107.572 320.493 C 106.102 320.160,103.597 319.658,102.004 319.377 C 100.412 319.096,98.661 318.777,98.114 318.669 C 96.840 318.417,97.047 319.549,94.420 298.441 C 93.186 288.519,91.681 276.540,91.077 271.821 C 90.472 267.102,89.978 263.143,89.978 263.024 C 89.978 262.904,101.294 262.806,115.125 262.806 L 140.271 262.806 140.513 264.254 C 140.645 265.050,141.452 271.293,142.304 278.126 C 143.157 284.959,143.915 290.611,143.988 290.685 C 144.208 290.904,150.842 292.311,157.461 293.541 C 158.931 293.814,161.537 294.319,163.252 294.662 C 164.967 295.005,167.472 295.483,168.820 295.723 C 172.721 296.419,176.374 297.108,179.733 297.780 C 181.448 298.123,184.053 298.625,185.523 298.894 C 188.731 299.481,194.157 300.565,196.777 301.141 C 199.166 301.667,200.388 301.667,202.778 301.141 C 205.397 300.565,210.824 299.481,214.031 298.894 C 215.501 298.625,218.107 298.123,219.822 297.780 C 223.180 297.108,226.834 296.419,230.735 295.723 C 232.082 295.483,234.588 295.005,236.303 294.662 C 238.018 294.319,240.624 293.814,242.094 293.541 C 249.553 292.155,255.349 290.902,255.636 290.615 C 255.833 290.418,261.418 247.357,261.453 245.768 C 261.469 245.029,257.044 244.989,174.630 244.989 L 87.791 244.989 87.541 243.541 C 87.403 242.745,86.098 232.572,84.641 220.935 C 77.099 160.711,74.369 139.125,74.206 138.419 C 74.034 137.678,80.245 137.639,199.839 137.639 L 325.653 137.639 325.408 139.087 " stroke="none" fill="#f8f8f8" fill-rule="evenodd"></path></g></svg>
