<svg id="svg" xmlns="http://www.w3.org/2000/svg" xmlns:xlink="http://www.w3.org/1999/xlink" width="400" height="400" viewBox="0, 0, 400,400"><g id="svgg"><path id="path0" d="M134.635 14.802 C 137.606 22.942,142.919 37.031,146.442 46.110 C 158.388 76.896,183.472 146.124,182.856 146.609 C 182.519 146.874,177.966 149.380,172.739 152.179 C 138.826 170.335,133.250 212.815,161.828 235.295 L 166.663 239.098 161.676 245.636 C 148.547 262.850,105.148 290.237,97.493 286.140 C 78.977 276.231,76.827 251.038,93.731 242.056 C 128.759 223.444,133.869 182.124,103.993 159.075 C 53.641 120.229,-15.182 175.965,21.239 226.093 L 27.155 234.235 19.887 248.426 C -27.615 341.184,27.794 420.537,121.983 394.642 C 129.962 392.449,137.739 390.654,139.266 390.654 C 142.327 390.654,177.039 375.948,201.869 364.131 C 220.595 355.219,256.101 343.207,271.963 340.417 C 278.131 339.332,292.009 337.094,302.804 335.444 C 331.975 330.985,337.472 329.211,352.482 319.413 C 382.533 299.795,394.731 265.888,383.009 234.557 C 379.267 224.557,379.236 223.830,382.272 217.431 C 394.449 191.770,380.361 160.968,350.798 148.616 C 344.720 146.076,344.089 145.242,345.812 142.023 C 346.897 139.996,355.302 117.936,364.490 93.000 C 373.679 68.065,385.005 37.570,389.659 25.234 C 394.314 12.897,398.124 2.173,398.126 1.402 C 398.129 0.631,337.629 0.000,263.682 0.000 L 129.233 0.000 134.635 14.802 M363.604 25.701 C 362.899 27.500,356.111 45.794,348.519 66.355 C 319.649 144.543,318.740 146.729,315.108 146.729 C 311.374 146.729,305.379 136.942,284.126 96.152 C 277.131 82.727,269.750 69.017,267.724 65.685 L 264.040 59.628 259.349 68.599 C 253.098 80.552,216.813 146.427,216.071 147.169 C 214.193 149.047,209.410 144.617,206.901 138.675 C 200.499 123.513,164.486 25.721,164.486 23.497 C 164.486 22.910,209.576 22.430,264.686 22.430 C 359.357 22.430,364.815 22.610,363.604 25.701 M278.509 136.105 L 292.069 160.994 287.873 163.933 C 285.566 165.549,281.684 171.381,279.246 176.893 L 274.813 186.916 264.977 186.909 L 255.140 186.902 251.739 178.630 C 249.868 174.080,246.107 167.985,243.380 165.085 C 240.654 162.186,238.680 158.551,238.994 157.009 C 239.679 153.645,263.744 109.816,264.454 110.640 C 264.727 110.956,271.052 122.415,278.509 136.105 M84.534 172.976 C 119.298 195.876,82.608 242.385,47.388 220.062 C 31.544 210.020,29.595 190.099,43.191 177.165 C 55.557 165.401,70.706 163.866,84.534 172.976 M207.886 168.307 C 233.762 175.493,239.984 205.757,218.508 219.970 C 187.116 240.744,149.513 203.240,175.850 177.424 C 185.991 167.483,195.341 164.823,207.886 168.307 M342.991 169.899 C 367.971 181.464,369.614 211.139,345.878 222.028 C 313.853 236.720,283.678 203.525,306.527 178.738 C 317.677 166.641,329.674 163.733,342.991 169.899 M277.367 213.551 C 283.913 237.760,320.360 254.101,347.414 244.957 C 361.675 240.137,361.387 239.922,362.297 256.031 C 364.097 287.884,339.596 310.165,298.444 314.099 C 261.192 317.660,232.765 325.588,193.866 343.264 C 181.754 348.768,171.153 353.271,170.307 353.271 C 169.462 353.271,160.533 357.120,150.465 361.825 C 140.398 366.530,127.658 371.156,122.155 372.105 C 116.652 373.055,107.356 374.656,101.497 375.664 C 49.211 384.654,13.761 341.727,29.216 288.138 C 39.823 251.361,57.921 232.782,57.962 258.629 C 58.001 283.268,84.098 314.863,101.531 311.376 C 110.892 309.504,142.210 293.214,152.391 284.921 C 157.610 280.671,162.807 276.857,163.939 276.447 C 165.072 276.037,171.504 269.545,178.233 262.021 L 190.467 248.341 201.551 247.741 C 222.639 246.598,241.419 234.913,250.493 217.290 L 254.583 209.346 265.407 209.346 C 275.048 209.346,276.354 209.805,277.367 213.551 " stroke="none" fill="#3b2f2f" fill-rule="evenodd"></path></g></svg>
