<svg id="svg" xmlns="http://www.w3.org/2000/svg" xmlns:xlink="http://www.w3.org/1999/xlink" width="400" height="400" viewBox="0, 0, 400,400"><g id="svgg"><path id="path0" d="M46.369 1.979 C 35.540 4.542,26.942 14.514,21.448 30.883 C 20.319 34.247,18.856 64.900,18.197 99.000 C 16.896 166.377,15.570 174.117,4.500 178.974 C -2.424 182.012,-2.424 217.988,4.500 221.026 C 15.577 225.885,16.898 233.616,18.171 301.000 C 18.817 335.227,20.273 365.740,21.421 369.117 C 27.167 386.016,34.679 394.439,47.000 397.797 C 60.365 401.440,60.000 401.936,60.000 380.133 L 60.000 360.266 54.698 359.633 C 42.165 358.137,41.127 353.461,39.774 292.357 C 38.515 235.525,36.478 217.919,29.833 206.409 C 26.276 200.249,26.241 199.491,29.294 194.832 C 36.214 184.271,38.217 168.136,39.205 115.000 C 40.488 45.972,41.966 40.000,57.774 40.000 L 63.730 40.000 64.521 164.500 C 65.497 318.201,65.806 319.886,94.325 326.714 C 100.271 328.137,100.447 327.591,103.020 299.875 C 104.201 287.154,104.077 286.677,99.015 284.371 C 87.964 279.336,88.000 279.822,88.000 134.064 L 88.000 0.000 70.500 0.205 C 60.875 0.317,50.016 1.116,46.369 1.979 M340.000 19.691 L 340.000 39.734 345.302 40.367 C 357.835 41.863,358.873 46.539,360.226 107.643 C 361.483 164.355,363.524 182.084,370.114 193.500 C 373.782 199.857,373.782 200.143,370.114 206.500 C 363.533 217.901,361.483 235.653,360.226 292.093 C 358.869 353.055,358.053 356.889,345.909 359.318 L 340.000 360.500 340.000 380.250 C 340.000 401.925,339.640 401.439,353.000 397.797 C 365.321 394.439,372.833 386.016,378.579 369.117 C 379.727 365.740,381.183 335.227,381.829 301.000 C 383.102 233.616,384.423 225.885,395.500 221.026 C 402.424 217.988,402.424 182.012,395.500 178.974 C 384.433 174.119,383.105 166.374,381.789 99.000 C 380.538 34.949,379.674 27.988,371.479 15.949 C 365.366 6.967,358.582 2.547,348.500 0.974 L 340.000 -0.352 340.000 19.691 M142.000 104.144 C 94.133 124.022,88.649 290.295,134.832 321.500 C 147.527 330.078,162.140 330.529,177.607 322.821 C 189.270 317.010,188.968 318.055,186.705 291.279 L 185.409 275.954 178.205 280.325 C 152.777 295.755,128.000 275.048,128.000 238.369 L 128.000 230.000 161.300 230.000 L 194.600 230.000 193.415 194.500 C 191.181 127.578,170.995 92.103,142.000 104.144 M230.279 103.341 C 213.260 106.928,202.000 132.520,202.000 167.618 C 202.000 199.826,206.098 210.028,226.808 229.376 C 247.223 248.448,250.766 254.730,249.528 269.659 C 247.839 290.030,225.458 294.799,207.561 278.603 C 202.640 274.149,202.556 274.385,200.950 297.191 L 199.529 317.382 207.201 322.124 C 230.700 336.647,259.680 326.090,269.219 299.532 C 282.399 262.837,271.918 220.682,243.693 196.864 C 226.861 182.660,225.012 179.254,225.131 162.684 C 225.270 143.271,245.123 135.777,260.373 149.381 C 264.460 153.027,265.892 147.458,266.576 125.246 L 267.000 111.492 259.913 107.764 C 252.404 103.814,238.138 101.685,230.279 103.341 M302.860 105.675 C 267.362 122.276,268.203 198.231,304.241 230.497 C 342.191 264.474,328.103 307.776,287.780 281.092 C 277.823 274.503,278.809 272.967,277.270 297.462 L 275.985 317.925 285.926 322.962 C 319.394 339.922,346.243 320.297,349.227 276.693 C 351.923 237.306,346.575 222.354,320.722 196.989 C 287.689 164.580,298.231 126.254,334.260 147.775 L 341.520 152.112 342.914 136.556 C 343.681 128.000,344.788 118.968,345.375 116.485 C 347.672 106.758,317.143 98.996,302.860 105.675 M159.556 148.527 C 165.835 155.211,169.664 165.811,171.194 180.738 L 172.552 194.000 149.991 194.000 L 127.430 194.000 128.704 181.814 C 131.794 152.245,147.316 135.499,159.556 148.527 " stroke="none" fill="#3b2f2f" fill-rule="evenodd"></path></g></svg>
