<svg id="svg" xmlns="http://www.w3.org/2000/svg" xmlns:xlink="http://www.w3.org/1999/xlink" width="400" height="400" viewBox="0, 0, 400,400"><g id="svgg"><path id="path0" d="M15.676 2.706 C 9.189 5.926,3.004 12.980,1.188 19.231 C 0.323 22.205,0.011 84.038,0.262 202.658 L 0.641 381.598 4.178 386.942 C 6.123 389.881,10.119 393.877,13.058 395.822 L 18.402 399.359 200.000 399.359 L 381.598 399.359 386.942 395.822 C 389.881 393.877,393.877 389.881,395.822 386.942 L 399.359 381.598 399.359 200.000 L 399.359 18.402 395.822 13.058 C 393.877 10.119,389.881 6.123,386.942 4.178 L 381.598 0.641 201.376 0.314 L 21.154 -0.012 15.676 2.706 M103.214 59.425 C 120.463 67.457,127.521 88.485,118.529 105.050 C 105.686 128.709,72.668 128.883,59.865 105.359 C 44.567 77.252,74.161 45.895,103.214 59.425 M290.362 148.095 C 314.761 153.263,328.615 167.315,336.220 194.607 C 338.844 204.026,338.994 207.644,339.440 272.115 L 339.907 339.744 310.979 339.744 L 282.051 339.744 282.051 285.492 C 282.051 205.295,279.077 197.094,250.000 197.107 C 218.585 197.122,214.207 208.470,214.142 290.064 L 214.103 339.744 185.256 339.744 L 156.410 339.744 156.410 244.872 L 156.410 150.000 183.974 150.000 L 211.538 150.000 211.538 163.462 C 211.538 178.615,212.241 179.450,217.977 171.112 C 231.995 150.739,260.321 141.731,290.362 148.095 M117.949 244.872 L 117.949 339.744 89.103 339.744 L 60.256 339.744 60.256 244.872 L 60.256 150.000 89.103 150.000 L 117.949 150.000 117.949 244.872 " stroke="none" fill="#128482" fill-rule="evenodd"></path></g></svg>
