<svg id="svg" xmlns="http://www.w3.org/2000/svg" xmlns:xlink="http://www.w3.org/1999/xlink" width="400" height="400" viewBox="0, 0, 400,400"><g id="svgg"><path id="path0" d="M100.188 13.393 C 94.372 34.339,75.000 190.332,75.000 216.225 C 75.000 221.419,74.490 221.429,69.388 216.327 C 63.199 210.138,-0.000 207.886,0.000 213.854 C 0.000 215.581,3.930 225.626,8.733 236.176 C 16.796 253.886,25.435 296.569,35.928 370.536 L 40.107 400.000 73.499 400.000 C 118.073 400.000,115.302 407.842,135.347 225.000 C 137.233 207.793,138.310 212.885,144.032 266.071 C 151.467 335.192,159.226 383.403,164.499 393.256 C 170.720 404.879,231.089 403.238,235.619 391.322 C 240.168 379.357,248.861 318.331,254.088 261.664 C 256.486 235.669,258.966 214.918,259.599 215.551 C 260.232 216.184,264.885 248.499,269.939 287.361 C 274.993 326.224,281.877 367.064,285.238 378.118 L 291.347 398.214 323.642 399.233 L 355.937 400.252 360.459 385.159 C 362.946 376.858,367.110 345.697,369.712 315.911 C 375.232 252.738,378.996 236.431,391.483 221.591 L 400.635 210.714 370.675 210.714 C 352.602 210.714,339.060 212.368,336.546 214.883 C 330.693 220.735,330.480 219.582,321.578 133.929 C 313.349 54.750,309.475 31.454,301.268 11.813 L 296.226 -0.256 261.506 0.765 L 226.786 1.786 222.343 19.643 C 219.899 29.464,214.597 66.374,210.560 101.664 C 206.522 136.954,202.708 166.340,202.083 166.964 C 201.458 167.589,199.843 156.394,198.493 142.086 C 194.149 96.039,182.493 25.609,177.066 12.621 L 171.793 -0.000 137.850 -0.000 L 103.907 0.000 100.188 13.393 M172.699 38.393 C 180.162 71.621,197.443 208.609,196.862 229.935 C 195.713 272.109,179.917 385.714,175.202 385.714 C 169.716 385.714,154.855 284.851,144.157 175.000 C 141.283 145.484,157.780 14.286,164.366 14.286 C 165.971 14.286,169.721 25.134,172.699 38.393 M299.808 44.220 C 303.891 64.444,322.735 225.137,322.682 239.286 C 322.573 268.933,305.680 389.286,301.628 389.286 C 294.631 389.286,266.860 210.729,266.355 162.500 C 266.127 140.644,279.945 31.312,284.405 19.690 C 288.122 10.003,295.164 21.217,299.808 44.220 M67.725 235.394 C 72.109 245.979,66.783 309.248,56.581 367.766 C 51.377 397.621,49.364 392.517,39.041 323.288 C 31.624 273.544,25.931 246.508,19.661 231.250 C 17.371 225.676,19.599 225.000,40.256 225.000 C 62.467 225.000,63.596 225.427,67.725 235.394 " stroke="none" fill="#3b2f2f" fill-rule="evenodd"></path></g></svg>
