<?xml version="1.0" encoding="utf-8"?>
<!-- Generator: Adobe Illustrator 24.2.0, SVG Export Plug-In . SVG Version: 6.00 Build 0)  -->
<svg version="1.1" id="Layer_1" xmlns="http://www.w3.org/2000/svg" xmlns:xlink="http://www.w3.org/1999/xlink" x="0px" y="0px"
	 viewBox="0 0 50.4 50.4" style="enable-background:new 0 0 50.4 50.4;" xml:space="preserve">
<style type="text/css">
	.st0{fill:#f8f8f8;}
</style>
<g>
	<path class="st0" d="M50.4,16.4c0,8.2-2.2,15.7-7.8,22.2c-4.4,5.2-10,9-16.6,11.6c-0.6,0.2-1,0.2-1.6,0
		c-12.9-5.3-21.2-14-23.8-26.8c-0.7-3.6-0.7-7.3-0.4-11C0.3,11,0.4,9.6,0.7,8.3c0.6-3,2.6-5,5.8-5.8c7.3-1.9,14.7-2.8,22.3-2.4
		c5.2,0.3,10.4,1,15.4,2.4c3.4,1,5.3,3.2,5.8,6.4C50.2,11.4,50.3,13.9,50.4,16.4z M46.2,15.7c0-2.2-0.1-4.1-0.4-6
		c-0.2-2.1-1.3-3.2-3.6-3.8c-2.7-0.6-5.4-1.1-8.2-1.5C25,3.1,16.3,4,7.6,6.1C5.9,6.5,4.9,7.6,4.7,9.2C4.6,9.8,4.5,10.4,4.5,11
		C4.2,14.8,4,18.6,4.7,22.4c2.1,11,9,18.7,19.9,23.7c0.4,0.2,0.7,0.2,1.1,0c8.4-3.7,14.6-9.2,18-17.1C45.7,24.6,46.3,20,46.2,15.7z"
		/>
	<path class="st0" d="M33.6,23c0,5.7-2.3,9.6-6.1,12.9c-0.6,0.5-0.9,1-0.8,1.7c0.1,0.7,0,1.4,0,2.1c0,0.5-0.1,0.7-0.7,0.7
		c-0.5,0-0.9,0-1.4,0c-0.6,0-0.8-0.1-0.8-0.7c0-0.8,0-1.6,0-2.3c0-0.6-0.2-1-0.7-1.4c-2.7-2.3-4.8-4.9-5.7-8.2
		c-1.1-3.8-0.5-7.5,0.9-11.1c1.4-3.3,3.5-6.2,6.3-8.7C25,7.7,25.3,7.6,25.7,8C30.5,12.4,33.4,17.6,33.6,23z"/>
</g>
</svg>
