<svg id="svg" version="1.1" xmlns="http://www.w3.org/2000/svg" xmlns:xlink="http://www.w3.org/1999/xlink" width="400" height="59.92779783393502" viewBox="0, 0, 400,59.92779783393502"><g id="svgg"><path id="path0" d="M2.921 2.828 C 2.471 3.326,2.447 56.352,2.897 56.801 C 3.363 57.267,28.294 57.113,29.750 56.636 C 33.004 55.570,35.289 52.996,36.529 49.000 L 36.917 47.750 36.917 29.667 L 36.917 11.583 36.458 10.229 C 35.085 6.180,32.360 3.478,28.933 2.769 C 26.726 2.313,3.339 2.366,2.921 2.828 M46.000 2.756 C 41.970 3.612,38.731 7.522,38.171 12.210 C 37.872 14.719,37.849 45.643,38.146 47.583 C 38.787 51.780,41.205 55.047,44.750 56.505 L 45.750 56.917 53.333 56.917 L 60.917 56.917 62.209 56.284 C 65.287 54.776,67.038 52.481,68.143 48.500 L 68.583 46.917 68.583 29.917 L 68.583 12.917 68.186 11.333 C 67.007 6.630,64.220 3.552,60.429 2.768 C 58.682 2.407,47.689 2.398,46.000 2.756 M69.593 2.870 C 69.361 3.201,69.333 5.575,69.334 24.995 L 69.334 46.750 69.763 48.500 C 70.700 52.311,72.905 55.069,76.167 56.507 C 77.226 56.975,90.343 57.243,92.000 56.831 C 96.515 55.709,99.406 51.675,99.833 45.901 C 100.190 41.068,99.985 3.277,99.599 2.851 C 99.166 2.372,95.032 2.310,94.645 2.776 C 94.455 3.005,94.403 6.692,94.333 24.734 C 94.256 44.694,94.226 46.483,93.962 47.257 C 93.587 48.353,92.675 49.401,91.606 49.965 L 90.750 50.417 84.583 50.417 L 78.417 50.417 77.583 49.975 C 76.569 49.437,76.180 49.025,75.560 47.833 L 75.083 46.917 75.041 25.000 L 74.998 3.083 74.647 2.792 C 74.053 2.298,69.949 2.362,69.593 2.870 M110.417 2.606 C 107.440 3.001,106.036 3.630,104.333 5.333 C 102.429 7.238,101.296 9.695,101.002 12.557 C 100.784 14.683,100.781 45.036,100.999 47.102 C 101.582 52.633,105.262 56.592,110.227 57.032 C 113.909 57.357,124.912 57.114,126.167 56.679 C 129.623 55.482,132.086 52.515,133.034 48.406 C 133.587 46.011,133.637 30.468,133.093 30.070 C 132.657 29.751,128.256 29.726,128.052 30.042 C 127.977 30.156,127.879 33.925,127.833 38.417 L 127.749 46.583 127.282 47.583 C 126.734 48.757,126.197 49.364,125.167 49.973 L 124.417 50.417 117.083 50.417 L 109.750 50.417 108.972 49.960 C 106.321 48.401,106.417 49.151,106.417 29.833 C 106.417 11.566,106.369 12.263,107.714 10.736 C 109.033 9.237,108.115 9.333,121.123 9.333 C 134.795 9.333,133.757 9.536,133.004 7.018 C 132.400 5.003,130.900 3.318,129.265 2.819 C 128.614 2.620,111.747 2.429,110.417 2.606 M134.609 2.805 C 134.123 3.342,134.204 8.724,134.704 9.074 C 135.021 9.296,135.869 9.333,140.611 9.333 C 146.144 9.333,146.148 9.334,146.407 9.704 C 146.866 10.359,146.795 49.705,146.333 50.167 C 146.013 50.487,145.778 50.500,140.367 50.500 C 136.207 50.500,134.681 50.552,134.533 50.700 C 134.206 51.027,134.256 56.562,134.589 56.838 C 134.791 57.006,137.890 57.049,149.537 57.046 L 164.229 57.042 164.531 56.669 C 164.951 56.152,164.985 51.457,164.574 50.870 C 164.314 50.500,164.314 50.500,158.657 50.500 C 153.211 50.500,152.987 50.487,152.665 50.165 C 152.239 49.739,152.209 9.890,152.634 9.467 C 152.806 9.295,154.009 9.263,158.415 9.310 L 163.978 9.371 164.406 8.943 C 164.944 8.405,165.077 3.589,164.574 2.870 L 164.314 2.500 149.600 2.500 C 135.556 2.500,134.872 2.514,134.609 2.805 M173.552 2.760 C 169.692 3.606,166.592 7.450,165.912 12.234 C 165.551 14.776,165.556 44.304,165.918 47.068 C 166.488 51.416,168.524 54.481,171.989 56.206 L 173.417 56.917 183.468 56.963 L 193.519 57.010 194.507 56.567 C 196.284 55.769,197.740 53.778,197.939 51.871 C 198.092 50.411,199.010 50.522,186.242 50.466 L 174.917 50.417 174.073 49.971 C 172.894 49.349,172.110 48.419,171.693 47.148 C 171.263 45.841,171.100 36.065,171.499 35.584 C 171.681 35.365,173.325 35.333,184.578 35.333 L 197.448 35.333 197.766 34.983 C 198.224 34.476,198.306 29.540,197.865 29.003 C 197.586 28.663,197.476 28.660,184.714 28.622 C 172.607 28.586,171.828 28.566,171.548 28.285 C 171.012 27.750,171.101 13.822,171.649 12.333 C 172.152 10.966,172.681 10.270,173.651 9.700 L 174.417 9.250 186.048 9.167 C 196.144 9.094,197.700 9.050,197.837 8.833 C 198.127 8.374,198.040 3.064,197.738 2.762 C 197.374 2.398,175.211 2.396,173.552 2.760 M261.833 2.921 C 259.796 3.830,257.705 7.585,255.944 13.500 C 255.712 14.279,255.367 15.436,255.178 16.070 C 254.988 16.704,254.833 17.339,254.833 17.481 C 254.833 17.623,254.689 18.342,254.513 19.078 C 254.174 20.496,253.749 22.647,253.423 24.593 C 253.118 26.408,253.006 26.462,251.010 25.742 C 237.162 20.747,232.307 34.253,240.649 54.570 C 241.695 57.117,241.480 57.000,245.094 57.000 C 248.599 57.000,248.373 57.087,249.624 55.252 C 250.712 53.656,251.000 53.628,251.000 55.117 C 251.000 56.650,251.246 57.000,252.322 57.000 C 253.511 57.000,253.519 56.977,253.621 53.131 C 253.689 50.586,253.774 49.626,253.964 49.250 C 254.820 47.554,262.488 39.167,263.182 39.167 C 263.828 39.167,271.737 47.814,272.391 49.236 C 272.556 49.592,272.664 50.773,272.745 53.080 C 272.882 56.976,272.890 57.000,273.994 57.000 C 275.163 57.000,275.333 56.766,275.333 55.165 C 275.333 53.284,275.643 53.350,277.059 55.536 C 278.016 57.013,277.980 57.000,281.275 57.000 C 284.611 57.000,284.415 57.089,285.296 55.169 C 286.720 52.065,288.323 47.084,288.917 43.917 C 289.037 43.275,289.220 42.412,289.323 42.000 C 289.940 39.529,289.809 33.249,289.096 31.167 C 286.977 24.978,282.084 23.083,274.799 25.632 C 273.878 25.954,273.464 26.030,273.334 25.901 C 273.152 25.719,272.333 22.350,272.333 21.783 C 272.333 21.210,271.037 15.835,270.497 14.167 C 270.333 13.662,269.959 12.500,269.665 11.583 C 267.608 5.168,264.501 1.732,261.833 2.921 M264.579 3.532 C 266.468 4.783,268.327 8.340,270.136 14.167 C 270.638 15.786,271.895 21.139,272.092 22.500 C 272.643 26.302,273.017 26.735,275.055 25.924 C 279.580 24.124,283.911 24.693,286.608 27.440 C 289.070 29.947,290.097 36.088,288.989 41.667 C 287.913 47.082,286.663 51.237,285.003 54.916 C 284.171 56.760,284.376 56.667,281.170 56.667 C 277.992 56.667,278.237 56.772,277.079 54.917 C 275.555 52.474,274.773 52.538,274.956 55.090 C 275.054 56.465,274.879 56.717,273.887 56.636 L 273.250 56.583 273.118 53.083 C 273.018 50.429,272.922 49.454,272.721 49.050 C 271.750 47.094,263.976 38.833,263.105 38.833 C 262.541 38.833,261.149 40.181,257.598 44.167 C 253.207 49.094,253.340 48.831,253.318 52.667 C 253.296 56.503,253.280 56.568,252.379 56.634 C 251.492 56.699,251.267 56.343,251.419 55.116 C 251.714 52.731,250.698 52.741,249.244 55.138 C 248.300 56.693,248.371 56.667,245.072 56.667 C 242.521 56.667,242.189 56.634,241.943 56.362 C 241.584 55.965,240.287 52.844,239.646 50.833 C 239.369 49.962,239.036 48.950,238.907 48.583 C 236.945 43.006,236.314 34.843,237.565 31.206 C 239.438 25.760,244.447 23.818,250.779 26.081 C 253.285 26.977,253.364 26.945,253.741 24.900 C 254.801 19.157,255.612 15.535,256.241 13.750 C 256.370 13.383,256.702 12.371,256.978 11.500 C 259.108 4.793,261.964 1.799,264.579 3.532 M262.213 7.495 C 261.276 8.067,259.760 10.560,258.971 12.830 C 257.624 16.703,257.051 18.926,256.006 24.333 C 255.260 28.192,255.200 28.007,257.750 29.704 C 258.392 30.131,259.718 31.123,260.698 31.908 C 263.305 33.998,263.240 33.994,265.306 32.214 C 266.027 31.592,267.316 30.596,268.171 30.000 C 269.025 29.404,270.020 28.635,270.382 28.292 L 271.039 27.667 270.920 26.561 C 270.855 25.953,270.704 25.109,270.583 24.686 C 270.463 24.263,270.315 23.553,270.253 23.109 C 269.810 19.907,267.884 13.427,266.634 10.929 C 265.024 7.713,263.631 6.631,262.213 7.495 M264.125 7.960 C 266.002 9.187,268.561 15.879,269.845 22.917 C 269.945 23.467,270.171 24.568,270.347 25.364 C 270.876 27.760,270.969 27.587,268.060 29.611 C 267.248 30.176,265.921 31.208,265.112 31.903 C 263.137 33.599,263.449 33.648,260.302 31.151 C 259.540 30.546,258.331 29.655,257.615 29.171 C 255.780 27.930,255.720 27.813,256.052 26.117 C 256.199 25.365,256.362 24.450,256.415 24.083 C 256.942 20.398,258.900 13.595,260.204 10.917 C 261.671 7.905,262.772 7.075,264.125 7.960 M28.342 9.472 C 28.867 9.648,29.648 10.342,30.558 11.442 C 31.332 12.376,31.340 12.582,31.344 29.678 C 31.349 48.112,31.401 47.428,29.857 49.056 C 28.489 50.497,29.170 50.417,18.278 50.417 C 8.930 50.417,8.633 50.407,8.403 50.093 C 8.136 49.727,8.043 10.120,8.308 9.701 C 8.384 9.583,8.644 9.433,8.887 9.368 C 9.690 9.154,27.683 9.250,28.342 9.472 M60.033 9.460 C 60.769 9.774,61.829 10.837,62.305 11.739 L 62.750 12.583 62.750 29.833 L 62.750 47.083 62.383 47.769 C 61.811 48.839,61.197 49.478,60.270 49.967 L 59.417 50.417 53.250 50.417 L 47.083 50.417 46.301 50.017 C 45.185 49.447,44.358 48.527,43.942 47.393 C 43.441 46.030,43.276 14.697,43.760 12.876 C 44.292 10.872,45.541 9.585,47.201 9.330 C 48.568 9.119,59.494 9.230,60.033 9.460 M278.500 29.335 C 277.042 29.477,274.829 30.218,274.144 30.794 C 273.615 31.240,273.504 32.402,273.838 34.000 C 273.924 34.412,274.072 36.025,274.168 37.583 C 274.744 46.975,274.682 46.715,277.154 50.167 C 277.909 51.221,279.075 52.983,279.747 54.083 C 281.449 56.873,281.671 56.834,283.127 53.500 C 284.536 50.274,284.777 49.657,285.471 47.500 C 289.739 34.234,287.521 28.457,278.500 29.335 M243.783 29.504 C 238.936 30.733,237.549 35.884,239.902 43.917 C 240.037 44.375,240.342 45.425,240.580 46.250 C 240.818 47.075,241.118 48.012,241.246 48.333 C 241.374 48.654,241.829 49.817,242.256 50.917 C 244.587 56.918,244.881 57.136,246.683 54.208 C 247.346 53.131,248.675 51.087,249.638 49.667 C 251.757 46.537,251.696 46.781,252.172 39.417 C 252.273 37.858,252.463 35.802,252.594 34.846 C 253.031 31.672,252.965 31.323,251.817 30.742 C 249.596 29.616,245.706 29.017,243.783 29.504 M247.750 29.821 C 250.172 30.329,252.259 31.170,252.429 31.706 C 252.484 31.879,252.410 33.084,252.264 34.385 C 252.119 35.686,251.847 38.700,251.659 41.083 C 251.215 46.733,251.229 46.639,250.703 47.431 C 248.344 50.977,246.476 53.828,245.958 54.672 C 245.058 56.139,244.569 55.764,243.338 52.667 C 241.622 48.346,241.489 47.985,240.946 46.167 C 237.822 35.717,238.761 31.060,244.250 29.783 C 244.821 29.650,247.051 29.674,247.750 29.821 M283.348 30.058 C 286.516 31.361,288.018 35.243,287.017 39.540 C 286.915 39.975,286.758 40.858,286.666 41.502 C 286.416 43.270,284.985 48.161,284.058 50.417 C 281.761 56.009,281.494 56.335,280.554 54.700 C 279.839 53.457,278.026 50.712,276.879 49.139 C 275.534 47.292,275.226 46.559,275.107 44.917 C 274.716 39.509,274.446 36.228,274.211 34.017 L 273.938 31.451 274.427 31.060 C 276.075 29.741,281.184 29.168,283.348 30.058 M269.417 33.327 C 265.632 35.952,265.536 36.191,267.448 38.214 C 268.164 38.973,269.412 40.322,270.222 41.213 C 272.495 43.716,272.641 43.573,272.363 39.112 C 271.929 32.132,271.723 31.728,269.417 33.327 M254.933 33.042 C 254.494 33.725,253.678 41.296,253.937 42.280 C 254.195 43.261,254.492 43.078,256.933 40.434 C 260.986 36.044,260.919 36.351,258.249 34.428 C 255.662 32.564,255.329 32.425,254.933 33.042 M271.406 33.393 C 271.444 33.590,271.595 34.777,271.741 36.032 C 272.439 42.033,272.300 42.969,270.934 41.472 C 270.558 41.060,269.500 39.911,268.583 38.917 C 266.054 36.175,266.084 36.322,267.764 35.001 C 270.300 33.009,271.249 32.590,271.406 33.393 M256.939 33.941 C 260.519 36.364,260.510 36.022,257.091 39.708 C 254.889 42.083,254.360 42.495,254.309 41.875 C 254.223 40.820,254.455 38.023,254.932 34.354 C 255.123 32.883,255.317 32.844,256.939 33.941 M262.167 49.782 C 260.596 50.339,259.042 52.648,258.395 55.385 C 257.994 57.081,257.754 57.000,263.167 57.000 C 268.554 57.000,268.347 57.066,268.009 55.448 C 267.182 51.497,264.544 48.938,262.167 49.782 M264.773 50.542 C 266.053 51.397,267.160 53.295,267.639 55.452 C 267.917 56.702,268.007 56.679,263.083 56.628 L 258.750 56.583 258.760 55.807 C 258.768 55.095,258.885 54.713,259.616 53.000 C 260.733 50.383,262.952 49.325,264.773 50.542 " stroke="none" fill="#148282" fill-rule="evenodd"></path><path id="path1" d="M201.680 2.820 L 201.333 3.167 201.333 29.761 C 201.333 47.774,201.389 56.459,201.506 56.678 C 201.743 57.120,206.137 57.173,206.571 56.738 C 206.804 56.506,206.834 55.317,206.836 46.196 C 206.838 35.199,206.838 35.200,207.667 35.012 C 208.710 34.774,228.675 35.077,228.837 35.333 C 228.932 35.484,228.996 39.714,228.997 45.958 C 229.000 56.109,229.007 56.341,229.333 56.667 C 229.754 57.088,234.142 57.181,234.478 56.776 C 234.613 56.614,234.665 49.209,234.670 29.818 L 234.676 3.083 234.304 2.779 C 233.767 2.340,229.838 2.422,229.380 2.882 C 229.101 3.162,229.083 3.882,229.083 14.980 C 229.083 24.736,229.044 26.828,228.855 27.057 C 228.609 27.353,207.844 27.494,207.385 27.202 C 206.828 26.848,206.800 26.190,206.859 14.632 C 206.913 3.824,206.900 3.164,206.620 2.882 C 206.129 2.389,202.160 2.340,201.680 2.820 M373.067 2.748 C 367.508 3.957,364.812 9.225,364.792 18.917 C 364.777 26.165,365.752 29.534,368.740 32.567 C 371.343 35.208,371.927 35.333,381.665 35.333 C 388.253 35.333,389.658 35.374,389.926 35.570 C 390.798 36.206,390.363 45.398,389.376 47.212 C 388.116 49.527,388.275 49.500,375.924 49.500 C 366.826 49.500,365.529 49.531,365.204 49.759 C 364.766 50.066,364.613 56.380,365.033 56.800 C 365.185 56.952,367.912 57.000,376.286 57.000 L 387.340 57.000 388.530 56.584 C 391.651 55.494,393.944 52.713,395.266 48.417 L 395.728 46.917 395.793 37.698 C 395.851 29.463,395.830 28.436,395.592 28.073 L 395.326 27.667 384.943 27.667 C 373.155 27.667,373.342 27.685,372.101 26.443 C 370.710 25.052,370.500 24.063,370.500 18.911 C 370.500 13.176,370.982 11.703,373.226 10.585 L 374.065 10.167 384.674 10.167 C 394.739 10.167,395.296 10.151,395.558 9.862 C 395.994 9.379,395.969 3.174,395.529 2.776 C 395.117 2.404,374.766 2.378,373.067 2.748 M291.938 2.977 C 291.677 3.265,291.660 4.825,291.704 24.768 L 291.750 46.250 292.221 48.000 C 293.615 53.180,296.610 56.440,300.491 57.002 C 301.950 57.213,319.095 57.206,320.564 56.994 C 324.446 56.433,327.578 52.750,328.754 47.362 L 329.167 45.473 329.167 24.346 C 329.167 4.090,329.154 3.207,328.862 2.942 C 328.389 2.514,324.170 2.536,323.778 2.969 C 323.529 3.245,323.501 5.097,323.461 24.510 L 323.417 45.750 322.983 46.674 C 321.862 49.065,320.873 49.546,316.891 49.635 C 314.166 49.696,314.016 49.683,313.683 49.350 L 313.333 49.000 313.333 26.179 C 313.333 1.247,313.401 2.982,312.419 2.736 C 311.445 2.491,308.148 2.738,307.903 3.074 C 307.702 3.349,307.666 6.758,307.664 25.990 C 307.662 43.862,307.618 48.670,307.451 49.000 L 307.240 49.417 304.088 49.462 C 299.824 49.524,299.105 49.186,297.865 46.539 L 297.417 45.583 297.374 24.417 L 297.331 3.250 296.980 2.958 C 296.442 2.511,292.346 2.526,291.938 2.977 M338.718 2.905 C 335.214 3.754,332.051 8.014,331.242 12.972 C 330.847 15.390,330.842 43.882,331.236 46.522 C 331.952 51.320,334.591 55.127,338.195 56.559 L 339.307 57.000 348.793 57.000 L 358.280 57.000 359.303 56.489 C 361.284 55.499,362.819 52.842,362.831 50.385 C 362.835 49.569,363.091 49.589,351.417 49.493 C 338.996 49.392,339.551 49.450,338.250 48.109 C 336.829 46.644,336.616 45.695,336.532 40.457 C 336.472 36.691,336.497 36.113,336.736 35.749 L 337.008 35.333 349.595 35.333 L 362.182 35.333 362.591 34.924 C 363.584 33.931,363.111 27.678,362.042 27.663 C 361.881 27.660,356.236 27.662,349.496 27.667 C 339.040 27.673,337.193 27.639,336.912 27.433 C 336.373 27.036,336.476 15.367,337.034 13.634 C 337.497 12.194,338.393 11.112,339.577 10.561 L 340.417 10.170 351.338 10.168 C 360.951 10.167,362.304 10.136,362.630 9.907 C 363.154 9.540,363.212 3.410,362.695 2.942 C 362.294 2.579,340.205 2.544,338.718 2.905 " stroke="none" fill="#d14b1d" fill-rule="evenodd"></path><path id="path2" d="M262.023 3.179 C 260.438 3.813,258.298 7.344,256.978 11.500 C 256.702 12.371,256.370 13.383,256.241 13.750 C 255.612 15.535,254.801 19.157,253.741 24.900 C 253.364 26.945,253.285 26.977,250.779 26.081 C 244.447 23.818,239.438 25.760,237.565 31.206 C 236.314 34.843,236.945 43.006,238.907 48.583 C 239.036 48.950,239.369 49.962,239.646 50.833 C 240.287 52.844,241.584 55.965,241.943 56.362 C 242.189 56.634,242.521 56.667,245.072 56.667 C 248.371 56.667,248.300 56.693,249.244 55.138 C 250.698 52.741,251.714 52.731,251.419 55.116 C 251.267 56.343,251.492 56.699,252.379 56.634 C 253.280 56.568,253.296 56.503,253.318 52.667 C 253.340 48.831,253.207 49.094,257.598 44.167 C 261.149 40.181,262.541 38.833,263.105 38.833 C 263.976 38.833,271.750 47.094,272.721 49.050 C 272.922 49.454,273.018 50.429,273.118 53.083 L 273.250 56.583 273.887 56.636 C 274.879 56.717,275.054 56.465,274.956 55.090 C 274.773 52.538,275.555 52.474,277.079 54.917 C 278.237 56.772,277.992 56.667,281.170 56.667 C 284.376 56.667,284.171 56.760,285.003 54.916 C 286.663 51.237,287.913 47.082,288.989 41.667 C 290.097 36.088,289.070 29.947,286.608 27.440 C 283.911 24.693,279.580 24.124,275.055 25.924 C 273.017 26.735,272.643 26.302,272.092 22.500 C 271.895 21.139,270.638 15.786,270.136 14.167 C 267.531 5.775,264.794 2.069,262.023 3.179 M264.192 7.576 C 265.757 8.640,267.535 12.261,268.861 17.083 C 269.373 18.947,270.132 22.230,270.253 23.109 C 270.315 23.553,270.463 24.263,270.583 24.686 C 270.704 25.109,270.855 25.953,270.920 26.561 L 271.039 27.667 270.382 28.292 C 270.020 28.635,269.025 29.404,268.171 30.000 C 267.316 30.596,266.027 31.592,265.306 32.214 C 263.240 33.994,263.305 33.998,260.698 31.908 C 259.718 31.123,258.392 30.131,257.750 29.704 C 255.200 28.007,255.260 28.192,256.006 24.333 C 257.051 18.926,257.624 16.703,258.971 12.830 C 260.482 8.485,262.516 6.438,264.192 7.576 M283.026 29.519 C 284.521 29.893,286.328 31.518,287.010 33.103 C 288.299 36.098,287.097 44.094,284.382 50.583 C 281.642 57.135,281.619 57.152,279.747 54.083 C 279.075 52.983,277.909 51.221,277.154 50.167 C 274.682 46.715,274.744 46.975,274.168 37.583 C 274.072 36.025,273.924 34.412,273.838 34.000 C 273.504 32.402,273.615 31.240,274.144 30.794 C 275.655 29.523,280.348 28.849,283.026 29.519 M249.713 29.908 C 253.032 30.994,253.106 31.122,252.594 34.846 C 252.463 35.802,252.273 37.858,252.172 39.417 C 251.696 46.781,251.757 46.537,249.638 49.667 C 248.675 51.087,247.346 53.131,246.683 54.208 C 244.881 57.136,244.587 56.918,242.256 50.917 C 241.829 49.817,241.374 48.654,241.246 48.333 C 241.118 48.012,240.818 47.075,240.580 46.250 C 240.342 45.425,240.037 44.375,239.902 43.917 C 237.831 36.846,238.694 31.773,242.256 30.088 C 244.155 29.189,247.286 29.114,249.713 29.908 M271.582 32.664 C 272.038 33.403,272.710 42.130,272.344 42.570 C 271.966 43.025,271.731 42.875,270.222 41.213 C 269.412 40.322,268.164 38.973,267.448 38.214 C 265.784 36.453,265.766 36.155,267.250 34.949 C 269.752 32.916,271.249 32.126,271.582 32.664 M256.027 32.930 C 256.910 33.387,259.958 35.650,260.065 35.928 C 260.356 36.686,260.242 36.850,256.933 40.434 C 254.492 43.078,254.195 43.261,253.937 42.280 C 253.678 41.296,254.494 33.725,254.933 33.042 C 255.220 32.596,255.354 32.583,256.027 32.930 M261.750 50.405 C 261.025 50.842,260.011 52.075,259.616 53.000 C 258.885 54.713,258.768 55.095,258.760 55.807 L 258.750 56.583 263.083 56.628 C 268.007 56.679,267.917 56.702,267.639 55.452 C 266.730 51.354,264.024 49.035,261.750 50.405 " stroke="none" fill="#3b2f2f" fill-rule="evenodd"></path></g></svg>