<?xml version="1.0" encoding="utf-8"?>
<!-- Generator: Adobe Illustrator 24.2.0, SVG Export Plug-In . SVG Version: 6.00 Build 0)  -->
<svg version="1.1" id="Layer_1" xmlns="http://www.w3.org/2000/svg" xmlns:xlink="http://www.w3.org/1999/xlink" x="0px" y="0px"
	 viewBox="0 0 50.4 50.4" style="enable-background:new 0 0 50.4 50.4;" xml:space="preserve">
<style type="text/css">
	.st0{fill:#3b2f2f;}
</style>
<g>
	<path class="st0" d="M18.6,27.2c0,3.6,0,7.1,0,10.7c0,1.1-0.3,2.1-0.9,3c-1,1.4-2.4,2-4.2,2.2c-2.1,0.2-4-0.3-5.9-1.2
		c-1.8-0.9-3.5-1.8-5.3-2.7C0.8,38.5,0,37.4,0,35.8c0-7.1,0-14.2,0-21.3c0-1.5,0.7-2.6,2.2-3.4c6.5-3.3,12.9-6.6,19.4-9.9
		C22,1,22.5,0.7,23,0.5c1.5-0.7,2.9-0.7,4.4,0c3.7,1.9,7.4,3.8,11,5.6c3.3,1.7,6.5,3.3,9.8,5c1.5,0.8,2.2,1.9,2.2,3.4
		c0,7.1,0,14.2,0,21.2c0,1.5-0.7,2.7-2.2,3.4c-6.9,3.5-13.7,7.1-20.6,10.6c-1.5,0.8-3.1,0.8-4.6,0c-2.4-1.2-4.8-2.5-7.2-3.8
		c-0.1,0-0.1-0.1-0.2-0.1c-0.3-0.2-0.2-0.3,0.1-0.4c1.1-0.3,2.2-0.7,3.3-1.3c0.1-0.1,0.4,0,0.5,0.1c1.7,0.9,3.4,1.8,5.1,2.7
		c0.4,0.2,0.7,0.2,1.2,0c6.8-3.5,13.6-7,20.4-10.5c0.4-0.2,0.5-0.4,0.5-0.8c0-7,0-14,0-21c0-0.4-0.2-0.6-0.5-0.8
		c-6.8-3.5-13.7-7-20.5-10.5c-0.4-0.2-0.7-0.2-1,0c-6.8,3.5-13.7,7-20.5,10.5c-0.4,0.2-0.5,0.4-0.5,0.8c0,0.1,0,0.3,0,0.4
		c0,6.8,0,13.6,0,20.4c0,0.2,0,0.3,0,0.5c0,0.2,0.1,0.4,0.4,0.5c1.9,1,3.8,1.9,5.6,2.9c0.9,0.4,1.8,0.6,2.8,0.5
		c1.4-0.2,2.3-1.2,2.3-2.4c0-1.2,0-2.3,0-3.5c0-5.8,0-11.5,0-17.3c0-0.5,0.2-0.7,0.8-0.7c0.7,0,1.5,0,2.2,0c0.6,0,0.8,0.2,0.8,0.7
		C18.6,20.1,18.6,23.7,18.6,27.2C18.6,27.2,18.6,27.2,18.6,27.2z"/>
	<path class="st0" d="M39.3,22.2c-0.4,0-0.8,0-1.2,0c-0.4,0-0.6-0.1-0.6-0.5c-0.2-0.7-0.5-1.5-1.1-2c-0.8-0.7-1.8-1-2.8-1.1
		c-1.8-0.2-3.5-0.2-5.3,0c-0.8,0.1-1.5,0.4-2.1,0.9c-0.7,0.6-0.8,1.4-0.6,2.2c0.1,0.4,0.4,0.6,0.8,0.7c0.9,0.2,1.8,0.5,2.7,0.6
		c2,0.3,4.1,0.5,6.1,0.8c1.4,0.2,2.8,0.5,4.2,1.1c1.7,0.8,2.5,2,2.7,3.7c0.1,1.3-0.1,2.5-0.8,3.6c-0.8,1.2-2,1.9-3.4,2.5
		c-1.4,0.5-2.9,0.8-4.4,0.9c-1.6,0.1-3.3,0.1-4.9-0.1c-1.8-0.2-3.6-0.6-5.2-1.6c-1.6-1-2.4-2.4-2.6-4.1c0-0.3-0.1-0.6-0.1-0.9
		c0-0.4,0.2-0.6,0.6-0.6c0.9,0,1.8,0,2.7,0c0.3,0,0.5,0.1,0.5,0.4c0.1,0.4,0.2,0.8,0.3,1.2c0.4,1.2,1.4,1.8,2.7,2.1
		c0.7,0.2,1.5,0.3,2.2,0.3c1.8,0.1,3.6,0.2,5.4-0.2c0.6-0.1,1.2-0.4,1.8-0.7c0.9-0.5,1.4-1.7,1-2.7c-0.2-0.4-0.5-0.7-1-0.9
		c-1-0.5-2-0.6-3.1-0.8c-1.6-0.2-3.2-0.4-4.9-0.5c-1.7-0.2-3.4-0.5-5-1.2c-1.7-0.8-2.6-2.1-2.6-3.9c-0.1-2.8,1.5-4.7,4.6-5.6
		c2-0.6,4-0.7,6-0.6c1.5,0.1,2.9,0.2,4.3,0.6c2.9,0.9,4.6,2.7,4.9,5.4c0.1,0.9,0,1-1,1C39.8,22.2,39.6,22.2,39.3,22.2z"/>
</g>
</svg>
