<svg id="svg" xmlns="http://www.w3.org/2000/svg" xmlns:xlink="http://www.w3.org/1999/xlink" width="400" height="400" viewBox="0, 0, 400,400"><g id="svgg"><path id="path0" d="M175.224 0.971 C 161.773 2.620,133.808 9.422,134.680 10.833 C 134.849 11.106,134.603 11.182,134.132 11.002 C 132.332 10.311,108.898 20.435,109.615 21.594 C 109.868 22.003,109.771 22.110,109.370 21.863 C 108.572 21.370,101.320 24.909,101.739 25.587 C 101.899 25.846,101.444 26.039,100.727 26.014 C 100.010 25.990,99.419 26.284,99.413 26.667 C 99.408 27.050,99.158 27.587,98.860 27.861 C 98.544 28.150,98.496 28.046,98.745 27.612 C 98.982 27.201,99.024 26.866,98.839 26.866 C 98.135 26.866,93.229 30.173,93.231 30.647 C 93.233 30.920,93.034 31.323,92.790 31.542 C 92.546 31.761,92.561 31.570,92.823 31.117 C 93.152 30.550,93.042 30.387,92.471 30.594 C 92.015 30.760,91.716 31.218,91.806 31.612 C 91.896 32.005,91.702 32.162,91.375 31.960 C 90.632 31.500,87.661 33.385,88.075 34.054 C 88.241 34.324,88.063 34.739,87.679 34.976 C 87.217 35.262,87.141 35.148,87.454 34.642 C 87.769 34.131,87.651 33.967,87.098 34.151 C 86.642 34.303,86.269 34.719,86.269 35.075 C 86.269 35.430,86.024 35.945,85.725 36.219 C 85.409 36.508,85.362 36.404,85.611 35.970 C 86.251 34.858,85.049 35.068,84.103 36.234 C 83.405 37.094,83.408 37.169,84.122 36.739 C 84.696 36.393,84.824 36.454,84.529 36.932 C 84.291 37.317,83.852 37.480,83.553 37.295 C 83.020 36.966,76.418 41.487,76.418 42.181 C 76.418 42.376,76.888 42.170,77.463 41.725 C 78.313 41.067,78.296 41.164,77.370 42.249 C 76.205 43.615,75.459 44.054,76.119 42.985 C 76.743 41.977,75.422 42.325,74.551 43.398 C 73.994 44.085,73.971 44.265,74.478 43.960 C 75.565 43.307,75.390 43.898,74.214 44.852 C 73.527 45.409,73.347 45.432,73.652 44.925 C 74.658 43.251,73.002 44.456,66.956 49.799 C 60.857 55.188,52.742 63.254,55.224 61.460 C 56.331 60.660,56.357 60.674,55.587 61.656 C 55.129 62.239,54.612 62.572,54.437 62.397 C 54.049 62.009,51.343 64.473,51.343 65.214 C 51.343 65.504,51.679 65.549,52.090 65.312 C 52.500 65.076,52.185 65.597,51.388 66.471 C 49.629 68.403,48.940 68.585,50.460 66.716 C 51.060 65.978,50.433 66.524,49.066 67.930 C 47.699 69.336,46.644 70.679,46.723 70.915 C 46.801 71.150,46.705 71.343,46.510 71.343 C 45.655 71.343,44.151 73.095,44.415 73.783 C 44.575 74.199,44.251 74.895,43.696 75.329 C 42.768 76.056,42.759 76.023,43.582 74.925 C 44.418 73.811,44.406 73.787,43.406 74.573 C 42.816 75.036,42.471 75.772,42.638 76.208 C 42.805 76.644,42.616 76.937,42.217 76.859 C 41.819 76.780,41.566 77.072,41.657 77.507 C 41.747 77.942,41.576 78.146,41.276 77.961 C 40.561 77.519,39.196 79.183,39.660 79.933 C 39.858 80.253,39.705 80.709,39.320 80.947 C 38.854 81.235,38.782 81.118,39.104 80.597 C 39.434 80.064,39.355 79.959,38.858 80.267 C 38.456 80.515,38.268 81.085,38.441 81.534 C 38.613 81.983,38.455 82.534,38.091 82.760 C 37.689 83.008,37.595 82.898,37.853 82.480 C 38.088 82.101,38.151 81.791,37.994 81.791 C 37.540 81.791,34.917 86.221,35.078 86.716 C 35.158 86.963,34.792 87.164,34.264 87.164 C 33.660 87.164,33.431 87.493,33.646 88.053 C 33.843 88.566,33.681 88.881,33.262 88.799 C 32.863 88.721,32.574 89.124,32.619 89.695 C 32.666 90.286,32.429 90.565,32.070 90.343 C 31.673 90.098,31.585 90.333,31.832 90.978 C 32.054 91.557,31.981 91.852,31.665 91.656 C 30.920 91.196,29.680 93.569,30.214 94.433 C 30.465 94.839,30.366 94.946,29.968 94.700 C 29.242 94.251,27.263 97.512,27.885 98.133 C 28.090 98.339,27.782 98.507,27.200 98.507 C 26.488 98.507,26.257 98.811,26.496 99.434 C 26.729 100.039,26.612 100.212,26.160 99.933 C 25.694 99.645,25.597 99.840,25.862 100.530 C 26.078 101.094,26.018 101.408,25.727 101.228 C 25.038 100.802,24.358 102.592,24.870 103.487 C 25.088 103.868,25.043 103.977,24.770 103.729 C 24.126 103.145,18.983 112.754,19.496 113.583 C 19.716 113.939,19.603 114.040,19.240 113.815 C 18.457 113.331,17.659 115.528,18.263 116.505 C 18.515 116.912,18.433 117.039,18.065 116.812 C 17.313 116.347,16.548 118.051,17.105 118.952 C 17.353 119.354,17.210 119.409,16.715 119.103 C 16.131 118.743,16.017 118.948,16.268 119.907 C 16.453 120.616,16.396 121.066,16.140 120.908 C 15.885 120.750,15.200 121.892,14.619 123.445 C 14.039 124.998,13.265 126.656,12.901 127.130 C 12.373 127.816,12.420 127.886,13.134 127.475 C 13.710 127.143,13.631 127.414,12.913 128.233 C 12.292 128.942,11.957 129.929,12.160 130.457 C 12.360 130.978,12.298 131.266,12.022 131.095 C 11.354 130.683,9.978 135.359,10.512 136.224 C 10.747 136.604,10.667 136.738,10.328 136.528 C 9.738 136.163,7.006 144.128,6.885 146.567 C 6.852 147.224,6.617 148.097,6.363 148.507 C 6.108 148.918,6.091 149.564,6.326 149.943 C 6.607 150.397,6.487 150.469,5.976 150.153 C 5.392 149.792,5.274 150.060,5.499 151.236 C 5.663 152.096,5.615 152.687,5.391 152.548 C 4.786 152.175,2.798 163.393,3.319 164.237 C 3.604 164.698,3.516 164.806,3.077 164.535 C 2.615 164.249,2.357 164.759,2.295 166.084 C 2.188 168.333,2.028 169.910,1.519 173.731 C -0.447 188.469,-0.478 207.710,1.438 223.582 C 1.557 224.567,1.850 227.183,2.090 229.396 C 2.330 231.608,2.760 233.273,3.047 233.096 C 3.334 232.919,3.418 233.165,3.235 233.643 C 2.717 234.991,5.433 247.795,6.143 247.356 C 6.491 247.141,6.569 247.275,6.326 247.669 C 6.091 248.048,6.108 248.694,6.363 249.104 C 6.617 249.515,6.844 250.388,6.867 251.045 C 6.939 253.140,11.505 266.836,12.025 266.515 C 12.299 266.345,12.362 266.627,12.165 267.141 C 11.968 267.655,12.083 268.407,12.420 268.814 C 12.757 269.220,13.024 269.687,13.013 269.851 C 13.002 270.015,13.387 271.091,13.868 272.243 C 14.349 273.394,15.101 275.327,15.540 276.539 C 15.978 277.751,16.553 278.608,16.818 278.445 C 17.083 278.281,17.123 278.608,16.907 279.171 C 16.619 279.921,16.725 280.065,17.304 279.707 C 17.856 279.366,17.953 279.448,17.627 279.976 C 17.092 280.841,23.861 294.411,24.599 293.955 C 24.853 293.798,24.884 294.130,24.668 294.694 C 24.380 295.444,24.486 295.587,25.065 295.230 C 25.568 294.919,25.713 294.973,25.463 295.376 C 24.947 296.211,25.646 297.997,26.324 297.578 C 26.615 297.398,26.703 297.640,26.520 298.116 C 26.329 298.613,26.769 299.388,27.555 299.938 C 28.307 300.465,28.721 300.896,28.476 300.896 C 28.230 300.896,28.446 301.701,28.955 302.687 C 29.465 303.672,30.025 304.478,30.200 304.478 C 30.375 304.478,30.327 304.167,30.092 303.788 C 29.826 303.358,29.929 303.261,30.365 303.531 C 30.750 303.769,30.910 304.213,30.721 304.518 C 30.322 305.165,31.886 307.617,32.382 307.121 C 32.566 306.937,32.676 307.274,32.627 307.871 C 32.578 308.467,32.842 308.899,33.213 308.829 C 33.585 308.760,33.854 309.163,33.810 309.725 C 33.767 310.287,34.087 310.672,34.522 310.582 C 34.957 310.492,35.170 310.649,34.996 310.930 C 34.675 311.450,37.364 315.821,38.005 315.821 C 38.198 315.821,37.986 315.351,37.536 314.776 C 36.799 313.837,36.819 313.811,37.726 314.521 C 38.281 314.956,38.598 315.667,38.431 316.103 C 38.264 316.538,38.456 317.097,38.858 317.345 C 39.355 317.653,39.434 317.548,39.104 317.015 C 38.782 316.494,38.854 316.377,39.320 316.665 C 39.705 316.903,39.853 317.367,39.649 317.697 C 39.199 318.426,41.758 321.285,42.468 320.846 C 42.745 320.675,42.828 320.909,42.653 321.366 C 42.477 321.823,42.816 322.576,43.406 323.039 C 44.403 323.822,44.417 323.797,43.611 322.687 C 42.869 321.665,42.868 321.603,43.604 322.262 C 44.077 322.685,44.467 323.491,44.471 324.053 C 44.474 324.615,44.813 325.007,45.224 324.925 C 45.634 324.843,45.903 325.112,45.821 325.522 C 45.739 325.933,46.027 326.195,46.462 326.105 C 46.897 326.014,47.084 326.214,46.877 326.549 C 46.670 326.884,47.372 328.032,48.437 329.101 C 49.541 330.210,49.876 330.404,49.216 329.552 L 48.060 328.060 49.389 329.184 C 50.120 329.803,50.584 330.525,50.421 330.790 C 50.031 331.420,53.710 335.606,54.321 335.229 C 54.579 335.069,55.156 335.406,55.604 335.977 C 56.352 336.931,56.322 336.947,55.224 336.173 C 54.567 335.710,56.768 338.086,60.115 341.453 C 63.461 344.821,66.453 347.419,66.763 347.227 C 67.074 347.036,67.694 347.346,68.141 347.917 C 68.878 348.857,68.856 348.877,67.910 348.136 C 67.336 347.685,66.866 347.441,66.866 347.594 C 66.866 348.377,74.245 353.972,74.834 353.635 C 75.213 353.419,75.323 353.461,75.080 353.730 C 74.575 354.287,75.664 355.821,76.564 355.821 C 76.892 355.821,76.797 355.351,76.352 354.776 C 75.693 353.926,75.791 353.943,76.876 354.869 C 78.242 356.034,78.681 356.780,77.612 356.119 C 76.120 355.197,77.221 356.480,78.955 357.684 C 80.686 358.886,80.799 358.904,80.000 357.848 C 79.507 357.197,80.045 357.687,81.194 358.938 C 82.343 360.189,83.552 361.202,83.881 361.190 C 84.209 361.178,83.806 360.603,82.985 359.913 L 81.493 358.659 82.985 359.580 C 83.806 360.087,84.413 360.783,84.334 361.128 C 84.140 361.979,86.426 363.143,87.269 362.622 C 87.667 362.376,87.782 362.469,87.548 362.847 C 87.329 363.201,87.934 364.049,88.891 364.730 C 90.831 366.112,91.631 366.322,90.988 365.281 C 90.722 364.850,90.824 364.754,91.261 365.024 C 91.645 365.261,91.814 365.692,91.635 365.981 C 91.231 366.634,93.554 367.941,94.299 367.481 C 94.598 367.296,95.037 367.459,95.275 367.844 C 95.563 368.310,95.446 368.382,94.925 368.060 C 94.393 367.730,94.288 367.809,94.595 368.307 C 94.843 368.708,95.436 368.887,95.912 368.704 C 96.389 368.521,96.623 368.624,96.432 368.932 C 96.242 369.240,96.613 369.774,97.257 370.119 C 98.806 370.948,99.270 370.911,98.745 370.000 C 98.496 369.566,98.544 369.462,98.860 369.751 C 99.158 370.025,99.408 370.562,99.413 370.945 C 99.419 371.328,100.010 371.622,100.727 371.598 C 101.444 371.573,101.909 371.749,101.761 371.989 C 101.338 372.674,106.844 375.658,107.832 375.279 C 108.403 375.060,108.566 375.186,108.291 375.631 C 108.003 376.097,108.198 376.194,108.888 375.929 C 109.472 375.705,109.762 375.779,109.564 376.101 C 109.098 376.854,112.706 378.685,113.816 378.259 C 114.296 378.075,114.542 378.162,114.363 378.452 C 114.183 378.742,116.789 380.184,120.153 381.656 C 155.194 396.994,196.668 401.899,234.627 395.194 C 249.198 392.620,273.230 385.549,271.536 384.334 C 270.973 383.931,271.078 383.877,271.903 384.147 C 273.366 384.626,279.532 382.184,279.006 381.333 C 278.771 380.953,278.914 380.892,279.372 381.175 C 280.258 381.723,286.075 379.159,285.619 378.422 C 285.450 378.148,285.702 378.074,286.180 378.257 C 287.292 378.684,292.097 376.259,291.632 375.506 C 291.439 375.194,291.677 375.091,292.161 375.277 C 293.258 375.698,295.561 374.521,295.367 373.639 C 295.288 373.279,295.627 372.864,296.119 372.716 C 296.915 372.476,296.915 372.517,296.119 373.080 C 295.627 373.428,295.508 373.717,295.856 373.722 C 296.204 373.727,297.010 373.308,297.647 372.792 C 298.284 372.275,298.429 372.048,297.967 372.287 C 297.430 372.566,297.276 372.484,297.539 372.059 C 297.764 371.694,298.304 371.532,298.739 371.699 C 299.463 371.976,303.881 369.795,303.881 369.160 C 303.881 369.008,303.570 369.076,303.191 369.311 C 302.761 369.577,302.664 369.474,302.934 369.038 C 303.172 368.653,303.596 368.481,303.876 368.654 C 304.573 369.085,308.731 366.574,308.348 365.953 C 308.179 365.679,308.355 365.261,308.739 365.024 C 309.176 364.754,309.278 364.850,309.012 365.281 C 308.019 366.889,310.045 365.777,312.380 363.433 C 313.770 362.037,314.508 361.410,314.021 362.038 C 313.186 363.115,313.212 363.139,314.472 362.468 C 315.207 362.076,315.745 361.473,315.666 361.128 C 315.587 360.783,316.194 360.087,317.015 359.580 L 318.507 358.659 317.015 359.913 C 316.194 360.603,315.791 361.178,316.119 361.190 C 316.448 361.202,317.657 360.189,318.806 358.938 C 319.955 357.687,320.493 357.188,320.000 357.829 C 319.189 358.884,319.198 358.943,320.091 358.453 C 321.449 357.706,333.134 348.005,333.134 347.624 C 333.134 347.455,332.664 347.674,332.090 348.110 C 331.515 348.546,331.971 347.907,333.102 346.690 C 334.234 345.473,335.288 344.478,335.445 344.478 C 335.602 344.478,335.100 345.149,334.328 345.970 C 333.557 346.791,333.180 347.463,333.490 347.463 C 334.144 347.463,345.373 336.310,345.373 335.660 C 345.373 335.420,345.553 335.284,345.773 335.357 C 346.391 335.563,349.916 331.334,349.579 330.790 C 349.416 330.525,349.880 329.803,350.611 329.184 L 351.940 328.060 350.784 329.552 C 350.124 330.404,350.459 330.210,351.563 329.101 C 352.628 328.032,353.353 326.921,353.174 326.632 C 352.995 326.342,353.316 325.739,353.887 325.292 C 354.847 324.539,354.859 324.568,354.040 325.672 C 353.161 326.858,353.164 326.858,354.509 325.709 C 355.254 325.073,355.735 324.220,355.579 323.813 C 355.423 323.406,355.749 322.717,356.304 322.282 C 357.232 321.556,357.241 321.589,356.418 322.687 C 355.582 323.801,355.594 323.825,356.594 323.039 C 357.184 322.576,357.523 321.823,357.347 321.366 C 357.172 320.909,357.255 320.675,357.532 320.846 C 358.242 321.285,360.801 318.426,360.351 317.697 C 360.147 317.367,360.295 316.903,360.680 316.665 C 361.152 316.374,361.223 316.505,360.900 317.072 C 360.052 318.559,361.531 316.868,363.495 314.105 C 364.516 312.668,365.202 311.251,365.019 310.955 C 364.837 310.660,365.043 310.492,365.478 310.582 C 365.915 310.673,366.232 310.282,366.187 309.708 C 366.142 309.137,366.317 308.801,366.576 308.961 C 367.179 309.333,369.671 305.152,369.251 304.473 C 369.078 304.193,369.250 303.769,369.635 303.531 C 370.071 303.261,370.174 303.358,369.908 303.788 C 369.673 304.167,369.625 304.478,369.800 304.478 C 369.975 304.478,370.535 303.672,371.045 302.687 C 371.554 301.701,371.770 300.896,371.524 300.896 C 371.279 300.896,371.693 300.465,372.445 299.938 C 373.231 299.388,373.671 298.613,373.480 298.116 C 373.297 297.640,373.385 297.398,373.676 297.578 C 374.354 297.997,375.053 296.211,374.537 295.376 C 374.287 294.973,374.432 294.919,374.935 295.230 C 375.527 295.596,375.617 295.437,375.294 294.594 C 375.056 293.975,375.060 293.667,375.302 293.908 C 375.879 294.486,380.360 285.955,379.884 285.185 C 379.682 284.859,379.799 284.766,380.144 284.979 C 380.896 285.444,381.660 283.740,381.104 282.839 C 380.872 282.465,380.994 282.379,381.400 282.630 C 382.040 283.025,382.325 282.198,382.251 280.156 C 382.236 279.749,382.508 279.591,382.855 279.806 C 383.253 280.051,383.341 279.816,383.093 279.171 C 382.877 278.608,382.917 278.281,383.182 278.445 C 383.447 278.608,384.022 277.751,384.460 276.539 C 384.899 275.327,385.670 273.394,386.174 272.243 C 386.679 271.091,387.131 270.015,387.179 269.851 C 387.228 269.687,387.469 269.095,387.716 268.536 C 387.963 267.977,387.966 267.197,387.722 266.802 C 387.465 266.386,387.530 266.240,387.876 266.454 C 388.472 266.822,393.052 253.399,393.133 251.045 C 393.156 250.388,393.383 249.515,393.637 249.104 C 393.892 248.694,393.909 248.048,393.674 247.669 C 393.393 247.214,393.513 247.143,394.024 247.459 C 394.608 247.820,394.726 247.552,394.501 246.375 C 394.337 245.516,394.385 244.925,394.609 245.064 C 395.214 245.437,397.202 234.219,396.681 233.375 C 396.396 232.914,396.484 232.806,396.923 233.077 C 397.385 233.363,397.643 232.853,397.705 231.528 C 397.812 229.279,397.972 227.702,398.481 223.881 C 400.479 208.898,400.479 188.714,398.481 173.731 C 397.972 169.910,397.812 168.333,397.705 166.084 C 397.643 164.759,397.385 164.249,396.923 164.535 C 396.484 164.806,396.396 164.698,396.681 164.237 C 397.202 163.393,395.214 152.175,394.609 152.548 C 394.385 152.687,394.337 152.096,394.501 151.236 C 394.726 150.060,394.608 149.792,394.024 150.153 C 393.502 150.475,393.393 150.398,393.690 149.917 C 393.934 149.523,393.774 148.759,393.335 148.217 C 392.653 147.377,392.668 147.312,393.433 147.773 C 394.098 148.173,394.043 147.876,393.222 146.620 C 392.613 145.689,392.349 145.072,392.636 145.249 C 392.922 145.426,392.495 143.461,391.686 140.882 C 390.878 138.302,389.958 136.351,389.643 136.546 C 389.327 136.741,389.258 136.596,389.488 136.224 C 390.022 135.359,388.646 130.683,387.978 131.095 C 387.702 131.266,387.640 130.978,387.840 130.457 C 388.043 129.929,387.708 128.942,387.087 128.233 C 386.369 127.414,386.290 127.143,386.866 127.475 C 387.580 127.886,387.627 127.816,387.099 127.130 C 386.735 126.656,385.961 124.998,385.381 123.445 C 384.800 121.892,384.115 120.750,383.860 120.908 C 383.604 121.066,383.547 120.616,383.732 119.907 C 383.983 118.948,383.869 118.743,383.285 119.103 C 382.790 119.409,382.647 119.354,382.895 118.952 C 383.411 118.117,382.713 116.331,382.034 116.751 C 381.744 116.930,381.657 116.684,381.841 116.204 C 382.261 115.111,375.903 103.119,375.228 103.731 C 374.956 103.977,374.912 103.868,375.130 103.487 C 375.642 102.592,374.962 100.802,374.273 101.228 C 373.982 101.408,373.922 101.094,374.138 100.530 C 374.403 99.840,374.306 99.645,373.840 99.933 C 373.388 100.212,373.271 100.039,373.504 99.434 C 373.743 98.811,373.512 98.507,372.800 98.507 C 372.218 98.507,371.910 98.339,372.115 98.133 C 372.737 97.512,370.758 94.251,370.032 94.700 C 369.634 94.946,369.535 94.839,369.786 94.433 C 370.320 93.569,369.080 91.196,368.335 91.656 C 368.019 91.852,367.946 91.557,368.168 90.978 C 368.415 90.333,368.327 90.098,367.930 90.343 C 367.571 90.565,367.334 90.286,367.381 89.695 C 367.426 89.124,367.158 88.713,366.787 88.783 C 366.415 88.852,366.146 88.449,366.190 87.887 C 366.233 87.325,365.913 86.939,365.478 87.030 C 365.043 87.120,364.838 86.950,365.022 86.652 C 365.206 86.354,364.777 85.340,364.069 84.399 C 362.437 82.230,361.442 81.188,362.094 82.331 C 362.408 82.880,362.344 83.028,361.909 82.760 C 361.545 82.534,361.387 81.983,361.559 81.534 C 361.732 81.085,361.544 80.515,361.142 80.267 C 360.645 79.959,360.566 80.064,360.896 80.597 C 361.218 81.118,361.146 81.235,360.680 80.947 C 360.295 80.709,360.147 80.245,360.351 79.915 C 360.801 79.186,358.242 76.327,357.532 76.766 C 357.255 76.937,357.172 76.703,357.347 76.246 C 357.523 75.789,357.184 75.036,356.594 74.573 C 355.594 73.787,355.582 73.811,356.418 74.925 C 357.241 76.023,357.232 76.056,356.304 75.329 C 355.749 74.895,355.423 74.206,355.579 73.799 C 355.735 73.392,355.254 72.539,354.509 71.903 C 353.164 70.754,353.161 70.754,354.040 71.940 C 354.859 73.044,354.847 73.073,353.887 72.320 C 353.316 71.873,352.986 71.286,353.152 71.016 C 353.319 70.745,352.443 69.492,351.206 68.229 C 349.968 66.966,349.492 66.613,350.147 67.444 C 351.177 68.750,351.075 68.717,349.401 67.202 C 347.494 65.477,346.887 64.648,348.060 65.373 C 348.388 65.576,348.657 65.504,348.657 65.214 C 348.657 64.473,345.951 62.009,345.563 62.397 C 345.388 62.572,344.871 62.239,344.413 61.656 C 343.643 60.675,343.670 60.660,344.776 61.459 C 347.287 63.272,338.527 54.569,332.735 49.496 C 327.110 44.570,325.345 43.282,326.269 44.776 C 326.869 45.748,326.184 45.457,325.297 44.363 C 324.590 43.492,324.601 43.425,325.373 43.881 C 326.146 44.336,326.156 44.269,325.449 43.398 C 324.504 42.233,323.297 42.021,323.948 43.134 C 324.188 43.545,323.801 43.369,323.088 42.743 C 321.639 41.473,321.282 40.626,322.687 41.791 C 323.179 42.200,323.582 42.376,323.582 42.181 C 323.582 41.487,316.980 36.966,316.447 37.295 C 316.148 37.480,315.709 37.317,315.471 36.932 C 315.176 36.454,315.304 36.393,315.878 36.739 C 316.592 37.169,316.595 37.094,315.897 36.234 C 314.951 35.068,313.749 34.858,314.389 35.970 C 314.638 36.404,314.591 36.508,314.275 36.219 C 313.976 35.945,313.731 35.430,313.731 35.075 C 313.731 34.719,313.358 34.303,312.902 34.151 C 312.349 33.967,312.231 34.131,312.546 34.642 C 312.859 35.148,312.783 35.262,312.321 34.976 C 311.937 34.739,311.759 34.324,311.925 34.054 C 312.339 33.385,309.368 31.500,308.625 31.960 C 308.298 32.162,308.104 32.005,308.194 31.612 C 308.284 31.218,307.985 30.760,307.529 30.594 C 306.973 30.392,306.855 30.545,307.173 31.060 C 307.493 31.577,307.410 31.680,306.918 31.376 C 306.517 31.128,306.344 30.771,306.533 30.582 C 307.393 29.721,291.815 21.130,290.673 21.836 C 290.231 22.110,290.123 22.019,290.385 21.594 C 290.890 20.777,280.776 15.923,279.549 16.394 C 279.106 16.564,278.895 16.458,279.080 16.159 C 279.682 15.184,259.757 7.980,258.157 8.594 C 257.574 8.818,257.402 8.697,257.674 8.257 C 257.962 7.792,257.685 7.681,256.809 7.910 C 256.100 8.095,255.647 8.043,255.801 7.794 C 256.338 6.925,239.667 3.106,226.662 1.118 C 220.492 0.175,182.603 0.067,175.224 0.971 M185.522 1.009 C 184.948 1.159,184.007 1.159,183.433 1.009 C 182.858 0.858,183.328 0.736,184.478 0.736 C 185.627 0.736,186.097 0.858,185.522 1.009 M217.171 1.007 C 216.600 1.157,215.526 1.162,214.783 1.019 C 214.040 0.876,214.507 0.754,215.821 0.748 C 217.134 0.741,217.742 0.858,217.171 1.007 M131.612 12.470 C 131.300 12.762,130.373 13.162,129.552 13.360 C 128.302 13.661,128.351 13.579,129.851 12.857 C 131.961 11.840,132.386 11.747,131.612 12.470 M107.463 22.973 C 107.463 23.130,106.388 23.808,105.075 24.478 C 103.761 25.148,102.687 25.563,102.687 25.400 C 102.687 25.237,103.694 24.571,104.925 23.921 C 107.459 22.584,107.463 22.582,107.463 22.973 M297.313 25.404 C 297.313 25.568,296.507 25.286,295.522 24.776 C 294.537 24.267,293.731 23.716,293.731 23.551 C 293.731 23.387,294.537 23.670,295.522 24.179 C 296.507 24.689,297.313 25.240,297.313 25.404 M68.052 49.860 C 67.640 50.357,64.853 52.943,61.860 55.606 L 56.418 60.448 62.388 54.725 C 68.091 49.259,69.692 47.884,68.052 49.860 M191.642 49.552 L 178.209 49.885 191.343 50.019 L 204.478 50.153 204.506 52.529 C 204.523 53.894,204.336 54.592,204.067 54.169 C 203.555 53.365,203.411 55.279,203.380 63.284 C 203.368 66.479,203.196 67.806,202.915 66.866 C 202.572 65.715,202.458 66.057,202.416 68.358 C 202.328 73.256,201.918 77.355,201.287 79.640 C 200.884 81.099,200.890 81.791,201.306 81.791 C 201.675 81.791,201.727 82.206,201.437 82.836 C 201.171 83.410,200.860 85.291,200.746 87.015 C 200.631 88.739,200.403 91.560,200.239 93.284 C 200.075 95.008,199.887 97.534,199.821 98.898 C 199.755 100.262,199.500 101.254,199.254 101.102 C 198.667 100.739,198.693 102.182,199.290 103.121 C 199.626 103.651,203.066 103.903,211.669 104.030 L 223.582 104.206 211.045 104.458 L 198.507 104.710 213.134 105.063 C 229.581 105.459,232.718 106.185,238.175 110.856 C 239.538 112.023,240.796 112.836,240.970 112.662 C 241.144 112.488,240.067 111.449,238.577 110.352 C 237.087 109.255,235.857 108.115,235.844 107.818 C 235.820 107.262,237.030 108.173,240.500 111.325 C 242.696 113.320,245.475 116.920,244.219 116.144 C 243.304 115.579,243.336 115.669,245.536 119.851 C 246.443 121.575,247.464 122.985,247.806 122.985 C 248.149 122.985,248.278 123.229,248.093 123.528 C 247.579 124.360,248.401 126.014,249.110 125.576 C 249.473 125.352,249.560 125.475,249.317 125.868 C 249.086 126.241,249.080 127.518,249.302 128.706 C 249.584 130.207,249.860 130.619,250.210 130.059 C 250.504 129.588,250.575 130.244,250.381 131.642 C 250.154 133.283,250.232 133.771,250.633 133.203 C 251.029 132.640,251.112 133.288,250.893 135.233 C 250.710 136.853,250.803 137.946,251.106 137.759 C 251.412 137.570,251.642 140.837,251.642 145.373 C 251.642 149.990,251.414 153.178,251.099 152.983 C 250.781 152.787,250.693 154.359,250.886 156.772 C 251.102 159.481,251.036 160.383,250.693 159.403 C 250.342 158.401,250.238 159.578,250.375 162.985 C 250.492 165.885,250.385 167.420,250.125 166.567 C 249.834 165.610,249.703 166.608,249.761 169.347 C 249.810 171.697,249.660 173.501,249.427 173.356 C 249.194 173.212,249.073 174.832,249.159 176.957 C 249.246 179.093,249.079 180.674,248.787 180.493 C 248.496 180.313,248.326 181.203,248.410 182.471 C 248.494 183.739,248.406 185.313,248.214 185.970 C 247.370 188.860,247.112 191.951,247.791 191.045 C 248.322 190.336,248.371 190.460,248.027 191.642 C 247.622 193.030,247.268 196.812,246.984 202.779 C 246.919 204.143,246.679 205.144,246.452 205.003 C 246.224 204.863,246.016 205.627,245.988 206.702 C 245.961 207.777,245.789 211.478,245.607 214.925 C 245.424 218.373,245.260 222.672,245.241 224.478 C 245.215 226.934,245.091 227.385,244.750 226.269 C 244.464 225.337,244.344 226.407,244.430 229.120 C 244.506 231.545,244.351 233.127,244.077 232.702 C 243.789 232.253,243.625 233.067,243.678 234.682 C 243.728 236.190,243.606 237.687,243.408 238.007 C 243.087 238.527,242.492 246.734,242.088 256.202 C 241.876 261.168,242.709 260.896,227.737 260.896 L 214.351 260.896 213.975 259.395 C 213.758 258.533,213.913 257.516,214.337 257.004 C 214.821 256.421,214.941 255.265,214.685 253.661 C 214.439 252.122,214.550 250.900,214.985 250.376 C 215.400 249.876,215.533 248.648,215.318 247.308 C 215.070 245.762,215.137 245.350,215.535 245.970 C 215.926 246.577,216.038 245.517,215.883 242.687 C 215.728 239.871,215.830 238.897,216.195 239.701 C 216.556 240.497,216.657 239.402,216.499 236.418 C 216.340 233.420,216.432 232.434,216.778 233.433 C 217.123 234.431,217.224 233.344,217.083 230.149 C 216.949 227.126,217.051 225.921,217.361 226.866 C 217.681 227.839,217.776 226.920,217.634 224.228 C 217.498 221.635,217.617 220.413,217.954 220.945 C 218.320 221.521,218.473 221.029,218.434 219.403 C 218.403 218.090,218.669 215.806,219.025 214.328 C 219.829 210.992,219.850 210.189,219.104 211.343 C 218.606 212.115,218.524 212.099,218.517 211.229 C 218.512 210.674,218.806 210.035,219.171 209.809 C 219.599 209.545,219.700 208.382,219.455 206.535 C 219.228 204.826,219.318 203.520,219.678 203.298 C 220.010 203.093,220.293 201.394,220.307 199.522 C 220.364 191.856,220.399 191.436,220.922 192.282 C 221.278 192.858,221.457 192.470,221.497 191.037 C 221.530 189.892,221.696 186.403,221.868 183.284 C 222.040 180.164,222.194 176.269,222.211 174.627 C 222.235 172.263,222.341 171.952,222.719 173.134 C 223.035 174.121,223.145 173.257,223.046 170.581 C 222.951 168.039,223.096 166.819,223.436 167.298 C 223.770 167.768,223.871 166.345,223.701 163.582 C 223.542 160.987,223.622 159.732,223.892 160.597 C 224.190 161.550,224.365 160.040,224.376 156.418 C 224.390 151.980,223.559 146.126,223.316 148.955 C 223.253 149.691,222.108 147.993,222.108 147.164 C 222.108 146.836,222.368 146.970,222.687 147.463 C 223.005 147.955,223.269 148.069,223.274 147.716 C 223.320 144.533,218.375 143.344,204.957 143.310 L 194.690 143.284 194.632 145.821 C 194.514 150.997,194.407 152.174,194.073 151.967 C 193.885 151.851,193.711 152.335,193.685 153.042 C 193.660 153.750,193.455 155.403,193.231 156.716 C 192.918 158.545,192.967 158.825,193.439 157.910 C 193.975 156.869,194.004 156.908,193.661 158.209 C 193.202 159.949,192.778 164.528,192.721 168.358 C 192.692 170.291,192.551 170.710,192.217 169.851 C 191.928 169.109,191.789 170.050,191.848 172.332 C 191.900 174.353,191.769 175.899,191.556 175.768 C 190.988 175.417,190.272 184.642,190.687 186.967 C 190.959 188.493,190.909 188.678,190.472 187.761 C 190.067 186.913,189.960 187.778,190.104 190.746 C 190.221 193.182,190.109 194.427,189.835 193.731 C 189.539 192.979,189.400 193.898,189.460 196.212 C 189.512 198.234,189.329 199.748,189.054 199.578 C 188.779 199.408,188.614 200.172,188.688 201.276 C 188.762 202.380,188.621 203.757,188.374 204.336 C 188.128 204.914,188.059 206.258,188.220 207.321 C 188.382 208.384,188.313 209.657,188.067 210.149 C 187.232 211.822,186.742 215.926,187.497 214.925 C 188.046 214.198,188.083 214.254,187.698 215.224 C 187.437 215.881,187.210 217.400,187.194 218.600 C 187.178 219.800,186.995 220.677,186.789 220.549 C 186.582 220.422,186.484 221.928,186.571 223.897 C 186.658 225.866,186.484 227.628,186.185 227.813 C 185.885 227.998,185.636 229.406,185.631 230.940 C 185.606 238.507,185.513 239.693,185.041 238.507 C 184.740 237.751,184.604 238.660,184.671 240.988 C 184.729 243.010,184.589 244.548,184.361 244.406 C 184.132 244.265,184.017 245.772,184.104 247.757 C 184.192 249.741,184.070 251.053,183.834 250.671 C 183.400 249.968,182.536 258.995,182.827 261.194 C 183.025 262.687,156.367 263.118,156.065 261.627 C 155.980 261.208,156.047 261.141,156.214 261.478 C 156.624 262.305,182.687 262.319,182.687 261.493 C 182.687 261.113,178.010 260.896,169.851 260.896 L 157.015 260.896 157.007 258.955 C 157.002 257.888,156.862 256.343,156.696 255.522 C 156.428 254.198,156.461 254.164,156.989 255.224 C 157.469 256.185,157.573 255.894,157.521 253.731 C 157.486 252.254,157.655 250.575,157.897 250.000 C 158.139 249.425,158.195 248.585,158.021 248.133 C 157.743 247.409,158.189 244.595,159.166 240.896 C 159.422 239.925,159.364 239.869,158.854 240.597 C 158.310 241.374,158.226 241.359,158.218 240.483 C 158.213 239.928,158.485 239.303,158.822 239.095 C 159.159 238.886,159.431 237.460,159.427 235.925 C 159.424 234.390,159.566 231.522,159.743 229.552 C 159.920 227.582,160.105 224.967,160.153 223.742 C 160.211 222.284,160.422 221.768,160.766 222.249 C 161.093 222.708,161.160 222.382,160.943 221.385 C 160.752 220.505,160.863 219.079,161.191 218.216 C 161.587 217.175,161.587 216.772,161.192 217.016 C 160.865 217.218,160.597 216.949,160.597 216.418 C 160.597 215.838,160.873 215.623,161.289 215.880 C 161.800 216.195,161.881 215.352,161.599 212.659 C 161.349 210.263,161.443 208.872,161.873 208.606 C 162.286 208.351,162.392 207.203,162.159 205.506 C 161.933 203.858,162.049 202.498,162.456 202.008 C 162.822 201.566,163.006 200.411,162.863 199.440 C 162.721 198.469,162.816 197.806,163.075 197.966 C 163.335 198.127,163.450 196.568,163.332 194.502 C 163.185 191.936,163.287 191.125,163.655 191.940 C 164.016 192.739,164.116 191.752,163.960 188.955 C 163.815 186.365,163.917 185.230,164.227 185.970 C 164.601 186.863,164.732 186.486,164.746 184.478 C 164.755 183.000,164.927 180.179,165.128 178.209 C 165.328 176.239,165.492 173.620,165.492 172.390 C 165.492 171.159,165.668 170.261,165.883 170.394 C 166.097 170.526,166.299 169.921,166.331 169.049 C 166.364 168.176,166.568 166.657,166.786 165.672 C 167.111 164.204,167.071 164.096,166.564 165.075 C 166.024 166.117,165.996 166.079,166.340 164.776 C 166.765 163.169,167.179 158.359,167.266 154.030 C 167.304 152.087,167.448 151.674,167.783 152.537 C 168.072 153.279,168.211 152.338,168.152 150.056 C 168.100 148.035,168.231 146.489,168.444 146.620 C 169.012 146.972,169.728 137.746,169.313 135.421 C 169.042 133.901,169.092 133.714,169.526 134.627 C 169.925 135.467,170.037 134.493,169.902 131.343 C 169.791 128.732,169.909 127.363,170.185 128.060 C 170.484 128.813,170.620 127.897,170.553 125.579 C 170.495 123.557,170.655 122.032,170.908 122.189 C 171.162 122.346,171.374 121.716,171.380 120.789 C 171.412 116.160,171.713 112.466,172.111 111.834 C 172.355 111.447,172.554 109.969,172.552 108.550 C 172.547 104.062,172.823 101.002,173.211 101.242 C 173.418 101.369,173.516 99.863,173.429 97.894 C 173.342 95.925,173.516 94.163,173.815 93.978 C 174.115 93.793,174.354 92.386,174.347 90.851 C 174.340 89.316,174.476 86.448,174.648 84.478 C 174.821 82.507,175.008 79.893,175.064 78.667 C 175.124 77.353,175.355 76.741,175.626 77.175 C 175.879 77.579,176.006 76.244,175.908 74.208 C 175.797 71.889,175.950 70.642,176.318 70.869 C 176.693 71.101,176.784 69.848,176.569 67.407 C 176.344 64.843,176.406 64.074,176.760 65.075 C 177.125 66.108,177.224 65.190,177.080 62.090 C 176.955 59.383,177.067 58.084,177.364 58.806 C 177.676 59.568,177.796 58.662,177.695 56.302 C 177.598 54.029,177.759 52.742,178.115 52.962 C 178.468 53.180,178.552 52.612,178.331 51.507 C 177.808 48.890,177.508 48.943,191.891 49.087 L 205.075 49.219 191.642 49.552 M334.627 51.940 C 336.244 53.582,337.433 54.925,337.269 54.925 C 337.104 54.925,335.647 53.582,334.030 51.940 C 332.413 50.299,331.224 48.955,331.388 48.955 C 331.552 48.955,333.010 50.299,334.627 51.940 M343.284 60.124 C 343.284 60.573,342.748 60.099,340.274 57.463 L 337.612 54.627 340.448 57.288 C 342.007 58.752,343.284 60.028,343.284 60.124 M103.284 104.478 L 77.910 104.796 103.904 104.935 C 134.927 105.102,136.884 105.418,144.361 111.482 C 145.775 112.628,147.069 113.429,147.237 113.260 C 147.406 113.092,145.712 111.672,143.473 110.105 C 138.542 106.653,137.370 105.584,140.597 107.482 C 144.306 109.662,148.014 112.848,147.748 113.625 C 147.616 114.012,148.339 115.269,149.355 116.418 C 150.371 117.567,150.992 118.104,150.736 117.612 C 150.480 117.119,149.712 116.097,149.030 115.340 C 148.250 114.474,148.116 114.092,148.671 114.308 C 149.156 114.498,150.178 115.617,150.944 116.794 C 151.709 117.972,152.045 118.756,151.690 118.537 C 150.811 117.994,150.910 118.877,151.869 120.140 C 152.302 120.709,152.845 120.986,153.076 120.755 C 153.307 120.524,153.302 120.841,153.064 121.459 C 152.741 122.302,152.831 122.462,153.424 122.095 C 153.912 121.793,154.071 121.839,153.839 122.215 C 153.632 122.549,153.993 123.921,154.642 125.263 C 155.290 126.605,155.825 128.052,155.830 128.479 C 155.837 129.034,156.003 129.000,156.418 128.358 C 157.051 127.379,157.244 128.288,157.054 131.343 C 156.979 132.555,157.082 132.667,157.603 131.940 C 158.093 131.257,158.150 131.455,157.842 132.776 C 157.530 134.111,157.615 134.397,158.214 134.027 C 158.726 133.710,158.845 133.781,158.564 134.236 C 158.330 134.615,158.346 135.261,158.599 135.671 C 158.853 136.082,158.980 137.186,158.881 138.127 C 158.774 139.146,158.941 139.688,159.295 139.470 C 159.640 139.256,159.765 139.574,159.594 140.230 C 159.432 140.850,159.582 141.533,159.928 141.747 C 160.275 141.961,160.405 142.899,160.219 143.831 C 160.028 144.788,160.166 145.704,160.537 145.933 C 160.898 146.156,161.190 146.659,161.185 147.050 C 161.179 147.484,160.938 147.412,160.566 146.866 C 159.865 145.836,160.437 150.116,161.205 151.642 C 161.778 152.781,161.539 174.823,160.936 176.418 C 160.576 177.370,160.615 177.431,161.129 176.716 C 161.953 175.570,162.058 177.706,161.281 179.812 C 160.441 182.085,159.888 186.710,160.579 185.672 C 161.095 184.898,161.177 184.913,161.185 185.786 C 161.190 186.341,160.896 186.979,160.533 187.204 C 160.125 187.456,160.011 188.487,160.235 189.890 C 160.458 191.281,160.345 192.324,159.945 192.571 C 159.585 192.794,159.411 193.608,159.559 194.380 C 159.707 195.153,159.602 195.645,159.326 195.475 C 159.050 195.304,158.929 196.252,159.057 197.582 C 159.185 198.912,159.035 200.157,158.725 200.349 C 158.414 200.540,158.323 201.279,158.522 201.991 C 158.820 203.055,158.763 203.125,158.199 202.388 C 157.660 201.685,157.584 202.006,157.844 203.881 C 158.088 205.640,158.011 206.033,157.553 205.373 C 157.078 204.690,156.985 204.929,157.163 206.386 C 157.291 207.436,157.180 208.161,156.915 207.998 C 156.651 207.835,156.529 208.514,156.645 209.508 C 156.774 210.620,156.623 211.171,156.251 210.942 C 155.864 210.702,155.792 211.190,156.050 212.299 C 156.346 213.567,156.292 213.790,155.848 213.134 C 155.259 212.263,154.965 213.324,155.063 215.970 C 155.079 216.381,154.881 216.716,154.624 216.716 C 154.368 216.716,153.998 217.133,153.802 217.643 C 153.562 218.269,153.686 218.429,154.186 218.137 C 154.593 217.900,154.493 218.222,153.965 218.853 C 152.648 220.426,151.423 224.081,152.412 223.488 C 152.952 223.164,152.947 223.286,152.393 223.970 C 151.986 224.474,151.851 225.106,152.095 225.375 C 152.338 225.643,152.159 225.644,151.697 225.375 C 151.052 225.001,150.935 225.187,151.194 226.176 C 151.412 227.010,151.304 227.324,150.888 227.067 C 150.477 226.813,150.387 227.040,150.638 227.694 C 150.855 228.259,150.786 228.567,150.484 228.381 C 149.774 227.942,149.046 230.225,149.606 231.132 C 149.873 231.564,149.775 231.665,149.346 231.400 C 148.730 231.020,148.388 231.733,148.586 232.985 C 148.625 233.231,148.394 233.433,148.072 233.433 C 147.213 233.433,144.959 238.136,145.443 238.919 C 145.681 239.304,145.588 239.422,145.225 239.198 C 144.564 238.789,141.804 242.898,142.364 243.458 C 142.541 243.636,142.693 243.535,142.700 243.234 C 142.707 242.933,143.274 242.015,143.959 241.194 L 145.204 239.701 144.030 241.695 C 143.384 242.792,142.725 243.598,142.565 243.486 C 142.144 243.194,140.299 244.819,140.299 245.481 C 140.299 245.789,140.609 245.849,140.988 245.615 C 141.418 245.349,141.515 245.451,141.245 245.888 C 141.007 246.272,140.593 246.451,140.325 246.285 C 139.690 245.893,138.309 247.554,138.719 248.218 C 139.307 249.170,130.416 257.910,128.859 257.910 C 128.485 257.910,129.319 257.085,130.712 256.075 C 132.105 255.066,133.104 254.099,132.931 253.926 C 132.445 253.440,127.761 257.411,127.761 258.309 C 127.761 258.746,127.477 259.104,127.129 259.104 C 126.781 259.104,126.653 258.852,126.843 258.544 C 127.033 258.236,125.504 258.684,123.445 259.540 L 119.701 261.096 103.731 260.954 C 92.220 260.852,87.761 261.000,87.761 261.483 C 87.761 261.968,92.081 262.104,103.284 261.973 C 111.822 261.873,118.807 261.993,118.806 262.239 C 118.806 262.485,111.697 262.687,103.008 262.687 L 87.211 262.687 87.166 265.522 C 87.083 270.841,86.866 273.319,86.505 273.096 C 86.306 272.973,86.146 273.603,86.150 274.496 C 86.154 275.389,85.975 277.060,85.753 278.209 C 85.435 279.860,85.481 280.048,85.971 279.104 C 86.514 278.060,86.542 278.097,86.197 279.403 C 85.980 280.224,85.698 282.239,85.570 283.881 C 85.442 285.522,85.198 288.343,85.027 290.149 C 84.857 291.955,84.663 294.549,84.597 295.913 C 84.531 297.277,84.303 298.285,84.089 298.153 C 83.645 297.879,83.458 300.327,83.401 307.164 C 83.374 310.294,83.205 311.426,82.909 310.448 C 82.605 309.444,82.480 310.182,82.527 312.701 C 82.566 314.762,82.330 316.715,82.003 317.042 C 80.822 318.223,55.959 317.487,55.781 316.266 C 55.690 315.648,55.890 315.380,56.267 315.613 C 56.709 315.887,56.802 314.827,56.569 312.183 C 56.353 309.732,56.415 308.894,56.740 309.851 C 57.145 311.040,57.239 310.737,57.206 308.358 C 57.183 306.716,57.345 304.945,57.566 304.421 C 57.787 303.897,57.859 302.091,57.726 300.409 C 57.593 298.726,57.721 297.495,58.009 297.673 C 58.297 297.851,58.522 297.238,58.509 296.312 C 58.496 295.385,58.646 292.881,58.842 290.746 C 59.643 282.022,59.761 280.771,60.052 277.910 C 60.219 276.269,60.410 273.809,60.476 272.445 C 60.543 271.081,60.788 270.083,61.022 270.228 C 61.256 270.372,61.473 269.742,61.504 268.827 C 61.535 267.913,61.618 264.881,61.689 262.090 C 61.760 259.299,62.017 256.698,62.261 256.311 C 62.505 255.925,62.700 254.447,62.696 253.028 C 62.681 248.417,62.974 246.077,63.524 246.417 C 63.836 246.610,63.926 245.138,63.738 242.927 C 63.548 240.691,63.617 239.600,63.903 240.299 C 64.391 241.487,64.420 241.245,64.853 232.239 C 64.924 230.761,65.244 228.545,65.563 227.313 C 65.882 226.082,65.924 225.075,65.657 225.075 C 65.390 225.075,65.433 224.125,65.753 222.965 C 66.074 221.804,66.158 220.293,65.940 219.606 C 65.711 218.886,65.780 218.504,66.103 218.704 C 66.423 218.902,66.710 217.468,66.773 215.345 C 66.835 213.308,67.020 210.164,67.184 208.358 C 67.349 206.552,67.546 204.093,67.623 202.893 C 67.699 201.693,67.943 200.824,68.166 200.961 C 68.389 201.099,68.510 199.613,68.436 197.660 C 68.356 195.528,68.529 194.250,68.871 194.461 C 69.221 194.677,69.311 193.455,69.105 191.287 C 68.881 188.925,68.951 188.155,69.316 188.955 C 69.685 189.760,69.789 188.690,69.637 185.672 C 69.502 183.003,69.608 181.676,69.898 182.388 C 70.206 183.141,70.324 182.195,70.219 179.829 C 70.127 177.765,70.264 176.419,70.523 176.838 C 70.782 177.257,70.938 175.949,70.869 173.931 C 70.800 171.913,70.969 170.401,71.244 170.571 C 71.520 170.741,71.684 169.977,71.611 168.873 C 71.537 167.769,71.625 166.463,71.806 165.970 C 72.571 163.890,72.845 160.880,72.186 161.791 C 71.685 162.484,71.638 162.349,71.979 161.194 C 72.389 159.805,72.707 156.833,73.009 151.550 C 73.078 150.350,73.321 149.483,73.548 149.623 C 73.776 149.764,73.933 149.000,73.898 147.925 C 73.863 146.850,74.016 145.164,74.239 144.179 C 74.571 142.717,74.532 142.608,74.027 143.582 C 73.489 144.621,73.461 144.582,73.812 143.284 C 74.034 142.463,74.254 140.582,74.300 139.104 C 74.347 137.627,74.603 135.946,74.870 135.369 C 75.137 134.792,75.198 133.314,75.005 132.085 C 74.756 130.496,74.811 130.196,75.194 131.045 C 75.576 131.890,75.702 131.166,75.628 128.564 C 75.570 126.543,75.697 124.997,75.911 125.130 C 76.361 125.408,76.540 123.343,76.630 116.856 C 76.668 114.085,76.881 112.643,77.159 113.274 C 77.414 113.854,77.522 112.313,77.398 109.851 C 77.256 107.045,77.362 105.819,77.681 106.567 C 78.140 107.644,78.184 107.614,78.133 106.269 C 78.102 105.448,78.107 104.575,78.143 104.328 C 78.179 104.082,89.560 103.943,103.433 104.020 L 128.657 104.160 103.284 104.478 M134.203 104.751 C 134.913 105.460,133.911 105.428,131.642 104.668 L 129.254 103.869 131.567 104.148 C 132.839 104.301,134.025 104.572,134.203 104.751 M232.133 105.857 C 235.933 107.718,235.722 108.122,231.781 106.531 C 229.898 105.772,227.586 105.011,226.643 104.840 C 223.782 104.323,223.984 103.713,226.866 104.168 C 228.343 104.401,230.714 105.161,232.133 105.857 M321.791 106.332 C 324.254 107.516,326.940 109.090,327.761 109.829 L 329.254 111.175 327.514 110.136 C 317.642 104.244,319.528 104.508,288.184 104.627 L 261.194 104.730 288.657 105.079 C 319.186 105.467,319.000 105.443,325.365 109.667 C 327.166 110.863,328.979 111.841,329.394 111.841 C 329.810 111.841,330.017 111.973,329.856 112.134 C 329.425 112.565,330.803 114.065,331.331 113.739 C 331.578 113.586,332.287 114.059,332.905 114.790 L 334.030 116.119 332.687 114.982 C 331.948 114.357,331.343 114.140,331.343 114.501 C 331.343 114.861,332.432 116.045,333.762 117.130 C 335.868 118.850,339.159 123.849,339.076 125.204 C 339.060 125.461,338.250 124.127,337.275 122.239 C 336.301 120.351,335.370 118.806,335.207 118.806 C 335.044 118.806,335.857 120.687,337.015 122.985 C 338.172 125.284,339.385 127.164,339.709 127.164 C 340.033 127.164,340.299 127.449,340.299 127.796 C 340.299 128.144,340.055 128.278,339.757 128.094 C 339.459 127.910,339.362 128.320,339.541 129.005 C 339.792 129.963,339.990 130.067,340.399 129.453 C 340.734 128.953,340.782 129.301,340.528 130.388 C 340.244 131.606,340.325 131.995,340.802 131.700 C 341.237 131.430,341.352 131.612,341.123 132.208 C 340.928 132.717,341.057 133.134,341.410 133.134 C 341.764 133.134,341.881 133.581,341.671 134.128 C 341.447 134.712,341.533 134.971,341.880 134.756 C 342.239 134.535,342.379 135.141,342.238 136.300 C 342.060 137.757,342.152 137.997,342.627 137.313 C 343.086 136.654,343.163 137.047,342.919 138.806 C 342.673 140.580,342.750 140.964,343.217 140.299 C 343.682 139.637,343.749 140.012,343.472 141.735 C 343.249 143.121,343.323 143.927,343.654 143.722 C 343.978 143.522,344.142 144.668,344.047 146.465 C 343.957 148.163,344.098 149.221,344.359 148.817 C 344.891 147.992,344.868 147.530,345.163 164.776 C 345.279 171.507,345.209 176.075,345.007 174.925 C 344.806 173.776,344.680 175.442,344.726 178.627 C 344.772 181.812,344.600 184.095,344.344 183.701 C 344.088 183.307,343.989 184.731,344.124 186.866 C 344.294 189.544,344.199 190.376,343.817 189.552 C 343.432 188.721,343.340 189.446,343.515 191.940 C 343.689 194.413,343.597 195.153,343.219 194.328 C 342.827 193.473,342.740 193.961,342.913 196.051 C 343.075 197.999,342.968 198.693,342.592 198.140 C 342.209 197.578,342.113 198.027,342.291 199.546 C 342.463 201.006,342.337 201.646,341.929 201.393 C 341.542 201.154,341.423 201.459,341.614 202.193 C 341.785 202.844,341.559 203.878,341.111 204.490 C 340.094 205.881,340.059 206.782,341.045 206.189 C 341.577 205.870,341.562 206.023,340.993 206.725 C 340.555 207.266,340.358 207.971,340.555 208.291 C 340.753 208.611,340.631 209.048,340.284 209.263 C 339.937 209.477,339.816 210.235,340.015 210.946 C 340.312 212.008,340.255 212.079,339.694 211.343 C 339.142 210.619,339.062 210.765,339.276 212.104 C 339.422 213.015,339.290 213.915,338.984 214.104 C 338.677 214.294,338.576 214.839,338.758 215.315 C 338.969 215.864,338.840 216.026,338.407 215.759 C 337.941 215.471,337.830 215.748,338.059 216.624 C 338.273 217.441,338.167 217.770,337.768 217.524 C 337.351 217.266,337.275 217.718,337.543 218.866 C 337.777 219.868,337.734 220.280,337.442 219.845 C 336.986 219.166,334.712 224.666,334.635 226.636 C 334.621 227.001,334.254 227.728,333.820 228.251 C 333.386 228.774,333.231 229.523,333.474 229.917 C 333.743 230.352,333.663 230.476,333.270 230.233 C 332.487 229.749,331.689 231.946,332.293 232.923 C 332.579 233.387,332.459 233.455,331.931 233.129 C 331.352 232.771,331.246 232.914,331.533 233.664 C 331.798 234.355,331.701 234.549,331.235 234.261 C 330.769 233.973,330.672 234.168,330.936 234.858 C 331.201 235.549,331.104 235.744,330.638 235.455 C 330.172 235.167,330.075 235.362,330.339 236.052 C 330.604 236.743,330.507 236.938,330.041 236.649 C 329.594 236.373,329.471 236.540,329.694 237.120 C 329.884 237.614,329.770 238.397,329.441 238.860 C 328.985 239.502,328.927 239.418,329.199 238.507 C 329.546 237.345,329.532 237.344,328.677 238.446 C 328.194 239.069,327.941 239.808,328.114 240.088 C 328.287 240.368,327.943 240.601,327.349 240.606 C 326.433 240.614,326.405 240.703,327.164 241.194 C 327.929 241.689,327.908 241.774,327.015 241.782 C 326.440 241.787,325.970 242.076,325.970 242.423 C 325.970 242.771,326.280 242.864,326.659 242.630 C 327.090 242.364,327.186 242.466,326.917 242.903 C 326.679 243.287,326.274 243.471,326.017 243.312 C 325.759 243.153,324.706 244.196,323.676 245.631 C 322.646 247.065,320.189 249.789,318.217 251.683 C 316.244 253.578,314.765 255.262,314.928 255.426 C 315.345 255.843,313.390 257.913,312.594 257.897 C 312.234 257.890,312.612 257.359,313.433 256.716 C 315.585 255.033,314.408 255.255,311.707 257.043 C 305.947 260.855,304.499 261.084,287.057 260.945 L 271.130 260.818 270.716 263.576 C 270.489 265.092,270.452 267.729,270.634 269.435 C 270.853 271.486,270.797 272.032,270.467 271.045 C 270.111 269.979,269.952 270.919,269.912 274.328 C 269.830 281.221,269.615 283.507,269.082 283.178 C 268.824 283.018,268.615 283.783,268.617 284.877 C 268.621 286.695,268.437 289.177,267.674 297.612 C 267.525 299.254,267.350 301.713,267.284 303.077 C 267.218 304.441,266.920 305.407,266.622 305.223 C 266.324 305.039,266.235 305.479,266.424 306.201 C 266.613 306.924,266.538 308.314,266.258 309.291 C 265.946 310.378,265.965 310.934,266.307 310.723 C 266.614 310.533,266.866 310.812,266.866 311.343 C 266.866 311.876,266.580 312.133,266.229 311.916 C 265.878 311.699,265.642 311.885,265.702 312.328 C 265.763 312.772,265.781 313.873,265.742 314.776 L 265.672 316.418 252.687 316.550 L 239.701 316.681 252.836 317.021 L 265.970 317.361 252.858 317.337 L 239.746 317.313 239.877 314.627 C 240.162 308.809,240.315 307.587,240.729 307.843 C 240.965 307.989,241.062 306.418,240.944 304.353 C 240.797 301.787,240.899 300.975,241.267 301.791 C 241.628 302.590,241.728 301.603,241.572 298.806 C 241.435 296.365,241.537 295.124,241.815 295.821 C 242.123 296.591,242.314 295.424,242.353 292.537 C 242.458 284.786,242.610 282.975,243.089 283.742 C 243.342 284.147,243.469 282.812,243.371 280.775 C 243.273 278.739,243.415 277.210,243.686 277.378 C 243.957 277.545,244.235 276.525,244.302 275.110 C 244.370 273.695,244.521 271.328,244.639 269.851 C 244.756 268.373,244.981 265.552,245.139 263.582 C 245.296 261.612,245.461 259.140,245.505 258.090 C 245.549 257.039,245.746 256.279,245.943 256.401 C 246.140 256.523,246.376 254.831,246.466 252.640 C 246.556 250.449,246.683 247.448,246.748 245.970 C 246.813 244.493,247.071 242.967,247.322 242.580 C 247.573 242.193,247.777 240.716,247.776 239.297 C 247.771 234.626,248.053 231.752,248.490 232.022 C 248.979 232.324,249.127 230.428,249.151 223.582 C 249.162 220.477,249.326 219.328,249.620 220.299 C 249.889 221.184,249.997 219.969,249.886 217.313 C 249.779 214.736,249.898 213.342,250.168 214.030 C 250.461 214.778,250.600 213.850,250.540 211.549 C 250.488 209.527,250.660 208.006,250.922 208.168 C 251.183 208.330,251.403 207.431,251.409 206.171 C 251.428 202.140,251.849 197.978,252.486 195.522 C 253.280 192.465,253.277 191.715,252.476 192.836 C 251.986 193.523,251.940 193.383,252.281 192.239 C 252.526 191.418,252.738 189.744,252.752 188.518 C 252.769 187.072,252.963 186.548,253.303 187.025 C 253.630 187.484,253.697 187.158,253.480 186.161 C 253.289 185.281,253.401 183.855,253.729 182.992 C 254.124 181.952,254.125 181.548,253.730 181.792 C 253.402 181.994,253.134 181.725,253.134 181.194 C 253.134 180.663,253.371 180.374,253.661 180.553 C 253.950 180.732,254.114 179.338,254.026 177.454 C 253.937 175.571,254.108 173.728,254.406 173.358 C 254.704 172.989,254.949 171.511,254.952 170.075 C 254.960 164.472,255.171 162.416,255.662 163.145 C 255.937 163.553,256.045 162.022,255.905 159.701 C 255.736 156.915,255.831 155.920,256.191 156.716 C 256.553 157.517,256.654 156.534,256.497 153.731 C 256.349 151.079,256.450 149.988,256.775 150.746 C 257.153 151.628,257.270 151.238,257.223 149.254 C 257.188 147.776,257.341 146.139,257.563 145.615 C 257.786 145.091,257.859 143.285,257.726 141.603 C 257.593 139.920,257.710 138.682,257.985 138.852 C 258.259 139.022,258.450 138.141,258.407 136.894 C 258.365 135.647,258.479 134.090,258.661 133.433 C 259.619 129.980,259.788 128.671,259.162 129.552 C 258.609 130.330,258.525 130.315,258.517 129.438 C 258.512 128.883,258.783 128.258,259.120 128.050 C 259.457 127.842,259.726 126.415,259.718 124.880 C 259.710 123.345,259.850 120.746,260.029 119.104 C 260.208 117.463,260.410 115.003,260.476 113.639 C 260.543 112.275,260.767 111.264,260.975 111.392 C 261.182 111.520,261.367 110.556,261.385 109.249 C 261.403 107.942,261.610 106.561,261.846 106.180 C 262.112 105.749,262.013 105.648,261.585 105.913 C 260.840 106.373,260.611 104.962,261.316 104.257 C 261.547 104.026,274.241 103.914,289.525 104.008 L 317.313 104.179 321.791 106.332 M137.390 106.068 C 138.139 106.976,138.082 106.995,136.716 106.286 C 134.715 105.245,134.564 105.075,135.648 105.075 C 136.155 105.075,136.939 105.522,137.390 106.068 M241.735 113.925 C 242.098 114.603,242.688 115.339,243.048 115.561 C 243.516 115.851,243.514 115.615,243.041 114.732 C 242.679 114.054,242.088 113.318,241.728 113.096 C 241.260 112.806,241.262 113.041,241.735 113.925 M99.701 144.330 C 99.701 144.986,99.571 146.429,99.411 147.537 C 99.152 149.335,99.183 149.392,99.698 148.060 C 100.230 146.687,100.247 146.711,99.915 148.358 C 99.717 149.343,99.522 151.266,99.482 152.632 C 99.442 153.997,99.195 154.981,98.931 154.818 C 98.668 154.656,98.557 155.285,98.684 156.216 C 98.812 157.148,98.704 158.716,98.445 159.701 C 98.186 160.687,97.836 164.254,97.667 167.630 C 97.499 171.006,97.222 174.767,97.051 175.988 C 96.790 177.868,96.830 177.980,97.315 176.716 C 97.840 175.349,97.858 175.374,97.526 177.015 C 97.327 178.000,97.131 179.922,97.090 181.286 C 97.048 182.650,96.804 183.636,96.545 183.476 C 96.287 183.317,96.103 184.081,96.138 185.175 C 96.172 186.269,95.921 189.851,95.580 193.134 C 95.240 196.418,94.982 200.045,95.007 201.194 C 95.033 202.343,94.792 204.425,94.473 205.821 C 94.153 207.216,94.100 208.358,94.355 208.358 C 94.609 208.358,94.476 209.829,94.058 211.626 C 93.640 213.424,93.530 214.751,93.813 214.576 C 94.097 214.401,94.328 214.693,94.328 215.224 C 94.328 215.755,94.127 216.067,93.881 215.916 C 93.634 215.766,93.381 216.611,93.317 217.795 C 93.254 218.979,93.047 220.564,92.858 221.317 L 92.515 222.687 101.332 222.680 C 111.440 222.673,119.361 220.821,118.653 218.632 C 118.573 218.384,119.716 217.143,121.194 215.874 L 123.881 213.566 121.366 216.037 C 118.789 218.569,118.631 218.963,120.614 217.901 C 121.816 217.258,125.199 212.665,125.495 211.275 C 125.592 210.820,126.165 210.081,126.768 209.632 C 127.417 209.148,127.744 208.357,127.570 207.691 C 127.387 206.993,127.517 206.715,127.911 206.958 C 128.318 207.210,128.425 206.888,128.209 206.063 C 128.024 205.354,128.094 204.912,128.366 205.079 C 129.032 205.491,130.347 201.377,129.912 200.243 C 129.690 199.664,129.811 199.492,130.249 199.763 C 130.738 200.065,130.821 199.605,130.542 198.153 C 130.254 196.655,130.314 196.355,130.772 197.015 C 131.242 197.692,131.327 197.437,131.121 195.967 C 130.941 194.681,131.066 194.157,131.489 194.418 C 131.901 194.673,132.009 194.356,131.792 193.527 C 131.607 192.819,131.726 192.073,132.056 191.868 C 132.387 191.664,132.505 190.734,132.319 189.801 C 132.130 188.861,132.266 187.929,132.623 187.708 C 133.002 187.474,133.123 186.424,132.919 185.148 C 132.689 183.721,132.757 183.283,133.118 183.862 C 133.504 184.482,133.633 184.132,133.557 182.668 C 133.498 181.529,133.655 179.791,133.907 178.806 C 134.236 177.519,134.194 177.267,133.759 177.910 C 133.265 178.640,133.151 178.551,133.143 177.427 C 133.138 176.669,133.337 176.174,133.584 176.327 C 133.832 176.480,134.123 173.302,134.232 169.265 C 134.358 164.607,134.203 161.784,133.808 161.540 C 133.466 161.329,133.330 160.782,133.505 160.326 C 133.680 159.870,133.507 158.906,133.121 158.184 C 132.656 157.316,132.638 157.007,133.068 157.272 C 133.483 157.529,133.593 157.285,133.372 156.598 C 132.678 154.439,131.750 152.883,131.316 153.151 C 131.071 153.302,130.712 153.011,130.517 152.503 C 130.297 151.928,130.408 151.731,130.813 151.981 C 131.253 152.254,131.242 151.970,130.776 151.100 C 130.398 150.395,129.853 149.964,129.564 150.142 C 129.274 150.321,128.843 150.153,128.606 149.768 C 128.336 149.332,128.433 149.229,128.863 149.495 C 130.106 150.263,129.584 148.895,128.104 147.504 C 127.307 146.756,126.396 146.304,126.078 146.501 C 125.760 146.697,124.363 146.456,122.974 145.966 C 121.116 145.311,117.781 145.075,110.373 145.075 C 103.257 145.075,100.299 144.876,100.299 144.397 C 100.299 143.213,121.019 144.037,123.488 145.320 C 124.586 145.890,125.635 146.206,125.819 146.022 C 127.108 144.733,120.883 143.665,110.597 143.409 C 100.014 143.145,99.701 143.172,99.701 144.330 M283.405 143.683 C 283.225 143.975,282.888 147.430,282.656 151.360 C 282.424 155.291,282.138 159.716,282.021 161.194 C 281.904 162.672,281.687 165.627,281.539 167.761 C 281.391 169.896,280.996 172.851,280.661 174.328 C 279.911 177.636,279.879 179.282,280.597 177.612 C 281.272 176.040,281.343 177.433,280.678 179.215 C 280.395 179.975,280.005 181.940,279.813 183.582 C 279.555 185.787,279.609 186.177,280.019 185.075 C 280.521 183.727,280.540 183.756,280.213 185.373 C 280.014 186.358,279.817 188.280,279.776 189.644 C 279.735 191.009,279.522 192.014,279.303 191.878 C 279.083 191.743,278.979 193.582,279.072 195.965 C 279.171 198.533,279.047 199.812,278.766 199.104 C 278.313 197.962,278.221 198.827,277.906 207.164 C 277.863 208.313,277.658 210.597,277.451 212.239 C 277.178 214.409,277.227 214.816,277.631 213.731 C 278.133 212.384,278.152 212.413,277.825 214.030 C 277.626 215.015,277.429 216.937,277.388 218.301 C 277.347 219.665,277.112 220.657,276.866 220.505 C 276.619 220.353,276.418 220.781,276.418 221.457 C 276.418 223.284,292.320 223.313,297.602 221.496 C 301.442 220.175,306.506 216.405,306.047 215.210 C 305.723 214.364,307.641 212.317,308.217 212.894 C 308.415 213.091,309.266 211.892,310.109 210.228 C 311.616 207.255,312.180 205.408,311.045 207.164 C 310.681 207.727,310.463 207.790,310.457 207.334 C 310.452 206.936,310.952 206.340,311.567 206.010 C 312.183 205.681,312.830 204.865,313.004 204.197 C 313.217 203.384,313.093 203.116,312.631 203.385 C 312.251 203.606,312.374 203.271,312.905 202.640 C 313.435 202.009,314.053 200.687,314.277 199.701 C 314.500 198.716,314.823 197.373,314.993 196.716 C 315.244 195.745,315.185 195.690,314.675 196.418 C 313.657 197.873,313.942 196.510,314.991 194.909 C 315.575 194.018,315.858 192.635,315.713 191.389 C 315.581 190.261,315.684 189.468,315.942 189.627 C 316.199 189.786,316.409 189.297,316.408 188.540 C 316.407 187.783,316.666 185.015,316.984 182.388 C 317.302 179.761,317.573 174.522,317.587 170.746 C 317.601 166.970,317.620 162.926,317.630 161.760 C 317.650 159.131,315.596 152.333,314.299 150.738 C 313.458 149.703,313.379 149.689,313.676 150.628 C 313.882 151.281,313.775 151.555,313.402 151.324 C 313.064 151.115,312.964 150.389,313.179 149.710 C 313.484 148.748,313.362 148.556,312.625 148.839 C 312.105 149.038,311.504 148.917,311.289 148.569 C 309.416 145.538,285.171 143.102,283.941 145.821 C 283.755 146.231,283.669 146.030,283.749 145.373 C 284.111 142.412,305.183 143.668,309.839 146.928 C 311.896 148.369,312.254 148.495,311.343 147.457 C 308.503 144.218,285.034 141.048,283.405 143.683 M220.205 145.290 C 221.302 145.877,222.081 146.476,221.935 146.622 C 221.790 146.768,220.891 146.481,219.940 145.985 C 218.571 145.271,215.805 145.081,206.716 145.078 C 198.720 145.076,195.224 144.874,195.224 144.414 C 195.224 143.206,217.785 143.997,220.205 145.290 M344.616 155.821 C 344.616 156.970,344.739 157.440,344.889 156.866 C 345.039 156.291,345.039 155.351,344.889 154.776 C 344.739 154.201,344.616 154.672,344.616 155.821 M302.821 217.950 C 298.243 221.316,294.814 222.103,285.239 221.983 L 276.716 221.876 285.672 221.472 C 290.597 221.250,295.440 220.797,296.435 220.465 C 298.994 219.610,303.133 217.442,303.577 216.725 C 303.783 216.392,304.257 216.119,304.630 216.119 C 305.004 216.119,304.190 216.943,302.821 217.950 M116.154 219.646 C 115.161 221.253,110.049 222.087,101.834 221.983 L 93.433 221.876 102.388 221.483 C 108.356 221.221,112.140 220.772,113.731 220.139 C 116.673 218.968,116.558 218.992,116.154 219.646 M324.367 246.554 C 323.443 247.861,322.472 248.935,322.211 248.942 C 321.949 248.949,322.598 247.881,323.654 246.567 C 326.122 243.496,326.536 243.489,324.367 246.554 M135.497 251.149 C 133.732 252.999,133.456 253.452,134.677 252.492 C 136.342 251.183,138.859 248.358,138.361 248.358 C 138.250 248.358,136.961 249.614,135.497 251.149 M320.597 250.928 C 320.597 251.027,319.590 252.035,318.358 253.166 L 316.119 255.224 318.177 252.985 C 320.092 250.901,320.597 250.472,320.597 250.928 M125.377 259.996 C 124.637 260.887,120.107 262.395,119.623 261.912 C 119.432 261.720,123.883 259.775,125.894 259.171 C 126.016 259.135,125.784 259.506,125.377 259.996 M307.845 260.581 C 305.421 262.417,271.643 263.964,271.641 262.239 C 271.641 261.993,278.290 261.859,286.417 261.942 C 299.583 262.077,301.584 261.969,304.776 260.952 C 309.181 259.548,309.213 259.544,307.845 260.581 M228.101 262.548 C 220.736 262.637,214.503 262.503,214.250 262.251 C 213.996 261.998,220.022 261.925,227.641 262.089 L 241.493 262.386 228.101 262.548 M68.955 316.418 L 55.821 316.752 68.771 316.883 C 76.905 316.966,81.858 316.793,82.090 316.418 C 82.292 316.090,82.376 315.880,82.274 315.953 C 82.173 316.025,76.179 316.234,68.955 316.418 M66.269 346.143 C 66.269 346.529,59.560 340.595,57.910 338.749 C 57.090 337.831,58.634 339.064,61.343 341.489 C 64.052 343.915,66.269 346.009,66.269 346.143 M343.284 337.483 C 343.284 337.576,341.739 339.121,339.851 340.916 L 336.418 344.179 339.681 340.746 C 342.713 337.557,343.284 337.040,343.284 337.483 M71.381 350.597 L 73.134 352.537 71.194 350.784 C 69.385 349.149,68.979 348.657,69.441 348.657 C 69.543 348.657,70.416 349.530,71.381 350.597 M330.746 348.844 C 330.746 348.946,329.873 349.819,328.806 350.784 L 326.866 352.537 328.619 350.597 C 330.254 348.788,330.746 348.382,330.746 348.844 M326.567 352.487 C 326.567 352.624,325.425 353.589,324.030 354.633 L 321.493 356.531 323.881 354.394 C 326.296 352.232,326.567 352.040,326.567 352.487 M283.582 379.403 C 282.761 379.872,281.821 380.256,281.493 380.256 C 281.164 380.256,281.567 379.872,282.388 379.403 C 283.209 378.934,284.149 378.550,284.478 378.550 C 284.806 378.550,284.403 378.934,283.582 379.403 M277.612 381.920 C 277.119 382.103,275.978 382.626,275.075 383.082 C 274.172 383.538,273.433 383.779,273.433 383.616 C 273.433 383.123,276.657 381.539,277.612 381.564 C 278.408 381.584,278.408 381.624,277.612 381.920 M266.866 385.912 C 266.866 386.044,266.060 386.433,265.075 386.776 C 263.001 387.499,262.628 387.091,264.627 386.287 C 266.139 385.679,266.866 385.558,266.866 385.912 M197.463 397.443 C 196.560 397.579,195.082 397.579,194.179 397.443 C 193.276 397.306,194.015 397.194,195.821 397.194 C 197.627 397.194,198.366 397.306,197.463 397.443 M205.821 397.443 C 204.918 397.579,203.440 397.579,202.537 397.443 C 201.634 397.306,202.373 397.194,204.179 397.194 C 205.985 397.194,206.724 397.306,205.821 397.443 " stroke="none" fill="#3b2f2f" fill-rule="evenodd"></path></g></svg>
