<svg id="svg" xmlns="http://www.w3.org/2000/svg" xmlns:xlink="http://www.w3.org/1999/xlink" width="400" height="400" viewBox="0, 0, 400,400"><g id="svgg"><path id="path0" d="M276.190 1.037 C 271.784 1.403,262.050 2.783,254.887 4.059 C 253.233 4.353,249.431 5.270,246.438 6.095 C 240.495 7.735,240.607 7.735,229.574 6.187 C 220.576 4.926,198.601 4.910,192.231 6.160 C 189.749 6.647,186.366 7.177,184.712 7.337 C 180.566 7.737,170.970 11.022,164.250 14.340 L 158.647 17.107 155.138 16.068 C 137.509 10.851,124.980 8.112,116.040 7.521 C 112.732 7.302,106.260 6.851,101.658 6.519 C 95.150 6.049,91.585 6.048,85.618 6.514 C 81.398 6.844,76.366 7.214,74.436 7.336 C 63.515 8.030,45.642 14.526,37.251 20.852 C 36.374 21.514,35.427 22.055,35.147 22.055 C 33.971 22.055,26.219 29.154,21.736 34.336 C 4.268 54.527,-3.420 89.767,2.270 123.559 C 2.688 126.040,3.138 128.860,3.269 129.825 C 3.401 130.789,3.628 132.456,3.774 133.528 C 3.920 134.600,4.692 138.435,5.490 142.049 C 6.288 145.664,7.078 149.411,7.247 150.376 C 7.415 151.341,7.633 152.581,7.731 153.133 C 8.497 157.442,14.217 179.755,17.626 191.729 C 20.793 202.852,28.168 225.137,30.050 229.269 C 30.615 230.509,31.078 231.675,31.078 231.861 C 31.078 233.528,41.637 256.157,45.291 262.322 C 46.572 264.481,47.619 266.335,47.619 266.441 C 47.619 266.849,51.757 273.031,53.282 274.900 C 59.810 282.901,62.569 285.987,64.358 287.287 C 65.490 288.109,67.647 289.675,69.152 290.767 C 82.414 300.391,99.436 300.431,112.227 290.869 C 114.887 288.882,115.273 288.854,116.830 290.537 C 120.277 294.264,131.245 300.116,136.341 300.948 C 137.306 301.105,140.351 301.687,143.108 302.241 C 155.762 304.782,171.636 303.605,182.280 299.336 L 184.860 298.301 185.155 299.401 C 185.317 300.006,185.456 303.095,185.464 306.266 C 185.481 312.671,186.662 331.377,187.443 337.594 C 187.721 339.799,188.069 343.002,188.218 344.711 C 189.803 362.919,202.038 386.802,212.873 392.840 C 226.907 400.661,238.169 401.745,257.895 397.173 C 258.446 397.046,259.461 396.832,260.150 396.699 C 272.087 394.389,283.993 388.094,292.617 379.532 C 298.250 373.940,297.502 374.953,303.746 364.448 C 305.321 361.799,310.162 349.373,310.596 346.867 C 310.715 346.178,311.023 344.937,311.280 344.110 C 311.537 343.283,312.192 340.576,312.735 338.095 C 313.632 334.003,313.944 332.146,314.507 327.569 C 314.609 326.742,315.038 323.358,315.460 320.050 C 316.459 312.215,316.734 308.877,317.276 297.995 C 317.523 293.033,317.857 288.634,318.018 288.221 C 318.263 287.591,319.799 287.466,327.451 287.455 C 332.478 287.447,338.396 287.161,340.602 286.820 C 342.807 286.478,345.288 286.102,346.115 285.984 C 346.942 285.866,348.634 285.619,349.875 285.435 C 356.635 284.431,371.177 278.942,376.301 275.461 C 377.333 274.759,378.483 274.185,378.856 274.185 C 381.742 274.185,396.662 260.531,398.804 255.931 C 400.769 251.710,400.593 239.396,398.515 235.774 C 397.045 233.209,393.342 229.574,392.201 229.574 C 391.870 229.574,390.276 228.954,388.657 228.195 C 384.520 226.257,375.667 226.249,366.416 228.173 C 362.970 228.890,357.817 229.603,354.966 229.758 C 349.000 230.081,349.196 230.430,352.330 225.063 C 359.877 212.138,367.138 198.243,370.734 189.841 C 371.696 187.593,372.678 185.520,372.916 185.233 C 373.153 184.946,373.916 183.246,374.609 181.454 C 375.303 179.662,377.033 175.376,378.454 171.930 C 381.607 164.280,384.181 157.089,388.464 143.958 C 389.571 140.566,390.476 137.511,390.476 137.170 C 390.476 136.829,391.244 133.852,392.183 130.556 C 393.746 125.065,394.133 123.423,394.717 119.799 C 394.828 119.110,395.475 115.952,396.156 112.782 C 397.800 105.124,397.948 103.959,399.035 90.226 C 399.538 83.867,399.448 77.913,398.727 69.925 C 397.274 53.830,389.062 41.197,370.324 26.231 C 361.236 18.973,341.186 8.462,334.179 7.282 C 333.129 7.105,330.196 6.323,327.663 5.543 C 325.130 4.763,322.155 3.983,321.053 3.810 C 317.971 3.325,316.893 3.145,312.030 2.304 C 302.140 0.593,287.692 0.082,276.190 1.037 M306.767 11.966 C 308.559 12.247,311.135 12.608,312.491 12.767 C 317.758 13.385,329.227 16.627,336.842 19.652 C 340.288 21.021,343.779 22.396,344.599 22.707 C 347.037 23.632,356.257 29.391,360.611 32.707 C 362.839 34.404,364.983 36.029,365.377 36.317 C 366.442 37.099,376.941 47.558,379.021 49.910 C 387.211 59.169,389.795 77.283,386.238 100.501 C 385.477 105.464,384.766 110.215,384.657 111.061 C 384.547 111.906,383.651 115.853,382.665 119.832 C 381.679 123.812,380.769 127.632,380.644 128.321 C 380.367 129.837,379.995 131.110,377.932 137.594 C 377.055 140.351,376.269 142.963,376.184 143.399 C 375.935 144.683,372.426 154.832,370.871 158.770 C 370.081 160.767,368.965 163.812,368.390 165.536 C 367.814 167.261,367.034 169.154,366.655 169.743 C 366.276 170.332,365.039 173.152,363.907 176.009 C 358.036 190.821,345.237 214.843,334.743 230.746 C 330.118 237.755,330.225 237.213,333.208 238.489 C 338.821 240.892,346.971 241.114,363.158 239.306 C 364.261 239.183,367.531 238.596,370.426 238.002 C 384.763 235.060,392.264 239.574,388.710 249.003 C 385.549 257.392,366.358 269.861,351.629 273.096 C 339.107 275.845,321.655 276.724,313.866 274.996 C 309.327 273.990,309.464 273.895,309.056 278.314 C 308.127 288.351,307.860 290.611,306.252 302.005 C 305.435 307.794,304.644 313.885,304.494 315.539 C 304.210 318.680,302.741 328.541,301.470 335.840 C 301.062 338.183,300.607 341.115,300.459 342.356 C 298.959 354.960,291.456 369.770,283.436 375.957 C 282.019 377.051,280.744 377.945,280.602 377.945 C 280.460 377.945,278.402 379.063,276.027 380.429 C 258.271 390.646,233.740 392.476,219.735 384.628 C 212.703 380.688,202.005 368.386,202.005 364.240 C 202.005 363.815,201.804 363.344,201.559 363.192 C 201.313 363.040,200.546 361.500,199.853 359.769 C 198.649 356.761,198.275 355.293,197.714 351.378 C 197.576 350.414,197.249 348.271,196.988 346.617 C 195.491 337.139,194.064 311.174,193.839 289.319 L 193.734 279.138 190.800 281.418 C 186.773 284.546,181.238 287.522,177.668 288.481 C 176.028 288.921,172.995 289.744,170.927 290.309 C 163.399 292.369,150.304 292.013,139.098 289.445 C 116.322 284.226,115.155 265.707,137.392 262.400 C 138.606 262.219,142.080 261.436,145.113 260.659 C 148.145 259.883,151.423 259.143,152.396 259.017 C 156.434 258.491,159.477 256.235,164.384 250.129 C 168.867 244.550,168.886 244.631,163.039 244.618 C 159.709 244.611,152.099 242.481,147.821 240.359 L 145.516 239.216 141.054 243.806 C 138.600 246.330,134.561 250.633,132.080 253.368 C 129.599 256.103,127.155 258.691,126.649 259.120 C 126.144 259.549,122.959 263.177,119.571 267.183 C 104.079 285.505,94.250 290.061,81.633 284.767 C 68.912 279.429,54.452 260.162,44.723 235.589 C 43.904 233.521,42.784 230.815,42.233 229.574 C 38.419 220.984,28.584 190.838,25.308 177.694 C 24.689 175.213,23.600 171.040,22.887 168.421 C 22.174 165.802,21.458 162.880,21.296 161.927 C 21.135 160.975,20.325 157.525,19.497 154.262 C 18.074 148.650,17.863 147.618,17.265 143.358 C 17.130 142.393,16.809 140.927,16.553 140.100 C 15.846 137.820,13.645 125.963,13.296 122.556 C 13.127 120.902,12.728 117.970,12.410 116.040 C 11.647 111.401,11.690 91.732,12.478 85.714 C 12.821 83.095,13.209 80.050,13.340 78.947 C 13.719 75.773,15.375 69.125,16.495 66.284 C 17.059 64.853,17.629 63.079,17.763 62.341 C 18.088 60.552,21.983 52.279,23.419 50.329 C 24.047 49.476,24.561 48.622,24.561 48.431 C 24.561 46.420,33.778 36.424,40.620 31.016 C 58.323 17.022,91.910 12.506,126.003 19.534 C 128.726 20.096,131.433 20.644,132.018 20.753 C 132.604 20.862,134.549 21.223,136.341 21.554 C 141.605 22.529,147.224 24.035,153.383 26.121 C 160.361 28.484,160.239 28.481,163.524 26.385 C 166.978 24.183,170.310 22.497,172.180 22.006 C 173.008 21.789,175.714 20.917,178.195 20.069 C 190.226 15.955,207.863 14.321,221.818 16.028 C 224.016 16.296,227.055 16.635,228.571 16.779 C 230.088 16.924,233.127 17.475,235.325 18.003 C 237.890 18.619,239.620 18.803,240.155 18.517 C 242.134 17.458,259.522 13.312,264.160 12.793 C 267.154 12.458,274.992 11.575,277.193 11.325 C 280.469 10.952,303.491 11.451,306.767 11.966 M272.682 23.073 C 270.890 23.315,267.214 23.897,264.514 24.368 L 259.605 25.224 265.016 28.040 C 267.991 29.589,272.590 32.260,275.234 33.975 C 277.878 35.690,280.214 37.093,280.425 37.093 C 282.609 37.093,301.376 54.601,307.022 61.905 C 308.940 64.386,310.763 66.642,311.074 66.917 C 314.753 70.177,327.088 92.752,330.179 101.881 C 332.185 107.804,332.177 120.170,330.161 132.019 C 327.511 147.588,327.406 154.780,329.574 171.930 C 332.311 193.574,331.116 205.909,325.068 218.438 C 321.992 224.810,322.023 224.705,323.027 225.538 C 323.819 226.195,323.345 226.822,329.449 217.043 C 335.602 207.184,345.847 187.804,350.117 177.945 C 351.013 175.877,352.212 173.170,352.783 171.930 C 371.554 131.129,380.866 78.760,372.436 61.404 C 369.559 55.480,350.041 37.139,346.571 37.099 C 346.271 37.096,344.015 35.964,341.559 34.584 C 333.350 29.974,322.074 26.175,309.442 23.766 C 304.362 22.797,278.369 22.307,272.682 23.073 M198.300 27.063 C 185.690 28.656,171.555 34.123,163.020 40.708 C 147.922 52.356,136.451 73.583,131.583 98.881 C 130.156 106.295,128.840 115.901,129.284 115.656 C 132.152 114.078,137.663 111.622,139.599 111.060 C 156.429 106.174,160.330 105.459,167.669 105.914 C 180.113 106.687,189.104 112.356,193.965 122.495 C 200.117 135.328,202.984 170.763,199.212 187.361 C 198.232 191.677,196.124 198.814,195.258 200.752 C 194.889 201.579,193.755 204.286,192.738 206.767 C 191.722 209.248,190.354 212.293,189.699 213.534 C 187.807 217.115,181.454 233.871,181.454 235.279 C 181.454 235.685,182.064 235.818,183.281 235.676 C 190.526 234.830,200.594 241.229,204.036 248.869 C 206.137 253.530,206.134 253.479,206.259 286.447 C 206.369 315.379,206.589 321.811,208.062 339.098 C 208.914 349.091,212.210 361.358,214.453 362.880 C 214.678 363.033,215.445 364.149,216.159 365.359 C 224.665 379.788,246.349 382.319,268.440 371.461 C 284.445 363.595,287.522 355.474,293.994 304.010 C 294.653 298.772,295.642 290.990,296.193 286.717 C 297.767 274.488,298.746 264.364,298.756 260.211 C 298.784 247.764,304.395 239.334,314.944 235.893 C 315.829 235.604,312.228 230.006,310.827 229.492 C 309.841 229.130,303.765 219.342,300.268 212.482 C 298.244 208.512,295.300 203.120,293.725 200.501 C 292.151 197.882,289.586 193.273,288.024 190.260 C 286.462 187.246,284.971 184.523,284.711 184.210 C 284.095 183.468,278.000 170.121,276.356 165.915 C 260.488 125.315,271.721 104.117,309.101 104.119 L 318.202 104.120 317.512 102.164 C 316.240 98.560,308.308 83.426,306.659 81.459 C 306.426 81.181,304.541 78.525,302.471 75.558 C 291.433 59.738,271.034 42.614,256.531 36.994 C 234.011 28.268,214.759 24.984,198.300 27.063 M84.461 27.898 C 71.613 29.426,62.204 31.991,55.200 35.876 C 53.994 36.545,52.782 37.093,52.507 37.093 C 49.894 37.093,38.743 47.950,34.444 54.680 C 25.651 68.445,21.162 97.930,24.681 118.797 C 32.733 166.541,49.129 221.591,62.426 245.529 C 67.692 255.010,69.158 257.384,72.356 261.617 C 85.148 278.551,93.687 279.280,106.119 264.500 C 108.247 261.970,110.703 259.223,111.576 258.396 C 112.450 257.569,115.473 254.239,118.293 250.995 C 121.114 247.752,123.679 244.933,123.992 244.730 C 124.305 244.527,127.006 241.690,129.995 238.426 L 135.428 232.491 134.255 231.228 C 133.610 230.534,132.721 229.821,132.279 229.644 C 131.124 229.184,127.524 224.893,124.811 220.745 C 116.260 207.670,113.698 195.635,115.847 178.633 C 117.073 168.929,117.338 155.976,116.879 128.070 C 116.324 94.282,127.185 61.386,145.737 40.665 L 148.865 37.172 145.736 36.149 C 127.414 30.161,98.348 26.247,84.461 27.898 M301.754 115.571 C 282.588 118.930,277.754 127.940,283.528 149.540 C 285.736 157.800,296.786 183.634,298.672 184.946 C 298.883 185.093,300.809 188.482,302.952 192.477 C 305.095 196.472,307.048 199.864,307.293 200.015 C 307.537 200.166,309.109 203.157,310.785 206.661 C 314.356 214.126,314.300 214.097,316.000 209.398 C 319.455 199.850,319.693 185.532,316.726 165.664 C 315.567 157.903,315.937 145.297,317.675 133.333 C 320.006 117.289,320.065 116.500,318.971 116.080 C 317.906 115.671,303.596 115.248,301.754 115.571 M160.652 117.605 C 150.762 119.104,134.675 125.066,130.075 128.937 L 128.571 130.203 128.894 135.402 C 129.508 145.280,129.316 163.932,128.522 171.679 C 125.790 198.336,128.007 207.677,140.100 220.461 C 147.263 228.032,155.524 232.080,166.265 233.281 L 169.373 233.628 169.929 231.564 C 170.609 229.040,174.939 217.226,176.446 213.784 C 177.050 212.406,178.403 209.361,179.453 207.018 C 180.504 204.674,181.823 201.724,182.385 200.461 C 190.170 182.966,191.063 165.886,185.719 136.650 C 182.999 121.767,174.716 115.474,160.652 117.605 M307.765 121.721 C 312.222 125.033,304.703 132.886,297.718 132.215 C 293.367 131.797,289.175 128.073,289.882 125.254 C 290.847 121.410,303.881 118.835,307.765 121.721 M170.984 123.806 C 179.238 125.329,182.048 128.904,178.324 133.145 C 173.403 138.750,165.684 138.464,160.419 132.483 C 154.859 126.166,160.164 121.811,170.984 123.806 M319.325 246.656 C 313.479 248.731,311.536 251.435,310.955 258.304 L 310.642 262.015 313.090 262.851 C 321.269 265.644,341.073 264.418,352.934 260.383 C 354.932 259.704,356.923 259.148,357.359 259.148 C 359.079 259.148,373.945 249.968,373.288 249.312 C 373.194 249.217,370.425 249.587,367.135 250.134 C 347.183 253.449,332.422 252.306,324.350 246.821 C 323.373 246.157,322.457 245.631,322.315 245.651 C 322.172 245.671,320.827 246.123,319.325 246.656 M183.208 247.606 C 181.661 248.294,179.832 250.055,176.689 253.885 C 165.956 266.959,161.479 269.543,143.167 273.238 C 133.256 275.237,133.072 275.485,139.882 277.639 C 160.176 284.056,181.554 278.361,192.173 263.708 C 197.031 257.004,190.093 244.542,183.208 247.606 " stroke="none" fill="#f8f8f8" fill-rule="evenodd"></path></g></svg>
