<svg id="svg" xmlns="http://www.w3.org/2000/svg" xmlns:xlink="http://www.w3.org/1999/xlink" width="400" height="400" viewBox="0, 0, 400,400"><g id="svgg"><path id="path0" d="M170.667 1.667 C 115.362 7.564,104.919 17.669,104.899 65.304 L 104.889 88.831 152.444 89.304 L 200.000 89.778 200.000 96.000 L 200.000 102.222 125.333 103.111 L 50.667 104.000 40.490 108.997 C 7.194 125.347,-6.501 185.056,9.062 246.012 C 18.619 283.442,31.188 293.715,68.736 294.786 L 92.139 295.453 92.752 265.504 C 93.565 225.800,101.738 210.356,128.472 198.008 L 139.556 192.889 200.889 192.000 L 262.222 191.111 270.606 186.183 C 279.150 181.160,284.966 174.677,290.901 163.556 C 293.948 157.847,294.222 152.567,294.222 99.556 L 294.222 41.778 288.980 32.314 C 274.790 6.698,230.667 -4.731,170.667 1.667 M158.667 35.579 C 165.610 43.200,165.484 53.456,158.359 60.581 C 142.873 76.068,118.245 53.770,131.801 36.536 C 139.352 26.937,150.433 26.542,158.667 35.579 M307.163 131.111 C 306.124 169.129,297.721 185.753,272.924 198.844 L 264.000 203.556 202.667 204.509 C 134.548 205.568,134.657 205.550,120.956 217.928 C 105.855 231.571,105.849 231.603,105.240 295.791 L 104.702 352.470 109.334 361.938 C 134.856 414.103,276.600 410.134,292.435 356.811 C 294.130 351.104,295.111 340.419,295.111 327.677 L 295.111 307.556 247.111 307.556 L 199.111 307.556 199.111 301.333 L 199.111 295.111 276.000 295.072 C 363.126 295.028,361.505 295.264,373.866 280.823 C 409.119 239.638,401.470 125.881,362.168 106.856 C 355.512 103.633,351.191 103.111,331.181 103.111 L 307.928 103.111 307.163 131.111 M264.663 336.171 C 277.485 348.117,270.466 368.000,253.426 368.000 C 236.697 368.000,229.236 349.026,241.244 337.019 C 247.194 331.069,258.738 330.651,264.663 336.171 " stroke="none" fill="#f8f8f8" fill-rule="evenodd"></path></g></svg>
