<svg id="svg" xmlns="http://www.w3.org/2000/svg" xmlns:xlink="http://www.w3.org/1999/xlink" width="400" height="400" viewBox="0, 0, 400,400" version="1.1"><g id="svgg"><path id="path0" d="M274.400 1.828 C 273.850 1.924,272.050 2.202,270.400 2.445 C 264.940 3.250,256.158 6.141,250.310 9.058 C 248.830 9.796,247.327 10.400,246.970 10.400 C 245.135 10.400,231.039 19.312,222.676 25.758 C 220.078 27.761,217.108 29.997,216.076 30.726 C 213.741 32.375,211.509 34.306,205.401 39.959 C 202.762 42.401,200.472 44.400,200.312 44.400 C 200.152 44.400,198.259 42.735,196.105 40.700 C 191.264 36.125,186.723 32.201,185.533 31.564 C 185.039 31.300,183.007 29.794,181.017 28.218 C 172.250 21.273,155.232 10.400,153.129 10.400 C 152.825 10.400,150.770 9.605,148.561 8.632 C 128.075 -0.383,110.145 -0.114,100.317 9.357 C 99.722 9.931,99.061 10.400,98.849 10.400 C 98.196 10.400,94.572 15.541,92.673 19.163 C 83.531 36.597,83.094 68.206,91.546 100.725 C 92.187 103.191,92.559 105.302,92.374 105.416 C 92.188 105.531,89.643 106.327,86.718 107.187 C 80.268 109.081,70.580 112.401,66.123 114.245 C 64.320 114.990,62.544 115.600,62.176 115.600 C 58.908 115.600,38.056 127.601,30.280 133.957 C 28.367 135.521,26.634 136.800,26.428 136.800 C 26.222 136.800,24.693 138.287,23.029 140.105 C 7.273 157.321,6.611 172.280,20.849 189.357 C 24.019 193.159,29.641 198.558,31.517 199.603 C 32.113 199.934,34.400 201.494,36.600 203.068 C 46.477 210.138,63.878 219.117,71.398 221.026 C 72.499 221.305,76.010 222.437,79.200 223.540 C 82.390 224.644,86.609 226.013,88.576 226.582 C 92.954 227.851,92.597 227.297,91.589 231.245 C 90.768 234.461,90.038 237.727,88.428 245.400 C 82.482 273.725,84.992 301.382,94.916 316.896 C 108.004 337.355,140.670 334.327,175.117 309.460 C 177.601 307.667,180.191 305.896,180.871 305.524 C 182.671 304.541,189.826 298.536,195.666 293.108 C 198.452 290.519,200.860 288.400,201.017 288.400 C 201.174 288.400,203.038 290.065,205.159 292.100 C 210.093 296.834,218.897 304.392,220.536 305.301 C 221.231 305.687,224.230 307.798,227.200 309.993 C 235.954 316.462,249.020 323.863,255.040 325.763 C 288.366 336.278,304.908 328.914,312.469 300.200 C 317.335 281.721,315.792 249.685,308.969 227.523 C 308.798 226.966,309.491 226.625,312.880 225.599 C 315.146 224.913,319.430 223.550,322.400 222.569 C 325.370 221.588,328.925 220.425,330.300 219.984 C 337.962 217.527,352.975 209.877,362.014 203.825 C 364.992 201.831,367.917 199.944,368.515 199.632 C 372.249 197.681,382.034 186.774,385.750 180.423 C 395.782 163.275,387.049 144.475,361.345 127.888 C 353.883 123.072,339.423 115.600,337.567 115.600 C 337.218 115.600,335.148 114.874,332.966 113.986 C 328.479 112.160,315.129 107.611,311.200 106.570 C 309.770 106.191,308.463 105.762,308.296 105.616 C 308.128 105.470,308.801 101.942,309.791 97.776 C 312.710 85.489,314.357 73.097,314.680 61.000 C 315.561 27.997,305.973 7.469,287.400 2.596 C 285.072 1.985,276.423 1.474,274.400 1.828 M284.708 11.003 C 304.455 15.659,311.258 52.644,300.526 97.000 C 299.728 100.300,299.032 103.056,298.979 103.125 C 298.873 103.264,295.235 102.532,288.600 101.036 C 276.914 98.401,252.253 94.805,245.811 94.795 L 242.600 94.791 241.025 92.495 C 238.118 88.260,228.143 75.007,227.405 74.400 C 227.004 74.070,225.678 72.540,224.460 71.000 C 220.492 65.987,209.902 53.966,208.534 52.923 C 207.800 52.363,207.200 51.689,207.200 51.426 C 207.200 50.227,228.496 31.600,229.867 31.600 C 230.097 31.600,231.123 30.960,232.147 30.178 C 250.353 16.277,272.620 8.153,284.708 11.003 M128.577 11.407 C 138.624 13.159,151.168 18.777,164.200 27.362 C 167.280 29.390,170.523 31.509,171.406 32.069 C 175.732 34.812,193.600 50.222,193.600 51.210 C 193.600 51.391,192.178 52.989,190.439 54.760 C 187.452 57.804,180.316 65.961,176.407 70.800 C 175.430 72.010,174.059 73.573,173.361 74.274 C 172.117 75.524,161.740 89.215,159.287 92.842 L 158.042 94.683 152.921 94.912 C 143.396 95.337,121.195 98.799,105.282 102.341 C 101.232 103.242,101.669 103.785,99.752 95.488 C 91.536 59.934,93.539 29.921,104.966 17.355 C 110.184 11.616,118.199 9.597,128.577 11.407 M205.480 63.036 C 208.076 65.915,211.271 69.560,212.580 71.136 C 213.889 72.711,215.079 74.000,215.223 74.000 C 215.791 74.000,230.470 93.162,230.217 93.573 C 230.140 93.698,227.944 93.682,225.338 93.538 C 213.400 92.878,197.025 92.736,184.261 93.182 C 176.815 93.443,170.634 93.567,170.526 93.459 C 170.141 93.074,182.399 77.276,186.245 73.200 C 187.179 72.210,189.441 69.678,191.272 67.573 C 196.633 61.408,200.179 57.609,200.480 57.708 C 200.633 57.758,202.883 60.156,205.480 63.036 M226.600 102.393 C 230.780 102.617,234.980 102.903,235.933 103.029 L 237.665 103.259 241.933 109.661 C 248.232 119.111,251.026 123.528,256.650 132.928 C 262.250 142.286,265.475 148.095,272.280 161.071 L 274.834 165.942 271.616 172.271 C 269.845 175.752,268.216 178.870,267.995 179.200 C 267.774 179.530,265.997 182.770,264.045 186.400 C 262.094 190.030,259.620 194.472,258.548 196.271 C 253.793 204.254,247.048 215.237,245.304 217.839 C 244.257 219.400,242.191 222.491,240.713 224.707 C 239.235 226.923,237.804 228.874,237.533 229.042 C 234.746 230.764,165.400 230.776,163.246 229.055 C 162.941 228.812,161.457 226.810,159.948 224.606 C 158.439 222.403,156.565 219.700,155.784 218.600 C 155.002 217.500,152.274 213.180,149.720 209.000 C 147.166 204.820,144.790 200.972,144.438 200.449 C 143.194 198.597,141.486 195.766,140.064 193.200 C 131.864 178.401,126.000 167.122,126.000 166.149 C 126.000 165.471,127.560 162.296,130.987 156.000 C 132.364 153.470,135.160 148.250,137.200 144.400 C 139.240 140.550,141.219 137.040,141.597 136.600 C 141.975 136.160,143.575 133.550,145.152 130.800 C 152.166 118.564,162.486 103.323,163.949 103.036 C 164.527 102.923,169.410 102.636,174.800 102.398 C 180.190 102.161,185.950 101.906,187.600 101.832 C 192.810 101.597,218.682 101.970,226.600 102.393 M150.800 104.600 C 150.800 104.711,148.574 108.176,145.853 112.300 C 140.953 119.730,136.374 127.195,133.402 132.600 C 132.555 134.140,131.509 135.912,131.076 136.539 C 130.139 137.897,127.342 143.099,123.785 150.100 C 122.360 152.905,121.041 155.200,120.854 155.200 C 120.504 155.200,118.220 150.043,115.009 142.000 C 113.999 139.470,112.928 136.860,112.628 136.200 C 111.278 133.225,104.400 113.375,104.400 112.453 C 104.400 111.351,129.774 106.711,147.000 104.663 C 149.045 104.419,150.800 104.391,150.800 104.600 M256.000 105.010 C 267.554 106.297,294.990 111.326,296.099 112.359 C 296.346 112.590,293.638 120.874,289.679 132.000 C 288.163 136.263,280.099 155.200,279.801 155.200 C 279.614 155.200,277.884 152.070,274.604 145.800 C 271.745 140.335,270.630 138.346,268.997 135.800 C 268.291 134.700,265.675 130.290,263.184 126.000 C 260.692 121.710,258.169 117.570,257.576 116.800 C 256.983 116.030,255.238 113.402,253.697 110.959 C 252.156 108.517,250.584 106.042,250.202 105.459 C 249.370 104.189,248.937 104.222,256.000 105.010 M95.997 116.617 C 96.380 117.708,97.708 121.685,98.949 125.456 C 101.634 133.617,109.342 152.977,112.701 160.000 C 114.016 162.750,115.186 165.275,115.300 165.612 C 115.414 165.948,113.897 169.818,111.929 174.212 C 109.961 178.605,106.914 185.890,105.159 190.400 C 103.403 194.910,101.683 199.230,101.336 200.000 C 100.519 201.812,95.208 218.035,95.203 218.732 C 95.191 220.710,68.318 210.747,56.326 204.318 C 53.837 202.983,50.483 201.202,48.874 200.360 C 32.004 191.537,19.608 176.246,20.067 164.827 C 20.414 156.184,30.855 142.564,41.649 136.677 C 42.612 136.151,45.380 134.516,47.800 133.043 C 57.957 126.860,77.398 118.608,87.400 116.234 C 88.940 115.869,91.190 115.324,92.400 115.023 C 95.238 114.318,95.182 114.293,95.997 116.617 M309.800 115.555 C 318.935 117.202,342.433 127.010,353.215 133.676 C 355.533 135.109,358.053 136.583,358.815 136.952 C 362.290 138.633,371.841 147.400,374.991 151.800 C 383.912 164.262,382.138 174.038,368.553 187.284 C 363.693 192.022,353.884 199.230,351.280 199.977 C 350.682 200.149,349.268 200.858,348.138 201.553 C 339.249 207.023,307.176 219.579,306.186 217.977 C 306.074 217.797,305.249 215.343,304.351 212.525 C 302.846 207.797,300.838 202.125,299.989 200.200 C 299.795 199.760,298.165 195.710,296.366 191.200 C 294.568 186.690,292.149 181.020,290.992 178.600 C 284.258 164.517,284.599 166.395,287.657 160.253 C 291.874 151.784,298.708 134.711,302.625 122.863 C 305.283 114.822,305.327 114.728,306.357 114.924 C 306.931 115.033,308.480 115.317,309.800 115.555 M193.000 132.981 C 163.559 139.843,155.878 176.069,180.194 193.377 C 209.117 213.963,246.776 182.192,230.898 150.600 C 224.252 137.378,207.517 129.597,193.000 132.981 M281.955 180.890 C 285.097 187.561,291.254 202.856,293.996 210.800 C 297.454 220.820,297.449 220.800,296.351 220.800 C 295.876 220.800,291.508 221.603,286.644 222.586 C 274.022 225.134,252.102 228.349,250.218 227.929 C 249.663 227.805,252.775 222.417,254.506 220.504 C 254.865 220.107,257.406 216.006,260.152 211.391 C 262.898 206.776,265.813 201.942,266.630 200.649 C 268.337 197.948,273.634 188.292,276.312 183.000 C 279.780 176.147,279.730 176.165,281.955 180.890 M121.462 178.300 C 121.764 178.685,123.268 181.430,124.804 184.400 C 129.340 193.174,140.085 211.563,144.696 218.444 C 145.523 219.679,147.235 222.226,148.500 224.106 C 151.186 228.096,151.288 228.517,149.500 228.221 C 148.785 228.102,145.500 227.735,142.200 227.406 C 132.379 226.425,118.508 224.185,107.300 221.770 C 104.941 221.262,104.400 221.004,104.400 220.388 C 104.400 219.463,109.699 203.460,111.019 200.400 C 111.541 199.190,113.147 195.187,114.589 191.505 C 117.327 184.514,120.372 177.600,120.713 177.600 C 120.822 177.600,121.159 177.915,121.462 178.300 M300.685 232.832 C 312.074 275.805,305.644 314.843,286.200 320.783 C 274.987 324.208,253.101 317.601,237.727 306.149 C 237.026 305.627,236.240 305.200,235.979 305.200 C 234.792 305.200,222.165 295.219,213.910 287.755 C 211.991 286.020,209.786 284.087,209.010 283.461 C 207.177 281.980,207.150 282.077,210.349 278.627 C 216.843 271.623,226.896 259.576,231.695 253.047 C 233.293 250.872,236.447 246.613,238.704 243.580 L 242.808 238.067 245.904 237.813 C 260.217 236.636,280.901 233.461,294.000 230.431 C 300.160 229.005,299.619 228.811,300.685 232.832 M106.324 230.965 C 112.049 232.256,122.921 234.198,129.800 235.158 C 139.938 236.572,142.118 236.829,150.160 237.556 C 157.032 238.177,158.195 238.379,158.672 239.037 C 158.976 239.457,160.030 240.790,161.014 242.000 C 161.998 243.210,164.017 245.839,165.501 247.842 C 171.785 256.321,175.586 261.059,178.542 264.097 C 179.239 264.814,180.528 266.283,181.405 267.362 C 183.263 269.648,185.137 271.767,190.488 277.630 L 194.377 281.890 189.088 286.660 C 179.652 295.170,169.898 302.849,165.582 305.163 C 164.518 305.733,161.090 307.708,157.962 309.552 C 138.968 320.749,120.914 324.543,110.892 319.443 C 96.046 311.887,90.793 283.966,97.418 247.812 C 98.429 242.294,101.007 231.035,101.409 230.386 C 101.716 229.889,101.380 229.850,106.324 230.965 M191.000 239.816 C 195.840 239.941,206.614 239.842,214.943 239.597 C 231.602 239.108,230.949 239.049,229.452 240.891 C 228.867 241.611,226.470 244.720,224.125 247.800 C 217.994 255.853,213.814 261.025,211.032 264.000 C 209.694 265.430,206.984 268.445,205.009 270.700 C 200.660 275.665,201.029 275.665,196.600 270.713 C 194.620 268.499,191.555 265.138,189.788 263.244 C 186.647 259.876,181.337 253.407,175.798 246.200 C 174.277 244.220,172.439 241.975,171.716 241.212 C 169.776 239.165,169.885 239.121,176.300 239.365 C 179.545 239.489,186.160 239.692,191.000 239.816 M294.234 357.545 C 293.972 357.969,293.988 360.606,294.262 362.100 C 294.455 363.153,294.564 363.200,296.832 363.200 L 299.200 363.200 299.200 360.200 L 299.200 357.200 296.824 357.200 C 295.517 357.200,294.351 357.355,294.234 357.545 M26.800 378.200 L 26.800 397.600 29.400 397.600 L 32.000 397.600 32.000 389.600 L 32.000 381.600 36.213 381.600 C 43.241 381.600,43.970 382.245,49.663 393.500 L 51.737 397.600 54.673 397.600 L 57.608 397.600 55.800 394.100 C 51.231 385.256,47.689 380.000,46.299 380.000 C 46.081 380.000,46.126 379.730,46.400 379.400 C 46.674 379.070,47.068 378.800,47.276 378.800 C 49.588 378.800,52.172 374.145,52.182 369.961 C 52.203 361.556,47.671 358.821,33.700 358.807 L 26.800 358.800 26.800 378.200 M198.681 359.052 C 198.526 359.207,198.400 367.943,198.400 378.467 L 198.400 397.600 201.000 397.600 L 203.600 397.600 203.600 382.000 C 203.600 373.420,203.735 366.407,203.900 366.415 C 204.464 366.442,206.330 369.769,213.206 383.000 C 214.806 386.080,216.342 388.870,216.618 389.200 C 216.894 389.530,218.054 391.555,219.196 393.700 L 221.271 397.600 224.963 397.600 L 228.654 397.600 228.616 378.300 L 228.578 359.000 225.989 359.000 L 223.400 359.000 223.200 374.762 C 223.048 386.711,222.889 390.388,222.541 389.962 C 222.288 389.653,220.950 387.240,219.568 384.600 C 218.186 381.960,215.619 377.190,213.864 374.000 C 212.109 370.810,209.577 366.130,208.236 363.600 L 205.800 359.000 202.381 358.886 C 200.501 358.823,198.836 358.898,198.681 359.052 M159.200 364.377 L 159.200 368.354 157.500 368.477 L 155.800 368.600 155.800 370.400 L 155.800 372.200 157.500 372.323 L 159.200 372.446 159.200 381.203 C 159.200 396.230,160.100 397.600,169.968 397.600 L 174.444 397.600 174.322 395.700 L 174.200 393.800 170.114 393.600 C 164.102 393.306,164.042 393.185,164.023 381.200 C 164.007 371.074,163.564 371.898,168.957 372.012 C 174.791 372.136,174.400 372.252,174.400 370.400 C 174.400 369.412,174.209 368.782,173.900 368.753 C 173.625 368.727,171.330 368.682,168.800 368.653 L 164.200 368.600 164.086 364.500 L 163.972 360.400 161.586 360.400 L 159.200 360.400 159.200 364.377 M272.643 361.033 C 272.509 361.381,272.400 363.181,272.400 365.033 L 272.400 368.400 270.800 368.400 L 269.200 368.400 269.200 370.400 L 269.200 372.400 270.800 372.400 L 272.400 372.400 272.408 380.100 C 272.424 395.840,273.263 397.286,282.524 397.541 L 287.647 397.682 287.524 395.741 L 287.400 393.800 283.600 393.582 C 277.352 393.223,277.549 393.630,277.692 381.398 L 277.800 372.200 282.700 372.088 L 287.600 371.975 287.600 370.400 L 287.600 368.825 282.700 368.712 L 277.800 368.600 277.686 364.500 L 277.572 360.400 275.229 360.400 C 273.461 360.400,272.826 360.555,272.643 361.033 M42.126 363.780 C 46.382 365.297,48.002 370.275,45.475 374.071 C 43.865 376.488,41.793 377.049,35.100 376.879 L 32.000 376.800 32.000 370.000 L 32.000 363.200 36.300 363.218 C 38.868 363.228,41.215 363.454,42.126 363.780 M70.400 368.557 C 64.541 369.640,60.889 373.932,60.034 380.739 C 58.340 394.234,68.982 401.667,83.629 397.219 L 86.400 396.377 86.400 394.142 C 86.400 391.618,86.691 391.686,82.600 393.244 C 74.641 396.273,66.449 393.189,65.256 386.713 C 64.795 384.213,63.883 384.400,76.526 384.400 L 87.719 384.400 87.482 381.100 C 86.753 370.953,80.858 366.625,70.400 368.557 M101.509 368.419 C 96.475 369.005,96.000 369.303,96.000 371.874 C 96.000 373.825,96.082 374.051,96.700 373.793 C 105.357 370.172,113.647 372.061,113.764 377.681 L 113.800 379.400 107.600 379.614 C 97.430 379.965,93.880 382.503,93.914 389.400 C 93.958 398.193,105.610 401.876,112.500 395.275 L 114.000 393.838 114.000 395.719 L 114.000 397.600 116.651 397.600 L 119.303 397.600 119.110 387.500 C 118.775 369.905,115.861 366.747,101.509 368.419 M137.916 368.432 C 124.455 370.406,123.139 393.537,136.257 397.589 C 140.461 398.887,148.256 398.413,150.277 396.736 C 150.869 396.245,151.008 392.400,150.433 392.400 C 150.231 392.400,149.196 392.777,148.133 393.237 C 141.304 396.195,133.486 393.046,132.575 386.971 C 130.875 375.635,137.657 369.246,147.600 372.816 C 148.810 373.250,149.980 373.650,150.200 373.703 C 151.158 373.935,150.889 369.621,149.921 369.227 C 147.465 368.226,141.853 367.855,137.916 368.432 M244.400 368.575 C 239.539 369.342,239.600 369.299,239.600 371.886 C 239.600 373.822,239.684 374.052,240.300 373.802 C 249.235 370.178,257.245 371.999,257.364 377.681 L 257.400 379.400 251.000 379.609 C 240.594 379.948,236.383 383.406,237.397 390.779 C 238.452 398.453,249.386 401.336,255.617 395.584 C 257.722 393.641,257.600 393.627,257.600 395.800 L 257.600 397.600 260.024 397.600 L 262.448 397.600 262.324 386.900 C 262.124 369.614,258.874 366.292,244.400 368.575 M350.310 368.433 C 343.383 369.448,339.050 376.257,339.717 385.079 C 340.530 395.825,350.806 401.125,363.406 397.298 L 365.800 396.571 365.921 394.234 C 366.031 392.122,365.974 391.925,365.321 392.177 C 354.368 396.408,345.999 393.993,344.950 386.300 L 344.691 384.400 355.995 384.400 L 367.298 384.400 367.128 380.900 C 366.656 371.204,360.837 366.890,350.310 368.433 M294.520 368.717 C 294.026 369.032,293.783 395.770,294.264 397.023 C 294.422 397.435,295.157 397.600,296.843 397.600 L 299.200 397.600 299.200 383.250 L 299.200 368.900 297.950 368.650 C 296.299 368.320,295.109 368.343,294.520 368.717 M306.749 368.719 C 306.177 368.966,306.308 369.564,307.818 373.600 C 311.242 382.752,313.949 389.877,315.455 393.700 L 316.992 397.600 320.396 397.594 L 323.800 397.588 326.476 390.694 C 327.947 386.902,329.957 381.640,330.942 379.000 C 331.927 376.360,333.190 373.001,333.749 371.536 C 334.891 368.545,334.812 368.400,332.044 368.400 C 329.991 368.400,329.429 368.967,328.275 372.200 C 325.577 379.761,321.870 389.487,321.141 390.916 L 320.324 392.517 319.520 390.758 C 319.077 389.791,317.113 384.680,315.156 379.400 C 313.198 374.120,311.443 369.530,311.257 369.200 C 310.892 368.554,307.876 368.232,306.749 368.719 M79.375 373.354 C 81.129 374.691,82.379 377.156,82.391 379.300 L 82.400 380.800 73.800 380.800 C 64.190 380.800,64.759 381.003,65.624 377.889 C 67.071 372.680,75.044 370.050,79.375 373.354 M357.719 372.540 C 360.801 373.828,363.804 379.776,361.767 380.557 C 360.765 380.942,345.271 380.839,345.029 380.447 C 344.652 379.837,345.884 376.427,347.020 374.938 C 349.042 372.287,354.296 371.110,357.719 372.540 M113.928 385.792 C 113.342 395.001,98.810 398.160,98.801 389.080 C 98.797 384.804,101.609 383.332,109.947 383.244 L 114.093 383.200 113.928 385.792 M257.499 385.827 C 256.743 395.235,242.400 398.225,242.400 388.976 C 242.400 384.714,245.144 383.301,253.555 383.234 L 257.710 383.200 257.499 385.827 " stroke="none" fill="#f8f8f8" fill-rule="evenodd"></path></g></svg>
