<svg id="svg" xmlns="http://www.w3.org/2000/svg" xmlns:xlink="http://www.w3.org/1999/xlink" width="400" height="381.3780260707635" viewBox="0, 0, 400,381.3780260707635"><g id="svgg"><path id="path0" d="M186.541 0.786 C 91.098 10.051,49.323 141.941,107.350 250.809 C 111.749 259.062,111.787 259.186,110.620 261.442 C 108.537 265.470,107.802 271.581,108.748 277.013 C 114.714 311.272,164.246 307.689,164.246 272.998 C 164.246 256.504,153.269 245.166,136.807 244.655 L 131.513 244.491 128.239 238.633 C 85.012 161.290,103.860 56.778,165.571 31.619 C 207.633 14.472,242.195 28.700,263.373 71.881 C 270.118 85.634,276.265 105.393,276.350 113.594 C 276.385 116.991,276.955 117.419,284.177 119.461 C 287.861 120.503,293.305 122.187,296.276 123.203 L 301.676 125.051 301.672 123.047 C 301.663 118.704,298.532 100.023,296.490 92.134 C 283.003 40.016,248.446 5.704,204.469 0.765 C 197.062 -0.067,195.309 -0.065,186.541 0.786 M164.991 117.947 C 133.748 128.309,140.419 173.266,173.184 173.166 C 182.993 173.136,194.175 166.428,197.401 158.639 L 198.398 156.233 214.096 156.637 C 332.118 159.669,419.793 271.653,353.992 335.320 C 330.797 357.763,297.949 362.567,258.699 349.256 L 249.613 346.175 243.801 350.973 C 240.604 353.612,235.810 357.397,233.147 359.384 C 230.484 361.371,228.029 363.236,227.691 363.529 C 226.933 364.183,235.874 367.972,247.300 371.840 C 327.921 399.126,406.077 350.334,399.366 276.906 C 391.942 195.682,305.533 131.897,202.854 131.846 C 197.585 131.844,197.494 131.810,195.948 129.308 C 190.137 119.907,175.394 114.496,164.991 117.947 M51.769 182.696 C 18.320 209.536,0.519 243.607,0.501 280.819 C 0.467 353.664,61.783 392.125,145.251 371.615 C 201.389 357.820,245.733 323.421,273.340 272.253 C 276.851 265.745,278.048 264.432,280.470 264.432 C 285.559 264.432,296.009 256.314,299.271 249.826 C 311.230 226.042,286.084 199.872,262.197 211.244 C 246.269 218.827,240.987 238.468,251.024 252.796 L 253.843 256.819 251.064 261.929 C 217.282 324.062,135.998 365.457,77.155 350.495 C 31.596 338.911,9.662 291.969,29.099 247.649 C 35.763 232.454,51.627 212.591,64.047 203.892 C 65.438 202.917,60.427 177.315,58.845 177.317 C 58.641 177.317,55.456 179.738,51.769 182.696 " stroke="none" fill="#f8f8f8" fill-rule="evenodd"></path></g></svg>
