<svg id="svg" xmlns="http://www.w3.org/2000/svg" xmlns:xlink="http://www.w3.org/1999/xlink" width="400" height="400" viewBox="0, 0, 400,400" version="1.1"><g id="svgg"><path id="path0" d="M168.600 0.579 C 160.020 1.624,149.008 3.985,145.000 5.638 C 144.340 5.910,143.665 6.171,143.500 6.216 C 143.335 6.262,143.110 6.345,143.000 6.400 C 142.890 6.455,142.665 6.538,142.500 6.584 C 142.335 6.629,141.690 6.878,141.066 7.136 C 140.443 7.395,139.768 7.504,139.566 7.379 C 139.365 7.255,139.200 7.343,139.200 7.576 C 139.200 7.809,138.949 8.000,138.642 8.000 C 137.995 8.000,133.442 9.852,129.400 11.759 C 127.860 12.486,126.105 13.201,125.500 13.348 C 124.895 13.495,124.400 13.792,124.400 14.008 C 124.400 14.223,124.040 14.400,123.600 14.400 C 123.160 14.400,122.474 14.726,122.075 15.125 C 121.676 15.524,121.152 15.784,120.911 15.704 C 120.669 15.623,120.097 15.959,119.640 16.449 C 119.183 16.940,118.686 17.219,118.537 17.070 C 118.387 16.921,117.980 17.042,117.632 17.339 C 117.285 17.637,115.470 18.693,113.600 19.686 C 108.612 22.337,106.331 23.623,105.138 24.457 C 104.554 24.866,103.829 25.200,103.527 25.200 C 103.225 25.200,102.385 25.742,101.659 26.405 C 100.933 27.068,100.192 27.519,100.012 27.407 C 99.831 27.296,99.589 27.450,99.474 27.751 C 99.359 28.052,98.395 28.712,97.332 29.218 C 94.677 30.483,80.982 39.842,76.800 43.250 C 76.250 43.699,75.395 44.226,74.900 44.423 C 74.405 44.619,74.000 44.965,74.000 45.190 C 74.000 45.416,73.730 45.600,73.400 45.600 C 73.070 45.600,72.800 45.831,72.800 46.114 C 72.800 46.396,72.305 46.926,71.700 47.292 C 71.095 47.657,69.880 48.592,69.000 49.370 C 68.120 50.148,67.164 50.788,66.876 50.792 C 66.588 50.797,66.464 50.980,66.600 51.200 C 66.736 51.420,66.612 51.605,66.324 51.612 C 65.678 51.626,62.970 53.868,60.020 56.829 C 58.799 58.055,57.474 59.179,57.075 59.326 C 56.676 59.474,56.461 59.776,56.598 59.997 C 56.735 60.219,56.612 60.402,56.324 60.405 C 55.707 60.411,50.000 65.864,50.000 66.448 C 50.000 66.667,49.820 66.736,49.600 66.600 C 49.380 66.464,49.200 66.583,49.200 66.864 C 49.200 67.439,47.293 69.200,46.671 69.200 C 46.449 69.200,46.359 69.293,46.473 69.406 C 46.586 69.520,45.559 70.735,44.190 72.106 C 42.821 73.478,41.026 75.500,40.201 76.600 C 39.376 77.700,38.199 79.081,37.586 79.669 C 36.973 80.257,36.583 80.849,36.718 80.985 C 36.854 81.121,36.613 81.329,36.183 81.447 C 35.436 81.652,32.800 84.806,32.800 85.494 C 32.800 85.674,32.305 86.364,31.700 87.027 C 30.013 88.874,28.000 91.480,28.000 91.816 C 28.000 91.982,27.325 92.940,26.500 93.946 C 24.309 96.616,16.620 108.470,16.753 108.972 C 16.788 109.106,16.449 109.611,15.999 110.094 C 15.549 110.577,15.263 111.188,15.365 111.453 C 15.466 111.717,15.336 112.020,15.075 112.126 C 14.641 112.302,13.535 114.336,12.208 117.400 C 11.241 119.633,9.152 124.194,8.575 125.332 C 8.259 125.955,8.000 126.684,8.000 126.953 C 8.000 127.624,7.060 129.593,6.737 129.597 C 6.593 129.599,6.569 129.960,6.684 130.400 C 6.799 130.840,6.714 131.200,6.495 131.200 C 5.956 131.200,5.058 133.446,5.385 133.976 C 5.529 134.209,5.496 134.400,5.311 134.400 C 5.126 134.400,4.734 135.255,4.440 136.300 C 4.147 137.345,3.666 139.010,3.372 140.000 C 0.041 151.220,-1.039 167.247,0.999 175.200 C 3.310 184.215,4.331 187.474,5.080 188.223 C 5.394 188.537,5.542 188.970,5.409 189.185 C 5.276 189.400,5.482 190.167,5.867 190.888 C 6.252 191.610,6.577 192.290,6.589 192.400 C 6.602 192.510,6.739 192.799,6.893 193.041 C 7.048 193.284,8.503 196.074,10.127 199.241 C 13.421 205.667,15.816 209.600,16.436 209.600 C 16.662 209.600,16.756 209.747,16.645 209.927 C 16.534 210.107,16.793 210.507,17.221 210.815 C 17.650 211.124,18.000 211.617,18.000 211.912 C 18.000 212.408,21.336 217.013,23.714 219.800 C 31.721 229.185,32.843 230.409,40.027 237.582 C 45.534 243.080,52.406 249.618,59.178 255.800 C 63.868 260.081,67.556 263.610,72.739 268.774 L 78.132 274.147 77.171 274.774 C 76.642 275.118,75.127 276.212,73.804 277.204 C 70.052 280.018,65.994 282.800,65.640 282.800 C 65.463 282.800,64.754 283.340,64.063 284.000 C 63.372 284.660,62.636 285.200,62.426 285.200 C 62.217 285.200,61.765 285.600,61.423 286.089 C 61.080 286.578,60.800 286.876,60.800 286.750 C 60.800 286.625,60.050 287.215,59.133 288.061 C 58.217 288.908,57.216 289.600,56.910 289.600 C 56.603 289.600,56.464 289.780,56.600 290.000 C 56.736 290.220,56.612 290.403,56.324 290.406 C 56.036 290.410,55.242 290.905,54.560 291.506 C 53.877 292.108,52.536 293.230,51.579 294.000 C 44.791 299.462,32.332 312.319,28.867 317.439 C 27.913 318.848,26.957 320.000,26.743 320.000 C 26.528 320.000,26.464 320.180,26.600 320.400 C 26.736 320.620,26.662 320.800,26.437 320.800 C 25.929 320.800,22.800 325.450,22.800 326.205 C 22.800 326.506,22.628 326.859,22.418 326.989 C 22.208 327.119,21.117 329.155,19.995 331.513 C 18.873 333.871,17.615 336.448,17.199 337.241 C 16.779 338.044,16.544 339.062,16.669 339.541 C 16.792 340.013,16.706 340.400,16.478 340.400 C 15.943 340.400,15.060 343.050,15.408 343.612 C 15.553 343.848,15.370 344.677,15.001 345.455 C 14.631 346.233,14.177 347.889,13.991 349.135 C 13.806 350.381,13.461 352.370,13.227 353.555 C 11.947 360.018,13.509 380.000,15.295 380.000 C 15.510 380.000,15.573 380.294,15.435 380.653 C 15.297 381.013,15.555 381.936,16.008 382.704 C 16.462 383.472,16.741 384.193,16.628 384.305 C 16.516 384.418,16.734 384.980,17.114 385.555 C 17.493 386.130,18.156 387.320,18.587 388.200 C 19.018 389.080,19.872 390.456,20.485 391.258 C 21.098 392.059,21.600 392.899,21.600 393.124 C 21.600 394.200,25.381 396.793,28.331 397.740 C 42.118 402.166,55.462 400.203,67.882 391.922 C 70.126 390.425,72.106 389.197,72.282 389.194 C 72.949 389.180,79.600 382.978,79.600 382.369 C 79.600 382.140,79.780 382.064,80.000 382.200 C 80.220 382.336,80.400 382.198,80.400 381.893 C 80.400 381.588,81.019 380.823,81.776 380.192 C 82.532 379.561,83.062 378.900,82.952 378.722 C 82.842 378.545,82.999 378.400,83.299 378.400 C 83.957 378.400,87.912 373.180,89.057 370.800 C 89.216 370.470,89.657 369.750,90.038 369.200 C 91.355 367.296,92.936 364.600,92.768 364.542 C 92.676 364.510,92.888 364.150,93.241 363.742 C 94.367 362.437,97.476 355.980,98.028 353.800 C 98.194 353.140,98.718 351.610,99.191 350.400 C 100.310 347.541,101.156 344.684,101.609 342.232 C 101.809 341.149,102.182 340.134,102.438 339.977 C 102.693 339.819,102.779 339.489,102.628 339.245 C 102.476 339.000,102.547 338.800,102.784 338.800 C 103.048 338.800,103.115 338.399,102.957 337.769 C 102.814 337.202,102.892 336.347,103.130 335.869 C 103.959 334.201,104.367 331.868,104.130 330.140 C 103.985 329.083,104.049 328.400,104.293 328.400 C 105.073 328.400,105.600 321.226,105.600 310.618 C 105.600 300.649,105.057 292.800,104.366 292.800 C 104.207 292.800,104.096 291.765,104.119 290.500 C 104.145 289.024,103.901 287.664,103.436 286.703 C 103.038 285.880,102.808 284.957,102.925 284.652 C 103.042 284.347,102.936 283.896,102.689 283.649 C 102.442 283.402,102.376 283.200,102.543 283.200 C 102.709 283.200,102.565 282.800,102.223 282.311 C 101.880 281.822,101.600 281.093,101.600 280.691 C 101.600 280.289,101.330 279.438,100.999 278.799 C 100.402 277.643,100.408 277.631,102.299 276.229 C 103.345 275.454,104.470 274.575,104.800 274.275 C 106.052 273.136,113.165 267.600,113.377 267.600 C 113.831 267.600,117.600 264.711,117.600 264.362 C 117.600 264.163,117.876 264.000,118.213 264.000 C 118.549 264.000,118.928 263.731,119.054 263.402 C 119.181 263.074,119.433 262.897,119.615 263.009 C 119.796 263.121,120.183 262.884,120.473 262.480 C 121.488 261.069,122.348 261.098,121.985 262.531 C 120.146 269.780,118.000 285.254,118.000 291.254 C 118.000 293.131,117.898 294.768,117.774 294.892 C 117.479 295.187,117.479 305.613,117.774 305.908 C 117.898 306.032,118.000 307.483,118.000 309.132 C 118.000 313.871,120.320 326.281,122.240 331.813 C 122.548 332.701,122.799 333.691,122.799 334.013 C 122.797 334.926,124.876 339.600,125.284 339.600 C 125.484 339.600,125.531 339.788,125.389 340.018 C 125.247 340.247,125.457 340.922,125.855 341.518 C 126.253 342.113,126.586 342.690,126.595 342.800 C 126.629 343.243,129.682 347.573,130.625 348.516 C 135.993 353.884,147.423 351.124,150.403 343.739 C 150.594 343.265,150.942 342.760,151.175 342.615 C 151.409 342.471,151.600 342.003,151.600 341.576 C 151.600 341.149,151.791 340.800,152.024 340.800 C 152.257 340.800,152.348 340.639,152.226 340.442 C 152.104 340.245,152.292 339.973,152.644 339.839 C 153.020 339.694,153.185 339.339,153.046 338.975 C 152.914 338.631,153.170 337.969,153.625 337.481 C 154.075 336.998,154.359 336.288,154.258 335.902 C 154.158 335.516,154.211 335.200,154.377 335.200 C 154.543 335.200,154.968 334.345,155.322 333.300 C 156.030 331.207,156.723 329.328,158.015 326.000 C 158.485 324.790,159.009 323.260,159.181 322.600 C 159.808 320.190,162.089 313.786,162.499 313.286 C 162.731 313.004,162.906 312.239,162.887 311.586 C 162.869 310.934,163.036 310.400,163.260 310.400 C 163.484 310.400,163.592 310.177,163.501 309.904 C 163.410 309.631,163.588 309.155,163.897 308.846 C 164.231 308.511,164.362 307.905,164.221 307.342 C 164.091 306.824,164.153 306.400,164.359 306.400 C 164.565 306.400,164.914 305.905,165.135 305.300 C 165.482 304.351,165.541 304.543,165.568 306.700 C 165.586 308.121,165.427 309.200,165.200 309.200 C 164.947 309.200,164.800 312.067,164.800 317.000 C 164.800 321.782,164.950 324.800,165.189 324.800 C 165.414 324.800,165.544 326.107,165.499 327.900 C 165.441 330.192,165.608 331.380,166.137 332.460 C 166.531 333.263,166.808 334.163,166.753 334.460 C 166.582 335.377,169.122 340.192,170.428 341.428 C 173.355 344.198,173.215 344.128,175.930 344.165 C 177.688 344.189,178.586 344.037,178.700 343.698 C 178.792 343.421,179.033 343.297,179.234 343.421 C 179.435 343.545,179.600 343.457,179.600 343.224 C 179.600 342.991,179.735 342.829,179.900 342.864 C 180.497 342.990,181.600 342.303,181.600 341.804 C 181.600 341.523,181.978 341.194,182.440 341.074 C 182.903 340.953,183.162 340.662,183.017 340.427 C 182.872 340.192,182.999 340.000,183.299 340.000 C 184.517 340.000,193.690 324.624,192.928 323.861 C 192.819 323.752,193.127 323.126,193.612 322.469 C 194.097 321.813,194.376 321.086,194.233 320.853 C 194.089 320.620,194.337 320.063,194.785 319.615 C 195.233 319.167,195.600 318.513,195.600 318.162 C 195.600 317.811,195.854 317.046,196.164 316.462 C 196.474 315.878,197.296 313.870,197.990 312.000 C 198.684 310.130,199.780 307.362,200.426 305.848 C 201.072 304.335,201.600 302.833,201.600 302.511 C 201.600 302.190,201.943 301.491,202.361 300.958 C 202.793 300.409,203.033 299.647,202.915 299.195 C 202.800 298.758,202.879 298.400,203.089 298.400 C 203.594 298.400,204.474 296.443,204.181 295.970 C 204.056 295.767,204.124 295.600,204.334 295.600 C 204.750 295.600,205.120 294.848,205.612 293.000 C 205.787 292.340,206.315 290.810,206.785 289.600 C 208.433 285.354,208.858 284.190,209.193 283.000 C 209.379 282.340,209.922 280.810,210.400 279.600 C 210.878 278.390,211.416 276.810,211.595 276.089 C 211.774 275.367,212.143 274.509,212.415 274.181 C 212.687 273.854,212.935 273.274,212.965 272.893 C 212.996 272.512,213.340 271.606,213.731 270.880 C 214.127 270.144,214.332 269.215,214.194 268.780 C 214.057 268.351,214.116 268.000,214.325 268.000 C 214.739 268.000,215.129 267.034,216.183 263.400 C 216.566 262.080,217.131 260.409,217.439 259.686 C 217.748 258.964,218.000 258.115,218.000 257.800 C 218.000 257.485,218.249 256.636,218.553 255.914 C 219.102 254.608,219.675 252.796,220.992 248.200 C 221.371 246.880,222.030 245.121,222.458 244.290 C 222.885 243.460,223.142 242.629,223.028 242.445 C 222.913 242.260,223.185 241.354,223.630 240.432 C 224.086 239.489,224.332 238.416,224.193 237.978 C 224.057 237.550,224.131 237.200,224.357 237.200 C 224.583 237.200,224.969 236.435,225.216 235.500 C 226.888 229.154,227.423 228.400,227.771 231.900 C 227.896 233.165,228.191 235.190,228.425 236.400 C 228.660 237.610,228.998 239.680,229.177 241.000 C 229.356 242.320,229.688 244.120,229.915 245.000 C 230.141 245.880,230.633 248.040,231.009 249.800 C 231.773 253.387,232.624 256.356,233.447 258.314 C 233.751 259.036,234.000 259.900,234.000 260.233 C 234.000 260.567,234.307 261.416,234.682 262.120 C 235.057 262.824,235.326 263.540,235.278 263.712 C 235.231 263.884,235.502 264.604,235.881 265.312 C 237.873 269.033,239.295 274.032,238.585 274.817 C 238.263 275.172,238.000 275.650,238.000 275.878 C 238.000 276.106,237.646 276.742,237.213 277.292 C 236.780 277.843,236.544 278.411,236.689 278.556 C 236.833 278.700,236.546 279.103,236.049 279.451 C 235.552 279.798,235.243 280.334,235.361 280.642 C 235.478 280.949,235.421 281.200,235.233 281.200 C 235.045 281.200,234.596 281.822,234.235 282.583 C 233.874 283.344,233.403 284.074,233.189 284.207 C 232.975 284.339,232.800 284.777,232.800 285.181 C 232.800 285.584,232.530 286.018,232.200 286.145 C 231.870 286.271,231.600 286.719,231.600 287.138 C 231.600 287.558,231.330 288.126,231.000 288.400 C 230.670 288.674,230.400 289.047,230.400 289.229 C 230.400 289.411,229.884 290.334,229.254 291.280 C 228.624 292.226,227.589 293.794,226.954 294.764 C 226.319 295.734,225.530 296.936,225.200 297.435 C 224.870 297.935,223.790 299.629,222.800 301.200 C 221.810 302.771,220.689 304.539,220.309 305.128 C 219.929 305.718,219.235 306.965,218.765 307.900 C 218.296 308.835,217.752 309.600,217.556 309.600 C 217.360 309.600,217.200 309.863,217.200 310.184 C 217.200 310.506,216.855 311.091,216.434 311.484 C 215.769 312.106,214.535 314.294,211.445 320.326 C 208.253 326.557,209.572 333.892,214.235 335.841 C 218.780 337.739,230.353 336.094,235.956 332.752 C 237.320 331.938,240.030 330.401,241.800 329.436 C 242.240 329.196,242.690 328.910,242.800 328.799 C 242.910 328.689,243.511 328.335,244.135 328.013 C 244.760 327.691,246.335 326.424,247.635 325.198 C 248.936 323.972,250.000 323.045,250.000 323.138 C 250.000 323.232,250.403 322.789,250.897 322.154 C 251.390 321.519,252.155 320.691,252.597 320.313 C 253.038 319.936,253.283 319.621,253.140 319.613 C 252.996 319.606,253.421 319.020,254.083 318.311 C 254.746 317.602,255.447 316.657,255.643 316.211 C 255.838 315.765,256.170 315.130,256.380 314.800 C 256.590 314.470,257.060 313.480,257.424 312.600 C 257.789 311.720,258.317 310.460,258.599 309.800 C 261.358 303.332,262.632 288.527,261.008 281.800 C 260.689 280.480,260.422 278.876,260.414 278.235 C 260.401 277.149,259.923 275.175,258.613 270.800 C 257.514 267.129,257.492 266.481,258.401 264.494 C 260.522 259.860,262.193 256.546,262.736 255.900 C 263.059 255.515,263.194 255.200,263.035 255.200 C 262.876 255.200,263.118 254.677,263.573 254.038 C 264.028 253.399,264.400 252.780,264.400 252.662 C 264.400 252.405,267.749 245.074,268.600 243.468 C 268.930 242.845,269.200 242.063,269.200 241.729 C 269.200 241.396,269.497 240.556,269.859 239.862 C 271.355 236.998,271.600 236.455,271.600 236.001 C 271.600 235.740,271.958 235.072,272.395 234.516 C 272.832 233.961,273.090 233.346,272.969 233.150 C 272.848 232.955,273.132 232.257,273.600 231.600 C 274.068 230.943,274.326 230.204,274.174 229.958 C 274.022 229.712,274.083 229.396,274.310 229.255 C 274.785 228.961,276.800 224.548,276.800 223.802 C 276.800 223.528,277.360 221.975,278.044 220.352 C 279.155 217.717,279.508 216.821,280.629 213.800 C 280.988 212.833,281.476 214.428,281.548 216.800 C 281.571 217.570,281.850 219.460,282.169 221.000 C 282.812 224.109,283.544 228.002,284.034 230.915 C 284.212 231.969,284.634 233.387,284.973 234.066 C 285.316 234.753,285.484 235.723,285.351 236.251 C 285.211 236.810,285.290 237.200,285.544 237.200 C 285.781 237.200,285.880 237.447,285.764 237.748 C 285.649 238.050,285.854 238.597,286.220 238.963 C 286.593 239.336,286.796 239.974,286.680 240.414 C 286.568 240.846,286.634 241.297,286.827 241.417 C 287.021 241.536,287.442 242.482,287.762 243.517 C 288.083 244.553,288.725 246.390,289.189 247.600 C 291.464 253.538,291.683 254.445,291.020 255.178 C 290.679 255.555,290.400 256.084,290.400 256.355 C 290.400 256.626,290.219 256.735,289.997 256.598 C 289.776 256.461,289.472 256.676,289.322 257.075 C 288.832 258.381,286.242 261.600,285.681 261.600 C 285.380 261.600,285.205 261.816,285.294 262.081 C 285.448 262.543,284.913 263.368,283.564 264.749 C 283.214 265.107,282.802 265.670,282.648 266.000 C 282.342 266.658,281.904 267.385,280.362 269.800 C 279.800 270.680,278.996 272.030,278.575 272.800 C 278.155 273.570,277.462 274.605,277.036 275.100 C 276.609 275.595,276.394 276.000,276.558 276.000 C 276.721 276.000,276.463 276.550,275.984 277.223 C 275.505 277.896,275.212 278.545,275.332 278.666 C 275.453 278.786,275.203 279.260,274.776 279.718 C 274.349 280.176,274.000 280.804,274.000 281.114 C 274.000 281.423,273.753 282.154,273.451 282.738 C 272.359 284.849,271.600 286.843,271.600 287.600 C 271.600 288.025,271.350 288.964,271.044 289.686 C 270.225 291.622,269.273 296.437,268.779 301.149 C 267.528 313.060,271.179 319.536,278.912 319.124 C 287.557 318.664,303.481 306.971,309.400 296.736 C 310.761 294.383,311.600 292.725,311.600 292.388 C 311.600 292.174,311.947 291.653,312.370 291.230 C 312.849 290.751,313.058 290.145,312.924 289.630 C 312.804 289.173,312.879 288.800,313.089 288.800 C 313.681 288.800,314.453 286.797,314.185 285.954 C 314.054 285.539,314.097 285.200,314.282 285.200 C 315.035 285.200,315.600 280.665,315.600 274.621 C 315.600 268.448,315.048 263.200,314.399 263.200 C 314.223 263.200,314.102 262.345,314.129 261.300 C 314.159 260.168,313.879 258.788,313.437 257.886 C 313.029 257.053,312.807 256.259,312.944 256.123 C 313.081 255.986,313.003 255.645,312.771 255.365 C 312.320 254.822,312.187 254.920,316.338 252.730 C 326.750 247.238,346.640 246.494,360.582 251.075 C 364.519 252.368,370.111 255.355,373.760 258.114 C 375.278 259.261,376.853 260.378,377.260 260.595 C 377.667 260.812,378.000 261.217,378.000 261.495 C 378.000 261.773,378.249 262.000,378.553 262.000 C 378.858 262.000,379.215 262.315,379.347 262.700 C 379.479 263.085,380.576 264.570,381.785 266.000 C 382.995 267.430,383.988 268.815,383.992 269.077 C 383.996 269.340,384.359 269.806,384.797 270.113 C 385.236 270.420,385.486 270.780,385.354 270.913 C 385.221 271.045,385.505 271.704,385.984 272.377 C 386.463 273.050,386.724 273.600,386.565 273.600 C 386.406 273.600,386.560 273.915,386.907 274.300 C 388.067 275.586,389.975 281.753,390.747 286.707 C 391.955 294.463,390.554 301.505,386.511 308.000 C 386.031 308.770,385.664 309.490,385.695 309.600 C 385.726 309.710,383.800 311.744,381.415 314.120 C 377.026 318.493,375.973 320.452,377.400 321.587 C 377.959 322.031,380.800 322.309,380.800 321.920 C 380.800 321.744,381.125 321.600,381.522 321.600 C 384.036 321.600,395.107 311.067,394.176 309.561 C 394.053 309.362,394.145 309.200,394.380 309.200 C 394.884 309.200,398.000 302.713,398.000 301.664 C 398.000 301.267,398.259 300.145,398.576 299.171 C 400.812 292.292,400.009 277.576,396.906 268.600 C 396.374 267.060,395.793 265.260,395.615 264.600 C 395.126 262.784,394.751 262.000,394.370 262.000 C 394.180 262.000,394.114 261.769,394.222 261.486 C 394.331 261.203,394.046 260.571,393.589 260.081 C 393.133 259.591,392.856 259.032,392.975 258.840 C 393.094 258.648,392.935 258.278,392.622 258.018 C 392.309 257.758,391.672 256.816,391.208 255.925 C 387.796 249.379,372.833 234.944,370.777 236.214 C 370.570 236.342,370.400 236.260,370.400 236.030 C 370.400 234.893,360.222 231.341,354.164 230.364 C 341.490 228.321,322.956 231.506,313.810 237.299 C 307.786 241.115,307.859 241.118,306.783 237.000 C 306.213 234.821,304.803 231.402,304.421 231.274 C 304.214 231.205,304.138 230.906,304.251 230.610 C 304.365 230.314,304.132 229.471,303.733 228.736 C 303.335 228.001,303.004 227.201,302.998 226.957 C 302.993 226.714,302.691 225.904,302.328 225.157 C 298.862 218.032,298.080 197.180,300.860 186.000 C 301.106 185.010,301.451 183.228,301.627 182.040 C 301.803 180.852,302.162 179.747,302.425 179.585 C 302.688 179.422,302.779 179.089,302.628 178.845 C 302.476 178.600,302.556 178.400,302.803 178.400 C 303.076 178.400,303.151 178.075,302.993 177.576 C 302.845 177.110,303.019 176.146,303.394 175.356 C 304.525 172.973,304.605 171.405,303.645 170.445 C 303.180 169.980,302.918 169.600,303.062 169.600 C 303.206 169.600,302.998 169.240,302.600 168.800 C 302.202 168.360,301.634 168.000,301.338 168.000 C 301.042 168.000,300.800 167.809,300.800 167.576 C 300.800 167.343,300.620 167.264,300.400 167.400 C 300.180 167.536,300.000 167.473,300.000 167.261 C 300.000 167.049,299.640 166.969,299.200 167.084 C 298.760 167.199,298.400 167.137,298.400 166.947 C 298.400 166.530,289.094 166.475,288.782 166.890 C 288.663 167.050,287.730 167.230,286.709 167.290 C 285.534 167.360,283.867 167.914,282.168 168.800 C 279.168 170.364,279.007 170.659,277.793 176.800 C 277.467 178.450,277.033 179.856,276.829 179.924 C 276.625 179.992,276.558 180.665,276.681 181.420 C 276.809 182.210,276.705 183.032,276.436 183.356 C 276.179 183.666,275.910 184.573,275.839 185.372 C 275.767 186.171,275.592 186.942,275.449 187.084 C 275.307 187.226,275.303 187.941,275.440 188.671 C 275.580 189.420,275.523 190.000,275.309 190.000 C 275.099 190.000,274.698 190.765,274.417 191.700 C 274.136 192.635,273.663 194.210,273.365 195.200 C 272.459 198.211,271.283 201.683,270.384 204.000 C 269.915 205.210,269.379 206.740,269.193 207.400 C 268.584 209.562,267.546 212.183,267.075 212.751 C 266.820 213.058,266.607 213.509,266.602 213.754 C 266.596 213.999,266.271 214.790,265.879 215.512 C 265.488 216.233,265.263 216.978,265.379 217.166 C 265.496 217.355,265.326 217.729,265.002 217.998 C 264.679 218.267,264.246 219.052,264.040 219.743 C 263.592 221.254,259.334 231.633,257.782 235.000 C 257.174 236.320,256.712 237.625,256.755 237.900 C 256.799 238.175,256.676 238.400,256.482 238.400 C 255.998 238.400,255.135 240.372,255.419 240.830 C 255.544 241.033,255.495 241.200,255.310 241.200 C 254.982 241.200,253.700 243.810,252.105 247.728 L 251.320 249.655 250.920 248.528 C 246.060 234.826,245.488 231.650,245.461 218.200 C 245.446 211.071,245.591 207.683,245.965 206.400 C 246.254 205.410,246.626 203.700,246.792 202.600 C 246.957 201.500,247.315 199.700,247.585 198.600 C 250.771 185.664,250.738 185.326,246.058 183.139 C 241.399 180.963,225.725 183.360,225.364 186.305 C 225.344 186.467,225.029 187.269,224.664 188.087 C 224.299 188.905,224.002 189.985,224.005 190.487 C 224.013 191.801,221.966 201.580,221.009 204.800 C 220.715 205.790,220.170 207.680,219.798 209.000 C 219.426 210.320,218.869 211.991,218.561 212.714 C 218.252 213.436,218.000 214.269,218.000 214.565 C 218.000 214.860,217.697 215.799,217.326 216.651 C 216.956 217.503,216.695 218.429,216.746 218.709 C 216.797 218.989,216.550 219.507,216.197 219.861 C 215.843 220.214,215.649 220.750,215.764 221.052 C 215.880 221.353,215.788 221.600,215.560 221.600 C 215.328 221.600,215.258 221.951,215.400 222.400 C 215.542 222.846,215.472 223.200,215.242 223.200 C 215.016 223.200,214.633 223.965,214.390 224.900 C 214.148 225.835,213.153 229.030,212.180 232.000 C 211.206 234.970,210.120 238.390,209.766 239.600 C 209.411 240.810,208.869 242.391,208.561 243.114 C 208.252 243.836,208.000 244.607,208.000 244.826 C 208.000 245.046,207.703 245.895,207.340 246.713 C 206.977 247.531,206.719 248.515,206.765 248.900 C 206.812 249.285,206.644 249.600,206.392 249.600 C 206.140 249.600,206.008 249.823,206.099 250.096 C 206.190 250.369,206.011 250.846,205.701 251.156 C 205.391 251.466,205.223 252.044,205.326 252.440 C 205.430 252.837,205.399 253.215,205.258 253.281 C 205.116 253.346,203.936 256.640,202.635 260.600 C 201.335 264.560,199.836 269.060,199.305 270.600 C 198.773 272.140,198.190 273.989,198.009 274.709 C 197.828 275.429,197.403 276.441,197.064 276.958 C 196.725 277.475,196.548 278.281,196.671 278.749 C 196.793 279.217,196.721 279.600,196.511 279.600 C 195.919 279.600,195.147 281.603,195.415 282.446 C 195.546 282.861,195.484 283.200,195.275 283.200 C 195.067 283.200,194.722 283.695,194.509 284.300 C 194.295 284.905,193.897 286.030,193.625 286.800 C 193.353 287.570,192.981 288.740,192.799 289.400 C 192.618 290.060,192.078 291.590,191.600 292.800 C 191.122 294.010,190.582 295.540,190.400 296.200 C 190.218 296.860,189.680 298.390,189.205 299.600 C 188.729 300.810,188.184 302.250,187.993 302.800 C 187.084 305.413,186.525 306.689,185.838 307.712 C 185.428 308.324,185.191 308.925,185.313 309.047 C 185.545 309.279,184.032 311.200,183.617 311.200 C 183.486 311.200,183.446 310.501,183.527 309.647 C 183.608 308.792,183.478 307.972,183.238 307.823 C 182.662 307.467,182.672 304.526,183.251 304.169 C 183.543 303.988,183.627 303.072,183.490 301.565 C 183.360 300.131,183.438 299.187,183.694 299.102 C 183.924 299.025,184.129 297.642,184.154 295.982 C 184.179 294.342,184.311 292.820,184.447 292.600 C 184.683 292.218,184.870 291.213,186.231 283.000 C 186.782 279.672,187.105 277.881,188.427 270.800 C 188.694 269.370,189.062 267.390,189.244 266.400 C 190.867 257.597,191.677 253.470,191.912 252.800 C 192.028 252.470,192.084 251.885,192.036 251.500 C 191.989 251.115,192.153 250.800,192.402 250.800 C 192.672 250.800,192.752 250.478,192.600 250.000 C 192.457 249.549,192.528 249.200,192.763 249.200 C 193.013 249.200,193.084 248.720,192.940 248.001 C 192.808 247.342,192.886 246.577,193.113 246.301 C 194.390 244.752,194.440 238.566,193.183 237.789 C 192.965 237.655,192.881 237.392,192.996 237.206 C 193.359 236.619,189.972 234.055,187.944 233.382 C 185.523 232.577,183.910 232.875,181.840 234.506 L 180.279 235.735 180.529 233.767 C 181.994 222.221,180.865 213.369,177.060 206.569 C 174.988 202.866,168.293 201.162,162.898 202.964 C 155.807 205.332,146.363 213.459,139.149 223.400 C 137.872 225.160,136.449 227.093,135.987 227.695 C 135.525 228.298,135.248 228.954,135.371 229.153 C 135.495 229.353,135.324 229.620,134.992 229.748 C 134.660 229.875,134.208 230.389,133.988 230.890 C 133.036 233.057,132.016 234.288,130.088 235.600 C 128.955 236.370,128.022 237.225,128.014 237.500 C 128.007 237.775,127.802 238.000,127.561 238.000 C 127.319 238.000,125.744 238.986,124.061 240.192 C 117.919 244.590,114.195 247.324,114.000 247.578 C 113.890 247.721,113.170 248.269,112.400 248.795 C 111.630 249.322,109.716 250.708,108.147 251.876 C 106.578 253.044,105.108 254.000,104.880 254.000 C 104.653 254.000,104.407 254.143,104.333 254.317 C 104.260 254.491,103.525 255.046,102.700 255.550 C 101.875 256.053,101.200 256.614,101.200 256.795 C 101.200 257.156,98.017 259.485,96.361 260.336 C 95.789 260.630,94.816 261.304,94.198 261.835 C 93.581 262.366,92.945 262.800,92.786 262.800 C 92.446 262.800,88.003 256.970,87.994 256.513 C 87.986 256.042,83.956 251.395,82.699 250.406 C 82.094 249.931,81.600 249.391,81.600 249.205 C 81.600 248.765,79.124 246.028,74.300 241.134 C 72.155 238.958,70.400 236.992,70.400 236.765 C 70.400 236.538,70.220 236.464,70.000 236.600 C 69.780 236.736,69.600 236.675,69.600 236.464 C 69.600 235.900,65.020 231.200,64.470 231.200 C 64.212 231.200,64.045 231.052,64.100 230.871 C 64.155 230.690,62.054 228.272,59.431 225.498 C 56.808 222.723,54.504 220.172,54.311 219.827 C 54.118 219.482,53.689 219.200,53.357 219.200 C 53.024 219.200,52.841 219.058,52.948 218.884 C 53.055 218.711,52.481 217.839,51.671 216.947 C 48.025 212.927,45.232 209.259,41.015 202.956 C 39.564 200.788,37.589 197.015,35.751 192.900 C 35.136 191.525,34.497 190.400,34.329 190.400 C 34.162 190.400,34.122 190.146,34.241 189.836 C 34.361 189.526,34.132 188.671,33.733 187.936 C 33.335 187.201,32.983 186.420,32.951 186.200 C 32.919 185.980,32.849 185.665,32.796 185.500 C 32.743 185.335,32.675 185.065,32.644 184.900 C 32.613 184.735,32.464 184.406,32.313 184.169 C 30.379 181.136,29.510 162.989,30.932 155.347 C 31.295 153.396,31.692 151.125,31.814 150.300 C 31.936 149.475,32.227 148.800,32.461 148.800 C 32.694 148.800,32.784 148.536,32.660 148.213 C 32.536 147.890,32.610 147.517,32.824 147.385 C 33.038 147.253,33.104 146.968,32.970 146.752 C 32.837 146.536,33.048 145.694,33.439 144.880 C 33.831 144.066,34.172 143.040,34.198 142.600 C 34.225 142.160,34.571 141.080,34.967 140.200 C 35.364 139.320,35.954 137.970,36.279 137.200 C 36.604 136.430,37.124 135.290,37.435 134.668 C 37.746 134.045,38.000 133.307,38.000 133.028 C 38.000 132.534,40.188 128.213,41.661 125.800 C 42.064 125.140,42.519 124.330,42.672 124.000 C 42.825 123.670,43.547 122.547,44.275 121.504 C 45.004 120.461,45.600 119.497,45.600 119.362 C 45.600 119.226,46.140 118.433,46.800 117.600 C 47.460 116.767,48.000 115.957,48.000 115.800 C 48.000 115.643,48.540 114.833,49.200 114.000 C 49.860 113.167,50.400 112.286,50.400 112.042 C 50.400 111.799,50.584 111.600,50.810 111.600 C 51.035 111.600,51.391 111.150,51.600 110.600 C 51.809 110.050,52.165 109.600,52.390 109.600 C 52.616 109.600,52.800 109.427,52.800 109.215 C 52.800 109.004,53.475 108.135,54.300 107.284 C 56.382 105.136,57.711 103.574,58.454 102.400 C 59.468 100.801,72.156 88.000,72.728 88.000 C 73.014 88.000,73.136 87.820,73.000 87.600 C 72.864 87.380,72.960 87.200,73.212 87.200 C 73.724 87.200,74.720 86.336,79.094 82.100 C 80.741 80.505,82.349 79.200,82.668 79.200 C 82.986 79.200,83.136 79.020,83.000 78.800 C 82.864 78.580,82.963 78.400,83.220 78.400 C 83.476 78.400,84.881 77.455,86.341 76.300 C 87.801 75.145,89.267 73.986,89.598 73.725 C 89.929 73.463,91.190 72.463,92.400 71.501 C 93.610 70.539,95.860 68.869,97.400 67.790 C 98.940 66.710,100.290 65.716,100.400 65.580 C 100.844 65.030,113.148 56.800,113.526 56.800 C 113.750 56.800,113.993 56.665,114.067 56.500 C 114.140 56.335,115.256 55.660,116.546 55.000 C 117.836 54.340,118.980 53.576,119.088 53.302 C 119.196 53.029,119.446 52.905,119.645 53.028 C 119.843 53.150,120.115 52.966,120.248 52.618 C 120.382 52.270,120.696 52.027,120.946 52.078 C 121.195 52.128,122.120 51.715,123.000 51.159 C 124.724 50.070,133.211 45.877,136.800 44.341 C 138.010 43.824,139.060 43.264,139.134 43.098 C 139.208 42.931,139.433 42.897,139.634 43.021 C 139.835 43.145,140.000 43.046,140.000 42.800 C 140.000 42.554,140.165 42.455,140.366 42.579 C 140.567 42.703,140.792 42.668,140.866 42.501 C 141.203 41.737,158.050 36.394,163.500 35.323 C 165.315 34.967,166.800 34.554,166.800 34.407 C 166.800 34.259,167.340 34.218,168.000 34.315 C 168.660 34.412,169.200 34.322,169.200 34.115 C 169.200 33.908,169.719 33.815,170.353 33.908 C 170.987 34.001,171.624 33.885,171.768 33.652 C 171.916 33.412,172.549 33.330,173.215 33.463 C 173.884 33.597,174.643 33.496,174.962 33.231 C 175.334 32.923,176.222 32.855,177.563 33.033 C 178.969 33.219,179.600 33.163,179.600 32.852 C 179.600 32.538,181.256 32.400,185.000 32.400 C 188.744 32.400,190.400 32.538,190.400 32.852 C 190.400 33.163,191.031 33.219,192.437 33.033 C 193.773 32.856,194.666 32.923,195.034 33.229 C 195.343 33.485,195.992 33.591,196.477 33.464 C 196.962 33.337,197.592 33.427,197.877 33.664 C 198.162 33.901,198.757 34.000,199.198 33.885 C 199.639 33.769,200.000 33.802,200.000 33.957 C 200.000 34.113,201.395 34.580,203.100 34.996 C 206.861 35.913,211.930 37.968,215.016 39.826 C 216.270 40.582,217.434 41.200,217.602 41.200 C 217.771 41.200,218.213 41.666,218.586 42.235 C 218.959 42.804,219.356 43.177,219.470 43.064 C 219.653 42.880,220.551 43.839,224.374 48.300 C 224.987 49.015,225.411 49.600,225.317 49.600 C 225.223 49.600,225.530 50.140,226.000 50.800 C 226.470 51.460,226.724 52.000,226.565 52.000 C 226.406 52.000,226.568 52.323,226.926 52.718 C 228.644 54.616,230.690 65.924,230.257 71.129 C 229.757 77.150,228.600 84.059,227.700 86.400 C 227.573 86.730,227.454 87.120,227.435 87.267 C 227.416 87.413,227.277 87.656,227.128 87.806 C 226.978 87.956,226.952 88.331,227.070 88.639 C 227.189 88.948,227.103 89.200,226.880 89.200 C 226.657 89.200,226.569 89.560,226.684 90.000 C 226.799 90.440,226.728 90.800,226.527 90.800 C 226.079 90.800,225.034 93.568,225.360 93.893 C 225.488 94.021,225.424 94.330,225.217 94.579 C 225.011 94.828,224.224 96.475,223.469 98.239 C 222.164 101.288,220.368 105.098,219.623 106.400 C 219.435 106.730,218.857 107.865,218.340 108.922 C 217.823 109.979,217.085 111.187,216.700 111.605 C 216.315 112.024,216.000 112.554,216.000 112.783 C 216.000 113.012,215.841 113.200,215.646 113.200 C 215.451 113.200,214.971 113.875,214.581 114.700 C 213.867 116.207,207.678 124.620,205.414 127.162 C 203.501 129.309,194.768 138.066,193.000 139.610 C 188.434 143.598,177.176 151.600,176.132 151.600 C 175.840 151.600,175.600 151.780,175.600 152.000 C 175.600 152.220,175.326 152.400,174.992 152.400 C 174.658 152.400,173.713 152.811,172.892 153.313 C 164.758 158.291,151.289 162.975,140.400 164.611 C 137.870 164.991,135.530 165.390,135.200 165.498 C 134.160 165.838,125.133 165.816,124.921 165.473 C 124.810 165.293,124.150 165.195,123.454 165.255 C 122.758 165.315,122.011 165.258,121.794 165.129 C 121.577 165.000,120.770 164.767,120.000 164.613 C 110.936 162.790,101.693 156.987,97.680 150.600 C 95.438 147.030,93.924 146.353,92.429 148.254 C 90.761 150.374,93.096 159.750,96.126 163.100 C 96.573 163.595,96.806 164.000,96.643 164.000 C 96.183 164.000,99.067 167.475,102.382 170.914 C 107.102 175.810,113.032 179.596,118.500 181.205 C 120.205 181.706,121.600 182.290,121.600 182.502 C 121.600 182.713,122.039 182.777,122.575 182.642 C 123.112 182.507,123.670 182.590,123.816 182.826 C 123.962 183.062,124.356 183.149,124.691 183.020 C 125.027 182.892,125.546 182.989,125.846 183.238 C 126.145 183.486,126.831 183.579,127.370 183.443 C 127.928 183.303,128.471 183.391,128.630 183.648 C 128.808 183.937,129.607 184.016,130.854 183.868 C 131.982 183.735,132.800 183.798,132.800 184.019 C 132.800 184.455,144.510 184.556,144.943 184.124 C 145.094 183.972,146.114 183.896,147.209 183.954 C 148.474 184.021,149.200 183.896,149.200 183.612 C 149.200 183.316,149.678 183.253,150.604 183.427 C 151.479 183.591,152.226 183.510,152.585 183.212 C 152.903 182.949,153.538 182.853,154.000 183.000 C 154.461 183.146,155.092 183.056,155.402 182.799 C 155.711 182.541,156.161 182.452,156.400 182.600 C 156.639 182.748,157.052 182.696,157.318 182.484 C 157.583 182.272,159.650 181.708,161.911 181.229 C 170.788 179.349,181.161 175.565,188.769 171.431 C 190.623 170.424,192.296 169.600,192.489 169.600 C 192.681 169.600,193.775 169.013,194.919 168.296 C 196.064 167.579,197.492 166.740,198.093 166.432 C 198.695 166.124,199.505 165.578,199.893 165.219 C 200.282 164.861,201.410 164.006,202.400 163.321 C 203.390 162.636,204.562 161.744,205.004 161.338 C 205.446 160.932,206.706 159.890,207.804 159.021 C 210.158 157.159,218.768 148.565,220.856 145.994 C 221.657 145.007,223.322 142.990,224.556 141.512 C 225.790 140.034,226.800 138.715,226.800 138.582 C 226.800 138.448,227.579 137.318,228.531 136.070 C 229.483 134.821,230.608 133.170,231.031 132.400 C 231.454 131.630,232.029 130.854,232.308 130.675 C 232.588 130.497,232.712 130.182,232.585 129.975 C 232.457 129.769,232.573 129.600,232.843 129.600 C 233.113 129.600,233.214 129.481,233.069 129.336 C 232.924 129.191,233.176 128.812,233.629 128.494 C 234.083 128.177,234.357 127.666,234.239 127.358 C 234.122 127.051,234.189 126.800,234.390 126.800 C 234.591 126.800,235.544 125.225,236.509 123.300 C 237.474 121.375,238.459 119.440,238.697 119.000 C 239.814 116.938,241.600 112.936,241.600 112.493 C 241.600 112.222,241.947 111.653,242.370 111.230 C 242.849 110.751,243.058 110.145,242.924 109.630 C 242.804 109.173,242.879 108.800,243.089 108.800 C 243.648 108.800,244.417 106.911,244.146 106.205 C 244.019 105.872,244.090 105.600,244.305 105.600 C 245.025 105.600,248.184 94.919,249.747 87.200 C 252.410 74.052,252.399 56.745,249.723 45.600 C 248.365 39.948,245.261 32.000,244.411 32.000 C 244.199 32.000,244.122 31.749,244.239 31.442 C 244.357 31.134,244.062 30.609,243.584 30.273 C 243.105 29.938,242.826 29.482,242.963 29.259 C 243.101 29.037,242.895 28.617,242.507 28.327 C 242.118 28.037,241.452 27.170,241.027 26.400 C 238.670 22.129,225.636 10.400,223.249 10.400 C 223.039 10.400,222.807 10.265,222.733 10.100 C 222.621 9.847,216.595 6.723,216.000 6.610 C 215.890 6.589,215.350 6.323,214.800 6.018 C 214.250 5.714,213.757 5.490,213.705 5.520 C 213.653 5.551,212.843 5.249,211.905 4.849 C 202.908 1.010,181.992 -1.052,168.600 0.579 M169.777 224.889 C 170.563 226.010,170.563 227.948,169.779 232.777 C 168.440 241.027,167.295 246.294,166.771 246.618 C 166.596 246.726,166.554 247.441,166.679 248.207 C 166.835 249.169,166.752 249.600,166.410 249.600 C 166.134 249.600,166.016 249.866,166.145 250.200 C 166.271 250.530,166.181 250.800,165.945 250.800 C 165.708 250.800,165.618 251.070,165.745 251.400 C 165.871 251.730,165.786 252.000,165.556 252.000 C 165.298 252.000,165.238 252.462,165.400 253.200 C 165.549 253.879,165.498 254.400,165.282 254.400 C 165.072 254.400,164.769 254.985,164.609 255.700 C 164.449 256.415,164.175 257.630,164.001 258.400 C 163.321 261.398,161.002 270.022,159.213 276.200 C 158.768 277.740,158.216 279.788,157.988 280.751 C 157.760 281.714,157.363 282.884,157.105 283.351 C 156.847 283.818,156.677 284.470,156.726 284.800 C 156.776 285.130,156.457 286.105,156.017 286.967 C 155.539 287.905,155.312 288.908,155.452 289.467 C 155.584 289.992,155.507 290.400,155.274 290.400 C 154.858 290.400,154.625 291.033,153.434 295.400 C 153.074 296.720,152.588 298.340,152.354 299.000 C 152.121 299.660,151.781 300.740,151.599 301.400 C 151.418 302.060,150.878 303.590,150.400 304.800 C 149.922 306.010,149.379 307.540,149.193 308.200 C 148.401 311.008,146.613 314.926,145.823 315.581 C 145.480 315.865,145.200 316.333,145.200 316.620 C 145.200 316.907,144.748 317.498,144.195 317.932 C 138.110 322.719,136.025 291.632,141.017 270.534 C 141.337 269.178,141.600 267.736,141.600 267.328 C 141.600 266.921,141.965 265.907,142.411 265.074 C 142.858 264.242,143.132 263.414,143.021 263.235 C 142.911 263.055,143.188 262.147,143.638 261.216 C 144.088 260.285,144.354 259.257,144.229 258.932 C 144.104 258.607,144.251 258.092,144.556 257.787 C 144.860 257.483,145.564 255.831,146.121 254.117 C 146.678 252.403,147.958 249.076,148.967 246.725 C 149.975 244.374,150.800 242.259,150.800 242.025 C 150.800 241.791,150.980 241.600,151.200 241.600 C 151.420 241.600,151.600 241.240,151.600 240.800 C 151.600 240.360,151.791 240.000,152.024 240.000 C 152.257 240.000,152.348 239.839,152.226 239.642 C 152.104 239.445,152.271 239.182,152.596 239.057 C 152.931 238.928,153.085 238.565,152.950 238.215 C 152.821 237.877,152.905 237.600,153.138 237.600 C 153.372 237.600,153.871 236.925,154.249 236.100 C 157.817 228.306,167.350 221.424,169.777 224.889 M298.768 273.800 C 298.786 277.533,298.011 282.939,297.160 285.008 C 296.891 285.664,296.704 286.347,296.744 286.526 C 296.784 286.705,296.442 287.379,295.983 288.023 C 295.525 288.667,295.252 289.360,295.377 289.563 C 295.502 289.766,295.454 289.992,295.269 290.066 C 295.085 290.140,294.289 291.190,293.502 292.400 C 291.349 295.708,288.071 298.987,285.538 300.368 C 282.944 301.781,282.800 301.814,282.800 301.000 C 282.800 300.670,282.620 300.400,282.400 300.400 C 282.180 300.400,282.000 300.130,282.000 299.800 C 282.000 299.470,282.200 299.200,282.443 299.200 C 282.714 299.200,282.791 298.819,282.642 298.225 C 282.507 297.688,282.561 297.148,282.761 297.024 C 282.961 296.900,283.033 296.446,282.920 296.014 C 282.807 295.583,283.107 294.418,283.588 293.426 C 284.110 292.346,284.357 291.296,284.203 290.811 C 284.062 290.365,284.122 290.000,284.337 290.000 C 284.553 290.000,285.214 288.425,285.806 286.500 C 287.114 282.251,290.982 274.188,292.536 272.470 C 292.902 272.066,293.077 271.611,292.925 271.458 C 292.773 271.306,293.045 270.903,293.531 270.563 C 294.016 270.223,294.310 269.778,294.183 269.573 C 294.056 269.368,294.128 269.200,294.342 269.200 C 294.557 269.200,295.416 268.269,296.251 267.130 L 297.770 265.061 298.260 267.630 C 298.530 269.044,298.758 271.820,298.768 273.800 M89.375 297.415 C 89.899 304.263,89.451 317.822,88.659 319.104 C 88.539 319.299,88.266 320.525,88.054 321.829 C 87.841 323.133,87.445 324.740,87.173 325.400 C 86.901 326.060,86.719 327.005,86.768 327.500 C 86.817 327.995,86.649 328.400,86.395 328.400 C 86.141 328.400,86.008 328.623,86.099 328.896 C 86.190 329.169,86.011 329.646,85.701 329.956 C 85.391 330.266,85.223 330.844,85.326 331.240 C 85.430 331.637,85.355 332.015,85.159 332.081 C 84.963 332.146,84.287 333.640,83.658 335.400 C 82.511 338.610,79.431 344.766,77.861 346.987 C 77.399 347.640,76.992 348.377,76.955 348.624 C 76.919 348.872,76.464 349.513,75.945 350.050 C 74.808 351.224,71.175 355.820,70.564 356.856 C 70.325 357.262,70.026 357.493,69.901 357.367 C 69.776 357.242,69.561 357.492,69.424 357.923 C 69.288 358.354,68.705 359.042,68.130 359.453 C 67.555 359.864,66.526 360.651,65.842 361.201 C 58.641 367.006,54.313 369.128,48.938 369.489 C 45.798 369.700,41.600 368.826,41.600 367.962 C 41.600 367.808,41.127 367.144,40.550 366.485 C 38.020 363.602,37.073 354.369,38.621 347.682 C 40.095 341.318,40.947 338.523,42.246 335.800 C 42.561 335.140,42.834 334.420,42.853 334.200 C 42.872 333.980,43.189 333.350,43.558 332.800 C 43.926 332.250,44.637 330.990,45.136 330.000 C 45.635 329.010,46.392 327.660,46.817 327.000 C 47.243 326.340,47.719 325.530,47.874 325.200 C 48.756 323.332,52.181 318.800,52.710 318.800 C 53.053 318.800,53.232 318.699,53.109 318.576 C 52.883 318.350,53.208 317.954,56.300 314.689 C 57.235 313.702,58.000 312.724,58.000 312.517 C 58.000 312.039,67.140 303.200,67.634 303.200 C 67.835 303.200,68.000 302.994,68.000 302.741 C 68.000 302.140,72.047 298.433,72.724 298.414 C 73.012 298.406,73.136 298.220,73.000 298.000 C 72.864 297.780,72.988 297.597,73.276 297.594 C 73.564 297.591,74.921 296.537,76.290 295.251 C 77.660 293.966,78.875 293.009,78.990 293.124 C 79.106 293.239,79.200 293.069,79.200 292.746 C 79.200 292.424,80.010 291.648,81.000 291.022 C 81.990 290.396,82.800 289.730,82.800 289.542 C 82.800 289.354,83.027 289.200,83.304 289.200 C 83.581 289.200,84.256 288.788,84.804 288.286 C 85.352 287.783,86.250 287.058,86.800 286.675 L 87.800 285.978 88.312 288.089 C 88.593 289.250,89.072 293.447,89.375 297.415 M244.212 293.300 C 243.848 297.234,240.940 305.372,239.605 306.197 C 239.382 306.335,239.200 306.714,239.200 307.040 C 239.200 307.836,236.726 311.165,236.120 311.184 C 235.856 311.193,235.496 311.443,235.320 311.741 C 233.738 314.415,228.431 319.201,226.500 319.695 C 225.202 320.027,225.355 319.579,227.700 316.179 C 228.855 314.504,230.211 312.384,230.714 311.467 C 231.217 310.550,232.027 309.489,232.514 309.109 C 233.001 308.729,233.220 308.411,233.000 308.403 C 232.744 308.393,232.748 308.282,233.013 308.094 C 233.635 307.651,236.000 304.298,236.000 303.859 C 236.000 303.648,236.418 302.919,236.929 302.238 C 237.441 301.557,237.983 300.730,238.134 300.400 C 238.285 300.070,238.764 299.260,239.198 298.600 C 239.633 297.940,240.173 297.040,240.400 296.600 C 240.627 296.160,241.167 295.260,241.601 294.600 C 242.035 293.940,242.528 293.130,242.695 292.800 C 243.162 291.881,244.175 290.400,244.337 290.400 C 244.416 290.400,244.360 291.705,244.212 293.300 " stroke="none" fill="#f8f8f8" fill-rule="evenodd"></path></g></svg>
