<svg id="svg" xmlns="http://www.w3.org/2000/svg" xmlns:xlink="http://www.w3.org/1999/xlink" width="400" height="400" viewBox="0, 0, 400,400" version="1.1"><g id="svgg"><path id="path0" d="M189.478 0.384 C 76.872 6.424,-8.443 104.191,0.835 216.560 C 9.769 324.757,103.497 406.017,211.985 399.621 C 324.690 392.976,409.388 294.368,399.164 181.702 C 389.479 74.981,296.570 -5.359,189.478 0.384 M261.116 67.886 C 277.700 69.102,287.327 73.515,300.062 85.738 L 302.504 88.081 303.631 87.849 C 309.970 86.542,317.208 83.632,330.153 77.184 C 334.560 74.989,338.245 73.193,338.342 73.193 C 338.822 73.193,338.353 78.012,337.656 80.238 C 337.055 82.157,333.192 89.801,331.646 92.132 C 327.374 98.570,321.605 103.418,315.294 105.873 C 312.159 107.093,312.815 107.494,317.932 107.489 C 325.741 107.480,331.659 105.719,344.264 99.651 C 346.066 98.783,347.573 98.106,347.612 98.146 C 347.755 98.288,345.963 102.965,345.010 104.941 C 341.681 111.839,329.827 123.613,319.240 130.535 L 317.247 131.839 317.372 141.171 C 317.557 154.987,317.018 164.194,315.351 175.663 C 303.177 259.464,241.463 323.333,165.871 330.362 C 130.953 333.610,91.234 322.994,65.536 303.547 C 64.127 302.481,63.471 302.672,71.455 301.824 C 93.775 299.452,111.707 293.051,132.662 279.974 C 137.043 277.241,145.727 271.477,145.540 271.427 C 145.452 271.404,144.021 271.251,142.360 271.087 C 133.155 270.179,124.553 267.675,118.500 264.143 C 106.088 256.899,96.345 245.528,90.779 231.789 C 89.844 229.480,88.537 225.766,88.628 225.675 C 88.654 225.649,90.111 226.081,91.867 226.635 C 102.747 230.066,108.913 230.088,120.860 226.736 C 124.107 225.825,124.603 225.642,124.062 225.553 C 123.710 225.495,122.804 225.354,122.049 225.240 C 113.220 223.904,104.512 219.633,92.806 210.898 C 83.726 204.123,75.475 191.936,71.193 178.975 C 69.447 173.690,68.432 168.538,67.787 161.678 L 67.667 160.410 68.189 160.755 C 76.956 166.555,82.831 168.085,99.360 168.873 C 101.020 168.953,102.405 168.997,102.437 168.973 C 102.470 168.948,101.481 168.406,100.242 167.767 C 88.132 161.529,77.991 149.852,71.268 134.405 C 65.035 120.085,67.379 95.993,76.458 81.065 L 76.807 80.491 78.156 83.018 C 80.488 87.383,82.381 90.044,86.910 95.325 C 106.298 117.931,140.976 137.697,171.638 143.619 C 179.642 145.165,183.607 145.512,193.740 145.556 L 201.845 145.591 201.749 145.119 C 201.697 144.860,201.194 142.507,200.633 139.890 C 192.520 102.084,223.560 65.131,261.116 67.886 " stroke="none" fill="#128482" fill-rule="evenodd"></path></g></svg>
