<svg id="svg" xmlns="http://www.w3.org/2000/svg" xmlns:xlink="http://www.w3.org/1999/xlink" width="400" height="400" viewBox="0, 0, 400,400"><g id="svgg"><path id="path0" d="M150.069 1.153 C 110.156 2.201,68.380 4.771,55.000 7.002 C 32.753 10.712,17.755 26.451,10.656 53.537 C 8.224 62.815,7.502 66.074,6.658 71.567 C 6.307 73.856,5.685 77.725,5.276 80.166 C 4.308 85.944,3.010 104.558,1.544 133.703 C 0.573 153.005,0.567 247.591,1.536 266.297 C 3.144 297.332,4.230 312.676,5.326 319.834 C 7.425 333.541,8.074 336.775,10.669 346.463 C 11.427 349.295,13.793 356.663,14.410 358.114 C 24.842 382.639,40.109 391.985,74.619 394.971 C 156.802 402.082,326.209 399.577,353.861 390.842 C 373.980 384.486,387.714 363.612,393.281 330.929 C 395.179 319.783,395.575 316.988,396.071 311.234 C 396.373 307.725,396.881 300.485,397.199 295.146 C 397.516 289.806,398.202 278.821,398.723 270.735 C 399.512 258.502,399.672 246.671,399.679 200.277 C 399.687 142.620,399.765 145.637,397.200 104.577 C 396.333 90.714,395.531 81.485,394.974 78.970 C 394.692 77.702,394.223 75.081,393.930 73.145 C 391.042 54.049,385.923 38.702,379.248 29.126 C 371.595 18.147,362.459 11.276,351.622 8.349 C 331.171 2.827,227.437 -0.877,150.069 1.153 M162.217 116.679 C 163.469 117.690,166.241 119.742,168.377 121.237 C 170.513 122.733,172.386 124.111,172.538 124.301 C 172.691 124.490,174.688 125.995,176.976 127.645 C 179.265 129.295,181.512 130.948,181.969 131.317 C 182.427 131.687,185.423 133.921,188.627 136.282 C 191.831 138.643,198.696 143.724,203.883 147.573 C 209.071 151.422,215.936 156.508,219.140 158.876 C 222.344 161.244,225.589 163.647,226.352 164.216 C 227.115 164.785,230.361 167.188,233.564 169.557 C 261.743 190.384,266.297 193.809,266.297 194.175 C 266.297 194.334,264.612 195.729,262.552 197.277 C 257.541 201.041,246.777 208.955,242.996 211.654 C 241.318 212.853,239.820 213.978,239.667 214.155 C 239.515 214.332,237.143 216.076,234.397 218.031 C 231.650 219.985,229.279 221.733,229.126 221.914 C 228.974 222.095,226.602 223.843,223.856 225.798 C 221.110 227.752,218.738 229.500,218.585 229.681 C 218.433 229.862,216.061 231.610,213.315 233.564 C 210.569 235.519,208.197 237.263,208.044 237.440 C 207.892 237.617,206.394 238.731,204.716 239.916 C 203.037 241.100,199.293 243.823,196.394 245.967 C 193.495 248.111,188.877 251.518,186.130 253.537 C 178.768 258.950,171.290 264.473,165.231 268.971 C 162.281 271.162,159.722 272.954,159.545 272.954 C 159.368 272.954,159.223 237.379,159.223 193.897 C 159.223 150.416,159.385 114.840,159.582 114.840 C 159.780 114.840,160.966 115.668,162.217 116.679 " stroke="none" fill="#128482" fill-rule="evenodd"></path></g></svg>
